Jost-HeavyItalic.ufo
<glyph name="exclam" format="1">
  <advance width="346"/>
  <unicode hex="0021"/>
  <outline>
    <contour>
      <point x="161" y="700" type="line"/>
      <point x="373" y="700" type="line"/>
      <point x="259.5" y="241" type="line"/>
      <point x="116.5" y="241" type="line"/>
    </contour>
    <contour>
      <point x="52" y="69" type="curve" smooth="yes"/>
      <point x="52" y="126"/>
      <point x="96.5" y="165.5"/>
      <point x="159.5" y="165.5" type="curve" smooth="yes"/>
      <point x="222.5" y="165.5"/>
      <point x="266.5" y="126"/>
      <point x="266.5" y="69" type="curve" smooth="yes"/>
      <point x="266.5" y="12"/>
      <point x="222.5" y="-27.5"/>
      <point x="159.5" y="-27.5" type="curve" smooth="yes"/>
      <point x="96.5" y="-27.5"/>
      <point x="52" y="12"/>
    </contour>
  </outline>
</glyph>
<glyph name="quotedbl" format="1">
  <advance width="519"/>
  <unicode hex="0022"/>
  <outline>
    <contour>
      <point x="183" y="700" type="line"/>
      <point x="364.5" y="699.5" type="line"/>
      <point x="206.5" y="376" type="line"/>
      <point x="92" y="375.5" type="line"/>
    </contour>
    <contour>
      <point x="398" y="700" type="line"/>
      <point x="579.5" y="699.5" type="line"/>
      <point x="421" y="376" type="line"/>
      <point x="306.5" y="375.5" type="line"/>
    </contour>
  </outline>
</glyph>
<glyph name="numbersign" format="2">
  <advance width="666"/>
  <unicode hex="0023"/>
  <outline>
    <contour>
      <point x="116" y="403" type="line"/>
      <point x="137" y="542" type="line"/>
      <point x="700" y="542" type="line"/>
      <point x="676" y="403" type="line"/>
      <point x="525" y="403" type="line"/>
      <point x="494" y="411" type="line"/>
      <point x="291" y="411" type="line"/>
      <point x="260" y="403" type="line"/>
    </contour>
    <contour>
      <point x="33" y="163" type="line"/>
      <point x="57" y="302" type="line"/>
      <point x="193" y="302" type="line"/>
      <point x="228" y="294" type="line"/>
      <point x="460" y="294" type="line"/>
      <point x="494" y="302" type="line"/>
      <point x="621" y="302" type="line"/>
      <point x="596" y="163" type="line"/>
    </contour>
    <contour>
      <point x="554" y="700" type="line"/>
      <point x="706" y="700" type="line"/>
      <point x="421" y="0" type="line"/>
      <point x="270" y="0" type="line"/>
      <point x="361" y="223" type="line"/>
      <point x="381" y="250" type="line"/>
      <point x="464" y="454" type="line"/>
      <point x="469" y="490" type="line"/>
    </contour>
    <contour>
      <point x="311" y="700" type="line"/>
      <point x="462" y="700" type="line"/>
      <point x="376" y="490" type="line"/>
      <point x="353" y="453" type="line"/>
      <point x="271" y="253" type="line"/>
      <point x="269" y="226" type="line"/>
      <point x="177" y="0" type="line"/>
      <point x="27" y="0" type="line"/>
    </contour>
  </outline>
</glyph>
<glyph name="dollar" format="1">
  <advance width="616"/>
  <unicode hex="0024"/>
  <outline>
    <contour>
      <point x="363" y="818" type="line"/>
      <point x="502.5" y="818" type="line"/>
      <point x="463.5" y="627" type="line"/>
      <point x="341" y="627" type="line"/>
    </contour>
    <contour>
      <point x="255.5" y="66" type="line"/>
      <point x="378" y="66" type="line"/>
      <point x="357.5" y="-112" type="line"/>
      <point x="219" y="-112" type="line"/>
    </contour>
    <contour>
      <point x="499" y="481.5" type="line"/>
      <point x="477.5" y="530.5"/>
      <point x="448.5" y="570.5"/>
      <point x="401.5" y="570.5" type="curve" smooth="yes"/>
      <point x="361.5" y="570.5"/>
      <point x="331" y="545.5"/>
      <point x="325" y="516.5" type="curve" smooth="yes"/>
      <point x="313" y="459.5"/>
      <point x="400" y="443.5"/>
      <point x="461" y="419.5" type="curve" smooth="yes"/>
      <point x="557.5" y="381.5"/>
      <point x="618" y="305"/>
      <point x="604.5" y="197.5" type="curve" smooth="yes"/>
      <point x="585" y="58.5"/>
      <point x="453.5" y="-11"/>
      <point x="299" y="-10" type="curve" smooth="yes"/>
      <point x="175.5" y="-9"/>
      <point x="73" y="66.5"/>
      <point x="32" y="164" type="curve"/>
      <point x="175" y="259" type="line"/>
      <point x="210.5" y="190.5"/>
      <point x="247.5" y="143"/>
      <point x="317.5" y="143.5" type="curve" smooth="yes"/>
      <point x="361" y="143.5"/>
      <point x="395" y="161.5"/>
      <point x="401.5" y="199" type="curve" smooth="yes"/>
      <point x="410.5" y="248"/>
      <point x="343.5" y="267"/>
      <point x="285.5" y="291" type="curve" smooth="yes"/>
      <point x="206" y="325.5"/>
      <point x="113" y="396"/>
      <point x="127" y="516" type="curve" smooth="yes"/>
      <point x="144" y="630.5"/>
      <point x="270" y="709.5"/>
      <point x="407.5" y="710" type="curve" smooth="yes"/>
      <point x="538" y="710.5"/>
      <point x="607.5" y="649"/>
      <point x="651.5" y="562" type="curve"/>
    </contour>
  </outline>
</glyph>
<glyph name="percent" format="2">
  <advance width="943"/>
  <unicode hex="0025"/>
  <outline>
    <contour>
      <point x="80" y="530" type="curve" smooth="yes"/>
      <point x="95" y="634"/>
      <point x="192" y="722"/>
      <point x="302" y="722" type="curve" smooth="yes"/>
      <point x="411" y="722"/>
      <point x="483" y="630"/>
      <point x="469" y="529" type="curve" smooth="yes"/>
      <point x="454" y="425"/>
      <point x="357" y="337"/>
      <point x="247" y="337" type="curve" smooth="yes"/>
      <point x="138" y="337"/>
      <point x="66" y="429"/>
    </contour>
    <contour>
      <point x="218" y="528" type="curve" smooth="yes"/>
      <point x="215" y="501"/>
      <point x="232" y="473"/>
      <point x="266" y="473" type="curve" smooth="yes"/>
      <point x="297" y="473"/>
      <point x="326" y="502"/>
      <point x="330" y="531" type="curve" smooth="yes"/>
      <point x="333" y="558"/>
      <point x="317" y="586"/>
      <point x="283" y="586" type="curve" smooth="yes"/>
      <point x="252" y="586"/>
      <point x="222" y="557"/>
    </contour>
    <contour>
      <point x="541" y="172" type="curve" smooth="yes"/>
      <point x="556" y="276"/>
      <point x="653" y="364"/>
      <point x="763" y="364" type="curve" smooth="yes"/>
      <point x="872" y="364"/>
      <point x="944" y="272"/>
      <point x="930" y="171" type="curve" smooth="yes"/>
      <point x="915" y="67"/>
      <point x="818" y="-21"/>
      <point x="708" y="-21" type="curve" smooth="yes"/>
      <point x="599" y="-21"/>
      <point x="527" y="71"/>
    </contour>
    <contour>
      <point x="680" y="170" type="curve" smooth="yes"/>
      <point x="677" y="143"/>
      <point x="695" y="115"/>
      <point x="725" y="115" type="curve" smooth="yes"/>
      <point x="756" y="115"/>
      <point x="785" y="139"/>
      <point x="791" y="172" type="curve" smooth="yes"/>
      <point x="794" y="199"/>
      <point x="776" y="228"/>
      <point x="746" y="228" type="curve" smooth="yes"/>
      <point x="715" y="228"/>
      <point x="686" y="203"/>
    </contour>
    <contour>
      <point x="746" y="700" type="line"/>
      <point x="932" y="700" type="line"/>
      <point x="263" y="0" type="line"/>
      <point x="78" y="0" type="line"/>
    </contour>
  </outline>
</glyph>
<glyph name="ampersand" format="1">
  <advance width="754"/>
  <unicode hex="0026"/>
  <outline>
    <contour>
      <point x="258" y="367.5" type="line" smooth="yes"/>
      <point x="217.5" y="422"/>
      <point x="181.5" y="474.5"/>
      <point x="190" y="540" type="curve" smooth="yes"/>
      <point x="204.5" y="638.5"/>
      <point x="311" y="719"/>
      <point x="437.5" y="719" type="curve" smooth="yes"/>
      <point x="555.5" y="719"/>
      <point x="636.5" y="639.5"/>
      <point x="623.5" y="545.5" type="curve" smooth="yes"/>
      <point x="610.5" y="443"/>
      <point x="523" y="398"/>
      <point x="419.5" y="335.5" type="curve" smooth="yes"/>
      <point x="352.5" y="296"/>
      <point x="243" y="282.5"/>
      <point x="231" y="205" type="curve" smooth="yes"/>
      <point x="224" y="163.5"/>
      <point x="253.5" y="133.5"/>
      <point x="305.5" y="131.5" type="curve" smooth="yes"/>
      <point x="427.5" y="125"/>
      <point x="545" y="244.5"/>
      <point x="624.5" y="348.5" type="curve"/>
      <point x="726" y="257.5" type="line"/>
      <point x="623.5" y="129"/>
      <point x="465" y="-15"/>
      <point x="267.5" y="-14" type="curve" smooth="yes"/>
      <point x="139.5" y="-13.5"/>
      <point x="32.5" y="62.5"/>
      <point x="49.5" y="189.5" type="curve" smooth="yes"/>
      <point x="69" y="343.5"/>
      <point x="242" y="380"/>
      <point x="338" y="421" type="curve" smooth="yes"/>
      <point x="398" y="447.5"/>
      <point x="462.5" y="483.5"/>
      <point x="468" y="528.5" type="curve" smooth="yes"/>
      <point x="470.5" y="553"/>
      <point x="452.5" y="581.5"/>
      <point x="417.5" y="581.5" type="curve" smooth="yes"/>
      <point x="381" y="581.5"/>
      <point x="357" y="557"/>
      <point x="351.5" y="527" type="curve" smooth="yes"/>
      <point x="344" y="483.5"/>
      <point x="381.5" y="441"/>
      <point x="421.5" y="391.5" type="curve" smooth="yes"/>
      <point x="720" y="0" type="line"/>
      <point x="532" y="0" type="line"/>
    </contour>
  </outline>
</glyph>
<glyph name="quotesingle" format="1">
  <advance width="304"/>
  <unicode hex="0027"/>
  <outline>
    <contour>
      <point x="183" y="700" type="line"/>
      <point x="364.5" y="699.5" type="line"/>
      <point x="206.5" y="376" type="line"/>
      <point x="92" y="375.5" type="line"/>
    </contour>
  </outline>
</glyph>
<glyph name="parenleft" format="1">
  <advance width="340"/>
  <unicode hex="0028"/>
  <outline>
    <contour>
      <point x="278" y="779.5" type="curve"/>
      <point x="435" y="779" type="line"/>
      <point x="348.5" y="628"/>
      <point x="280" y="463.5"/>
      <point x="252" y="290" type="curve" smooth="yes"/>
      <point x="226.5" y="126"/>
      <point x="238.5" y="-43"/>
      <point x="286.5" y="-200.5" type="curve"/>
      <point x="133.5" y="-200.5" type="line"/>
      <point x="77.5" y="-43.5"/>
      <point x="62" y="125"/>
      <point x="85.5" y="290" type="curve" smooth="yes"/>
      <point x="112" y="464.5"/>
      <point x="180.5" y="631.5"/>
    </contour>
  </outline>
</glyph>
<glyph name="parenright" format="1">
  <advance width="340"/>
  <unicode hex="0029"/>
  <outline>
    <contour>
      <point x="118" y="-199.5" type="curve"/>
      <point x="-38.5" y="-199" type="line"/>
      <point x="48" y="-48"/>
      <point x="116.5" y="116.5"/>
      <point x="144.5" y="290" type="curve" smooth="yes"/>
      <point x="170" y="454"/>
      <point x="158" y="623"/>
      <point x="110" y="780.5" type="curve"/>
      <point x="263" y="780.5" type="line"/>
      <point x="319" y="623.5"/>
      <point x="334" y="455"/>
      <point x="310.5" y="290" type="curve" smooth="yes"/>
      <point x="284" y="115.5"/>
      <point x="215.5" y="-51.5"/>
    </contour>
  </outline>
</glyph>
<glyph name="asterisk" format="1">
  <advance width="574"/>
  <unicode hex="002A"/>
  <outline>
    <contour>
      <point x="565.5" y="605" type="line"/>
      <point x="590" y="451" type="line"/>
      <point x="342" y="410.5" type="line"/>
      <point x="329.5" y="492" type="line"/>
    </contour>
    <contour>
      <point x="517" y="295.5" type="line"/>
      <point x="374" y="201" type="line"/>
      <point x="301" y="431" type="line"/>
      <point x="369" y="475" type="line"/>
    </contour>
    <contour>
      <point x="220" y="203.5" type="line"/>
      <point x="104.5" y="301.5" type="line"/>
      <point x="305.5" y="474.5" type="line"/>
      <point x="366" y="425.5" type="line"/>
    </contour>
    <contour>
      <point x="83" y="453" type="line"/>
      <point x="155.5" y="604" type="line"/>
      <point x="358" y="487.5" type="line"/>
      <point x="321.5" y="412" type="line"/>
    </contour>
    <contour>
      <point x="298.5" y="700" type="line"/>
      <point x="461" y="699.5" type="line"/>
      <point x="378.5" y="451.5" type="line"/>
      <point x="297.5" y="451" type="line"/>
    </contour>
  </outline>
</glyph>
<glyph name="plus" format="1">
  <advance width="673"/>
  <unicode hex="002B"/>
  <outline>
    <contour>
      <point x="66.5" y="190" type="line"/>
      <point x="96" y="357" type="line"/>
      <point x="646.5" y="357" type="line"/>
      <point x="617" y="190" type="line"/>
    </contour>
    <contour>
      <point x="315" y="553.5" type="line"/>
      <point x="494" y="553.5" type="line"/>
      <point x="397" y="-6.5" type="line"/>
      <point x="218.5" y="-6.5" type="line"/>
    </contour>
  </outline>
</glyph>
<glyph name="comma" format="1">
  <advance width="318"/>
  <unicode hex="002C"/>
  <outline>
    <contour>
      <point x="96.5" y="109" type="line"/>
      <point x="266.5" y="75" type="line"/>
      <point x="97.5" y="-172" type="line"/>
      <point x="-33" y="-147" type="line"/>
    </contour>
  </outline>
</glyph>
<glyph name="hyphen" format="1">
  <advance width="219"/>
  <unicode hex="002D"/>
  <outline>
    <contour>
      <point x="3.5" y="163" type="line"/>
      <point x="30" y="312.5" type="line"/>
      <point x="244" y="312.5" type="line"/>
      <point x="217.5" y="163" type="line"/>
    </contour>
  </outline>
</glyph>
<glyph name="period" format="1">
  <advance width="319"/>
  <unicode hex="002E"/>
  <outline>
    <contour>
      <point x="43" y="77" type="curve" smooth="yes"/>
      <point x="43" y="134"/>
      <point x="87" y="182"/>
      <point x="150" y="182" type="curve" smooth="yes"/>
      <point x="213" y="182"/>
      <point x="257.5" y="134"/>
      <point x="257.5" y="77" type="curve" smooth="yes"/>
      <point x="257.5" y="20"/>
      <point x="213" y="-27.5"/>
      <point x="150" y="-27.5" type="curve" smooth="yes"/>
      <point x="87" y="-27.5"/>
      <point x="43" y="20"/>
    </contour>
  </outline>
</glyph>
<glyph name="slash" format="1">
  <advance width="619"/>
  <unicode hex="002F"/>
  <outline>
    <contour>
      <point x="532" y="699.5" type="line"/>
      <point x="702.5" y="699.5" type="line"/>
      <point x="135" y="-149.5" type="line"/>
      <point x="-42" y="-149.5" type="line"/>
    </contour>
  </outline>
</glyph>
<glyph name="zero" format="1">
  <advance width="662"/>
  <unicode hex="0030"/>
  <outline>
    <contour>
      <point x="255.5" y="350" type="curve" smooth="yes"/>
      <point x="246.5" y="264.5"/>
      <point x="246.5" y="156"/>
      <point x="325" y="153.5" type="curve" smooth="yes"/>
      <point x="405" y="151"/>
      <point x="459.5" y="253.5"/>
      <point x="472.5" y="350" type="curve" smooth="yes"/>
      <point x="481.5" y="435.5"/>
      <point x="480.5" y="544"/>
      <point x="402" y="546.5" type="curve" smooth="yes"/>
      <point x="322" y="549"/>
      <point x="268.5" y="446.5"/>
    </contour>
    <contour>
      <point x="70" y="350" type="curve" smooth="yes"/>
      <point x="98" y="555"/>
      <point x="230" y="714"/>
      <point x="420" y="714" type="curve" smooth="yes"/>
      <point x="616.5" y="714"/>
      <point x="682.5" y="545"/>
      <point x="658" y="350" type="curve" smooth="yes"/>
      <point x="630" y="144"/>
      <point x="502" y="-14.5"/>
      <point x="307" y="-14" type="curve" smooth="yes"/>
      <point x="116" y="-13.5"/>
      <point x="45.5" y="155.5"/>
    </contour>
  </outline>
</glyph>
<glyph name="one" format="1">
  <advance width="512"/>
  <unicode hex="0031"/>
  <outline>
    <contour>
      <point x="113" y="475" type="line"/>
      <point x="143.5" y="644.5" type="line"/>
      <point x="516.5" y="715.5" type="line"/>
      <point x="393.5" y="0" type="line"/>
      <point x="207.5" y="0" type="line"/>
      <point x="295.5" y="516.5" type="line"/>
    </contour>
  </outline>
</glyph>
<glyph name="two" format="1">
  <advance width="664"/>
  <unicode hex="0032"/>
  <outline>
    <contour>
      <point x="-2" y="0" type="line"/>
      <point x="342.5" y="313" type="line" smooth="yes"/>
      <point x="397.5" y="366"/>
      <point x="455.5" y="410"/>
      <point x="464.5" y="472" type="curve" smooth="yes"/>
      <point x="469.5" y="510.5"/>
      <point x="450.5" y="547"/>
      <point x="401" y="548" type="curve" smooth="yes"/>
      <point x="340.5" y="550"/>
      <point x="301.5" y="492.5"/>
      <point x="290" y="435.5" type="curve"/>
      <point x="100.5" y="436" type="line"/>
      <point x="126" y="588"/>
      <point x="241.5" y="715.5"/>
      <point x="424" y="715" type="curve" smooth="yes"/>
      <point x="578" y="715"/>
      <point x="684.5" y="609.5"/>
      <point x="666" y="484" type="curve" smooth="yes"/>
      <point x="655.5" y="406.5"/>
      <point x="603" y="346.5"/>
      <point x="539.5" y="298.5" type="curve" smooth="yes"/>
      <point x="383.5" y="180" type="line"/>
      <point x="640" y="179.5" type="line"/>
      <point x="612" y="0" type="line"/>
    </contour>
  </outline>
</glyph>
<glyph name="three" format="2">
  <advance width="625"/>
  <unicode hex="0033"/>
  <outline>
    <contour>
      <point x="308" y="337" type="curve"/>
      <point x="319" y="419" type="line"/>
      <point x="380" y="423"/>
      <point x="450" y="452"/>
      <point x="456" y="505" type="curve" smooth="yes"/>
      <point x="459" y="537"/>
      <point x="440" y="559"/>
      <point x="400" y="560" type="curve" smooth="yes"/>
      <point x="351" y="561"/>
      <point x="318" y="525"/>
      <point x="307" y="485" type="curve"/>
      <point x="129" y="486" type="line"/>
      <point x="153" y="617"/>
      <point x="262" y="714"/>
      <point x="415" y="714" type="curve" smooth="yes"/>
      <point x="557" y="714"/>
      <point x="665" y="637"/>
      <point x="647" y="517" type="curve" smooth="yes"/>
      <point x="626" y="377"/>
      <point x="462" y="338"/>
    </contour>
    <contour>
      <point x="304" y="-18" type="curve" smooth="yes"/>
      <point x="139" y="-17"/>
      <point x="48" y="98"/>
      <point x="59" y="234" type="curve"/>
      <point x="247" y="234" type="line"/>
      <point x="244" y="175"/>
      <point x="271" y="138"/>
      <point x="326" y="136" type="curve" smooth="yes"/>
      <point x="376" y="135"/>
      <point x="422" y="161"/>
      <point x="429" y="212" type="curve" smooth="yes"/>
      <point x="441" y="272"/>
      <point x="382" y="298"/>
      <point x="303" y="300" type="curve"/>
      <point x="316" y="395" type="line"/>
      <point x="478" y="393"/>
      <point x="638" y="347"/>
      <point x="616" y="193" type="curve" smooth="yes"/>
      <point x="597" y="60"/>
      <point x="465" y="-19"/>
    </contour>
  </outline>
</glyph>
<glyph name="four" format="1">
  <advance width="714"/>
  <unicode hex="0034"/>
  <outline>
    <contour>
      <point x="0.5" y="120" type="line"/>
      <point x="500" y="699.5" type="line"/>
      <point x="656.5" y="700" type="line"/>
      <point x="537" y="0" type="line"/>
      <point x="334" y="0" type="line"/>
      <point x="364" y="176.5" type="line"/>
      <point x="389.5" y="188" type="line"/>
      <point x="430.5" y="427.5" type="line"/>
      <point x="276.5" y="257" type="line"/>
      <point x="516.5" y="257" type="line"/>
      <point x="538.5" y="285.5" type="line"/>
      <point x="693" y="285.5" type="line"/>
      <point x="663.5" y="119.5" type="line"/>
    </contour>
  </outline>
</glyph>
<glyph name="five" format="1">
  <advance width="651"/>
  <unicode hex="0035"/>
  <outline>
    <contour>
      <point x="631.5" y="221.5" type="curve" smooth="yes"/>
      <point x="611" y="63"/>
      <point x="454" y="-13"/>
      <point x="313" y="-14" type="curve" smooth="yes"/>
      <point x="200" y="-14.5"/>
      <point x="111" y="17.5"/>
      <point x="36.5" y="59.5" type="curve"/>
      <point x="121" y="226.5" type="line"/>
      <point x="174.5" y="188"/>
      <point x="233" y="166"/>
      <point x="283.5" y="165.5" type="curve" smooth="yes"/>
      <point x="351" y="165.5"/>
      <point x="415" y="186.5"/>
      <point x="424" y="247" type="curve" smooth="yes"/>
      <point x="432.5" y="305.5"/>
      <point x="369" y="322"/>
      <point x="316" y="323" type="curve" smooth="yes"/>
      <point x="255.5" y="324"/>
      <point x="178.5" y="312"/>
      <point x="109" y="286.5" type="curve"/>
      <point x="266.5" y="700" type="line"/>
      <point x="688" y="700" type="line"/>
      <point x="660.5" y="530" type="line"/>
      <point x="384.5" y="530.5" type="line"/>
      <point x="326.5" y="424" type="line"/>
      <point x="365.5" y="441"/>
      <point x="407.5" y="448.5"/>
      <point x="452.5" y="448" type="curve" smooth="yes"/>
      <point x="568.5" y="446"/>
      <point x="646.5" y="350.5"/>
    </contour>
  </outline>
</glyph>
<glyph name="six" format="2">
  <advance width="677"/>
  <unicode hex="0036"/>
  <outline>
    <contour>
      <point x="259" y="250" type="curve" smooth="yes"/>
      <point x="251" y="194"/>
      <point x="283" y="149"/>
      <point x="341" y="148" type="curve" smooth="yes"/>
      <point x="400" y="147"/>
      <point x="454" y="193"/>
      <point x="463" y="251" type="curve" smooth="yes"/>
      <point x="471" y="306"/>
      <point x="439" y="354"/>
      <point x="381" y="355" type="curve" smooth="yes"/>
      <point x="322" y="356"/>
      <point x="268" y="309"/>
    </contour>
    <contour>
      <point x="410" y="695" type="line"/>
      <point x="661" y="695" type="line"/>
      <point x="400" y="456" type="line"/>
      <point x="351" y="435" type="line"/>
      <point x="390" y="465"/>
      <point x="422" y="478"/>
      <point x="469" y="478" type="curve" smooth="yes"/>
      <point x="581" y="478"/>
      <point x="667" y="378"/>
      <point x="653" y="251" type="curve" smooth="yes"/>
      <point x="632" y="81"/>
      <point x="486" y="-18"/>
      <point x="324" y="-18" type="curve" smooth="yes"/>
      <point x="165" y="-18"/>
      <point x="48" y="84"/>
      <point x="69" y="251" type="curve" smooth="yes"/>
      <point x="81" y="334"/>
      <point x="132" y="401"/>
      <point x="189" y="462" type="curve" smooth="yes"/>
    </contour>
  </outline>
</glyph>
<glyph name="seven" format="2">
  <advance width="608"/>
  <unicode hex="0037"/>
  <outline>
    <contour>
      <point x="89" y="517" type="line"/>
      <point x="119" y="700" type="line"/>
      <point x="703" y="700" type="line"/>
      <point x="265" y="0" type="line"/>
      <point x="52" y="0" type="line"/>
      <point x="389" y="517" type="line"/>
    </contour>
  </outline>
</glyph>
<glyph name="eight" format="2">
  <advance width="633"/>
  <unicode hex="0038"/>
  <outline>
    <contour>
      <point x="136" y="532" type="curve" smooth="yes"/>
      <point x="154" y="655"/>
      <point x="280" y="718"/>
      <point x="407" y="718" type="curve" smooth="yes"/>
      <point x="529" y="718"/>
      <point x="643" y="654"/>
      <point x="625" y="530" type="curve" smooth="yes"/>
      <point x="607" y="402"/>
      <point x="471" y="338"/>
      <point x="353" y="338" type="curve" smooth="yes"/>
      <point x="240" y="338"/>
      <point x="118" y="404"/>
    </contour>
    <contour>
      <point x="313" y="512" type="curve" smooth="yes"/>
      <point x="308" y="477"/>
      <point x="325" y="444"/>
      <point x="362" y="444" type="curve" smooth="yes"/>
      <point x="404" y="444"/>
      <point x="436" y="476"/>
      <point x="442" y="513" type="curve" smooth="yes"/>
      <point x="447" y="548"/>
      <point x="429" y="581"/>
      <point x="392" y="581" type="curve" smooth="yes"/>
      <point x="349" y="581"/>
      <point x="319" y="549"/>
    </contour>
    <contour>
      <point x="54" y="190" type="curve" smooth="yes"/>
      <point x="74" y="334"/>
      <point x="228" y="398"/>
      <point x="352" y="398" type="curve" smooth="yes"/>
      <point x="469" y="398"/>
      <point x="611" y="334"/>
      <point x="591" y="190" type="curve" smooth="yes"/>
      <point x="571" y="57"/>
      <point x="428" y="-18"/>
      <point x="292" y="-18" type="curve" smooth="yes"/>
      <point x="162" y="-18"/>
      <point x="34" y="57"/>
    </contour>
    <contour>
      <point x="251" y="220" type="curve" smooth="yes"/>
      <point x="244" y="176"/>
      <point x="266" y="140"/>
      <point x="310" y="140" type="curve" smooth="yes"/>
      <point x="359" y="140"/>
      <point x="398" y="175"/>
      <point x="405" y="222" type="curve" smooth="yes"/>
      <point x="411" y="260"/>
      <point x="386" y="297"/>
      <point x="344" y="297" type="curve" smooth="yes"/>
      <point x="296" y="297"/>
      <point x="259" y="261"/>
    </contour>
  </outline>
</glyph>
<glyph name="nine" format="1">
  <advance width="678"/>
  <unicode hex="0039"/>
  <outline>
    <contour>
      <point x="493" y="450" type="curve" smooth="yes"/>
      <point x="501.5" y="506"/>
      <point x="468.5" y="550.5"/>
      <point x="411" y="551.5" type="curve" smooth="yes"/>
      <point x="352" y="552.5"/>
      <point x="300" y="507.5"/>
      <point x="291" y="449" type="curve" smooth="yes"/>
      <point x="282.5" y="393.5"/>
      <point x="314.5" y="346.5"/>
      <point x="372" y="345.5" type="curve" smooth="yes"/>
      <point x="431" y="344.5"/>
      <point x="484" y="391.5"/>
    </contour>
    <contour>
      <point x="343" y="4.5" type="line"/>
      <point x="92" y="4.5" type="line"/>
      <point x="352.5" y="244" type="line"/>
      <point x="402" y="265" type="line"/>
      <point x="363.5" y="235"/>
      <point x="326" y="224.5"/>
      <point x="278" y="224.5" type="curve" smooth="yes"/>
      <point x="165.5" y="224.5"/>
      <point x="85" y="317.5"/>
      <point x="99" y="449.5" type="curve" smooth="yes"/>
      <point x="119.5" y="619"/>
      <point x="265" y="718"/>
      <point x="428" y="718" type="curve" smooth="yes"/>
      <point x="587.5" y="718"/>
      <point x="706" y="616.5"/>
      <point x="684.5" y="449.5" type="curve" smooth="yes"/>
      <point x="673" y="366"/>
      <point x="621" y="298.5"/>
      <point x="563.5" y="238" type="curve" smooth="yes"/>
    </contour>
  </outline>
</glyph>
<glyph name="colon" format="1">
  <advance width="319"/>
  <unicode hex="003A"/>
  <outline>
    <contour>
      <point x="39" y="77" type="curve" smooth="yes"/>
      <point x="39" y="134"/>
      <point x="83" y="182"/>
      <point x="146" y="182" type="curve" smooth="yes"/>
      <point x="209" y="182"/>
      <point x="253.5" y="134"/>
      <point x="253.5" y="77" type="curve" smooth="yes"/>
      <point x="253.5" y="20"/>
      <point x="209" y="-27.5"/>
      <point x="146" y="-27.5" type="curve" smooth="yes"/>
      <point x="83" y="-27.5"/>
      <point x="39" y="20"/>
    </contour>
    <contour>
      <point x="102" y="448.5" type="curve" smooth="yes"/>
      <point x="102" y="505.5"/>
      <point x="146.5" y="553"/>
      <point x="209.5" y="553" type="curve" smooth="yes"/>
      <point x="272.5" y="553"/>
      <point x="317" y="505.5"/>
      <point x="317" y="448.5" type="curve" smooth="yes"/>
      <point x="317" y="391.5"/>
      <point x="272.5" y="344"/>
      <point x="209.5" y="344" type="curve" smooth="yes"/>
      <point x="146.5" y="344"/>
      <point x="102" y="391.5"/>
    </contour>
  </outline>
</glyph>
<glyph name="semicolon" format="1">
  <advance width="401"/>
  <unicode hex="003B"/>
  <outline>
    <contour>
      <point x="158" y="440" type="curve" smooth="yes"/>
      <point x="158" y="497"/>
      <point x="202.5" y="545"/>
      <point x="265.5" y="545" type="curve" smooth="yes"/>
      <point x="328.5" y="545"/>
      <point x="373" y="497"/>
      <point x="373" y="440" type="curve" smooth="yes"/>
      <point x="373" y="383"/>
      <point x="328.5" y="335.5"/>
      <point x="265.5" y="335.5" type="curve" smooth="yes"/>
      <point x="202.5" y="335.5"/>
      <point x="158" y="383"/>
    </contour>
    <contour>
      <point x="124.5" y="109" type="line"/>
      <point x="295" y="75" type="line"/>
      <point x="126" y="-172" type="line"/>
      <point x="-5" y="-147" type="line"/>
    </contour>
  </outline>
</glyph>
<glyph name="less" format="1">
  <advance width="621"/>
  <unicode hex="003C"/>
  <outline>
    <contour>
      <point x="317.5" y="265.5" type="line"/>
      <point x="560.5" y="160.5" type="line"/>
      <point x="531.5" y="-4" type="line"/>
      <point x="70" y="208.5" type="line"/>
      <point x="91" y="327" type="line"/>
      <point x="626" y="539.5" type="line"/>
      <point x="594" y="363" type="line"/>
    </contour>
  </outline>
</glyph>
<glyph name="equal" format="2">
  <advance width="610"/>
  <unicode hex="003D"/>
  <outline>
    <contour>
      <point x="34" y="66" type="line"/>
      <point x="60" y="215" type="line"/>
      <point x="572" y="215" type="line"/>
      <point x="545" y="66" type="line"/>
    </contour>
    <contour>
      <point x="72" y="290" type="line"/>
      <point x="98" y="439" type="line"/>
      <point x="610" y="439" type="line"/>
      <point x="584" y="290" type="line"/>
    </contour>
  </outline>
</glyph>
<glyph name="greater" format="2">
  <advance width="621"/>
  <unicode hex="003E"/>
  <outline>
    <contour>
      <point x="341" y="266" type="line"/>
      <point x="98" y="372" type="line"/>
      <point x="126" y="536" type="line"/>
      <point x="587" y="323" type="line"/>
      <point x="567" y="205" type="line"/>
      <point x="32" y="-8" type="line"/>
      <point x="63" y="169" type="line"/>
    </contour>
  </outline>
</glyph>
<glyph name="question" format="2">
  <advance width="629"/>
  <unicode hex="003F"/>
  <outline>
    <contour>
      <point x="467" y="500" type="curve" smooth="yes"/>
      <point x="475" y="548"/>
      <point x="442" y="576"/>
      <point x="387" y="577" type="curve" smooth="yes"/>
      <point x="323" y="579"/>
      <point x="259" y="539"/>
      <point x="214" y="489" type="curve"/>
      <point x="114" y="590" type="line"/>
      <point x="197" y="669"/>
      <point x="294" y="723"/>
      <point x="411" y="722" type="curve" smooth="yes"/>
      <point x="540" y="721"/>
      <point x="660" y="637"/>
      <point x="640" y="500" type="curve" smooth="yes"/>
      <point x="622" y="377"/>
      <point x="507" y="309"/>
      <point x="397" y="283" type="curve"/>
      <point x="380" y="211" type="line"/>
      <point x="236" y="211" type="line"/>
      <point x="246" y="390" type="line"/>
      <point x="278" y="390" type="line"/>
      <point x="373" y="392"/>
      <point x="454" y="440"/>
    </contour>
    <contour>
      <point x="173" y="66" type="curve" smooth="yes"/>
      <point x="173" y="116"/>
      <point x="218" y="156"/>
      <point x="278" y="156" type="curve" smooth="yes"/>
      <point x="338" y="156"/>
      <point x="383" y="116"/>
      <point x="383" y="66" type="curve" smooth="yes"/>
      <point x="383" y="15"/>
      <point x="338" y="-27"/>
      <point x="278" y="-27" type="curve" smooth="yes"/>
      <point x="218" y="-27"/>
      <point x="173" y="15"/>
    </contour>
  </outline>
</glyph>
<glyph name="at" format="1">
  <advance width="747"/>
  <unicode hex="0040"/>
  <outline>
    <contour>
      <point x="349.5" y="319.5" type="curve" smooth="yes"/>
      <point x="346.5" y="292.5"/>
      <point x="349" y="263"/>
      <point x="369" y="259.5" type="curve" smooth="yes"/>
      <point x="402" y="252.5"/>
      <point x="442.5" y="320.5"/>
      <point x="447.5" y="362" type="curve" smooth="yes"/>
      <point x="450" y="391"/>
      <point x="449" y="419.5"/>
      <point x="427.5" y="423" type="curve" smooth="yes"/>
      <point x="391.5" y="430"/>
      <point x="354.5" y="359.5"/>
    </contour>
    <contour>
      <point x="216" y="311.5" type="curve" smooth="yes"/>
      <point x="229" y="425.5"/>
      <point x="310" y="531.5"/>
      <point x="401.5" y="530" type="curve" smooth="yes"/>
      <point x="477" y="529"/>
      <point x="505.5" y="445.5"/>
      <point x="497" y="370.5" type="curve" smooth="yes"/>
      <point x="485" y="256.5"/>
      <point x="413.5" y="152.5"/>
      <point x="322" y="152.5" type="curve" smooth="yes"/>
      <point x="235.5" y="152.5"/>
      <point x="206" y="227.5"/>
    </contour>
    <contour>
      <point x="37.5" y="320" type="curve" smooth="yes"/>
      <point x="71" y="540"/>
      <point x="262.5" y="727"/>
      <point x="494" y="727" type="curve" smooth="yes"/>
      <point x="696.5" y="727"/>
      <point x="802" y="556.5"/>
      <point x="776.5" y="390" type="curve" smooth="yes"/>
      <point x="759" y="244.5"/>
      <point x="661.5" y="136.5"/>
      <point x="545" y="139.5" type="curve" smooth="yes"/>
      <point x="471" y="141"/>
      <point x="438" y="196"/>
      <point x="445" y="261.5" type="curve"/>
      <point x="437" y="303.5" type="line"/>
      <point x="493" y="520" type="line"/>
      <point x="619.5" y="520" type="line"/>
      <point x="563.5" y="313" type="line" smooth="yes"/>
      <point x="561" y="305"/>
      <point x="559" y="295"/>
      <point x="557" y="286" type="curve" smooth="yes"/>
      <point x="555.5" y="269.5"/>
      <point x="555" y="252.5"/>
      <point x="569.5" y="249.5" type="curve" smooth="yes"/>
      <point x="603" y="239"/>
      <point x="646.5" y="318.5"/>
      <point x="651.5" y="390.5" type="curve" smooth="yes"/>
      <point x="670" y="504"/>
      <point x="626.5" y="616"/>
      <point x="486" y="616" type="curve" smooth="yes"/>
      <point x="315" y="616"/>
      <point x="190.5" y="481.5"/>
      <point x="163" y="320" type="curve" smooth="yes"/>
      <point x="140.5" y="186"/>
      <point x="195.5" y="80"/>
      <point x="350" y="78.5" type="curve" smooth="yes"/>
      <point x="417.5" y="78"/>
      <point x="478.5" y="95.5"/>
      <point x="536.5" y="119.5" type="curve"/>
      <point x="563.5" y="19" type="line"/>
      <point x="497.5" y="-13.5"/>
      <point x="416" y="-32"/>
      <point x="327" y="-31.5" type="curve" smooth="yes"/>
      <point x="111.5" y="-30"/>
      <point x="9" y="130.5"/>
    </contour>
  </outline>
</glyph>
<glyph name="A" format="2">
  <advance width="735"/>
  <unicode hex="0041"/>
  <outline>
    <contour>
      <point x="181" y="111" type="line"/>
      <point x="211" y="255" type="line"/>
      <point x="563" y="255" type="line"/>
      <point x="543" y="111" type="line"/>
    </contour>
    <contour>
      <point x="410" y="410" type="line"/>
      <point x="289" y="202" type="line"/>
      <point x="294" y="157" type="line"/>
      <point x="189" y="0" type="line"/>
      <point x="-34" y="0" type="line"/>
      <point x="467" y="750" type="line"/>
      <point x="712" y="0" type="line"/>
      <point x="498" y="0" type="line"/>
      <point x="450" y="151" type="line"/>
      <point x="465" y="201" type="line"/>
    </contour>
  </outline>
</glyph>
<glyph name="B" format="1">
  <advance width="677"/>
  <unicode hex="0042"/>
  <outline>
    <contour>
      <point x="248" y="341.5" type="line"/>
      <point x="263" y="424" type="line"/>
      <point x="361" y="424" type="line" smooth="yes"/>
      <point x="408.5" y="424"/>
      <point x="448.5" y="447.5"/>
      <point x="456" y="490" type="curve" smooth="yes"/>
      <point x="463" y="530.5"/>
      <point x="435.5" y="550"/>
      <point x="391" y="550.5" type="curve" smooth="yes"/>
      <point x="330" y="550.5" type="line"/>
      <point x="259" y="149" type="line"/>
      <point x="332.5" y="149" type="line" smooth="yes"/>
      <point x="386" y="150"/>
      <point x="441.5" y="166.5"/>
      <point x="450" y="224.5" type="curve" smooth="yes"/>
      <point x="457.5" y="275.5"/>
      <point x="414.5" y="289.5"/>
      <point x="365.5" y="290.5" type="curve" smooth="yes"/>
      <point x="239" y="291" type="line"/>
      <point x="258.5" y="398" type="line"/>
      <point x="398" y="398" type="line" smooth="yes"/>
      <point x="525" y="398"/>
      <point x="664.5" y="336.5"/>
      <point x="644.5" y="193.5" type="curve" smooth="yes"/>
      <point x="624" y="52"/>
      <point x="497" y="0"/>
      <point x="341.5" y="0" type="curve" smooth="yes"/>
      <point x="41" y="0" type="line"/>
      <point x="161" y="700" type="line"/>
      <point x="431.5" y="700" type="line" smooth="yes"/>
      <point x="559" y="700"/>
      <point x="681" y="645"/>
      <point x="662" y="520.5" type="curve" smooth="yes"/>
      <point x="643.5" y="398.5"/>
      <point x="516.5" y="341.5"/>
      <point x="381.5" y="341.5" type="curve" smooth="yes"/>
    </contour>
  </outline>
</glyph>
<glyph name="C" format="1">
  <advance width="684"/>
  <unicode hex="0043"/>
  <outline>
    <contour>
      <point x="274" y="350" type="curve" smooth="yes"/>
      <point x="256.5" y="245.5"/>
      <point x="320" y="170"/>
      <point x="424.5" y="168.5" type="curve" smooth="yes"/>
      <point x="516" y="167.5"/>
      <point x="584" y="211.5"/>
      <point x="640.5" y="256" type="curve"/>
      <point x="609.5" y="50" type="line"/>
      <point x="547.5" y="10"/>
      <point x="481" y="-18"/>
      <point x="390" y="-18" type="curve" smooth="yes"/>
      <point x="167.5" y="-18"/>
      <point x="31" y="141"/>
      <point x="62" y="350" type="curve" smooth="yes"/>
      <point x="94.5" y="565"/>
      <point x="277" y="718"/>
      <point x="504.5" y="718" type="curve" smooth="yes"/>
      <point x="592" y="718"/>
      <point x="652" y="692"/>
      <point x="708.5" y="649.5" type="curve"/>
      <point x="677" y="443" type="line"/>
      <point x="635.5" y="493.5"/>
      <point x="581" y="531.5"/>
      <point x="496.5" y="531.5" type="curve" smooth="yes"/>
      <point x="389.5" y="531"/>
      <point x="293" y="459"/>
    </contour>
  </outline>
</glyph>
<glyph name="D" format="2">
  <advance width="726"/>
  <unicode hex="0044"/>
  <outline>
    <contour>
      <point x="160" y="700" type="line"/>
      <point x="362" y="700" type="line"/>
      <point x="242" y="0" type="line"/>
      <point x="41" y="0" type="line"/>
    </contour>
    <contour>
      <point x="304" y="0" type="curve" smooth="yes"/>
      <point x="170" y="0" type="line"/>
      <point x="201" y="172" type="line"/>
      <point x="314" y="172" type="line" smooth="yes"/>
      <point x="417" y="172"/>
      <point x="510" y="224"/>
      <point x="530" y="350" type="curve" smooth="yes"/>
      <point x="549" y="471"/>
      <point x="485" y="528"/>
      <point x="385" y="528" type="curve" smooth="yes"/>
      <point x="260" y="528" type="line"/>
      <point x="290" y="700" type="line"/>
      <point x="412" y="700" type="line" smooth="yes"/>
      <point x="632" y="700"/>
      <point x="762" y="557"/>
      <point x="731" y="350" type="curve" smooth="yes"/>
      <point x="699" y="137"/>
      <point x="530" y="0"/>
    </contour>
  </outline>
</glyph>
<glyph name="E" format="1">
  <advance width="601"/>
  <unicode hex="0045"/>
  <outline>
    <contour>
      <point x="170.5" y="0" type="line"/>
      <point x="198.5" y="159" type="line"/>
      <point x="545" y="159" type="line"/>
      <point x="516.5" y="0" type="line"/>
    </contour>
    <contour>
      <point x="263" y="541" type="line"/>
      <point x="291" y="700" type="line"/>
      <point x="637" y="700" type="line"/>
      <point x="609" y="541" type="line"/>
    </contour>
    <contour>
      <point x="219" y="286.5" type="line"/>
      <point x="246.5" y="440.5" type="line"/>
      <point x="573.5" y="440.5" type="line"/>
      <point x="546" y="286.5" type="line"/>
    </contour>
    <contour>
      <point x="160.5" y="700" type="line"/>
      <point x="346.5" y="700" type="line"/>
      <point x="226.5" y="0" type="line"/>
      <point x="41" y="0" type="line"/>
    </contour>
  </outline>
</glyph>
<glyph name="F" format="1">
  <advance width="553"/>
  <unicode hex="0046"/>
  <outline>
    <contour>
      <point x="261.5" y="532.5" type="line"/>
      <point x="291" y="700" type="line"/>
      <point x="598" y="700" type="line"/>
      <point x="568.5" y="532.5" type="line"/>
    </contour>
    <contour>
      <point x="215" y="261" type="line"/>
      <point x="242.5" y="416" type="line"/>
      <point x="540" y="416" type="line"/>
      <point x="512.5" y="261" type="line"/>
    </contour>
    <contour>
      <point x="160.5" y="700" type="line"/>
      <point x="346.5" y="700" type="line"/>
      <point x="226.5" y="0" type="line"/>
      <point x="41" y="0" type="line"/>
    </contour>
  </outline>
</glyph>
<glyph name="G" format="1">
  <advance width="802"/>
  <unicode hex="0047"/>
  <outline>
    <contour>
      <point x="425.5" y="245.5" type="line"/>
      <point x="451.5" y="392" type="line"/>
      <point x="804.5" y="392" type="line"/>
      <point x="783.5" y="168.5"/>
      <point x="641" y="-26.5"/>
      <point x="390" y="-26.5" type="curve" smooth="yes"/>
      <point x="169" y="-26.5"/>
      <point x="31.5" y="140"/>
      <point x="62" y="350" type="curve" smooth="yes"/>
      <point x="95" y="567.5"/>
      <point x="285" y="718"/>
      <point x="509.5" y="718" type="curve" smooth="yes"/>
      <point x="648" y="718"/>
      <point x="741" y="648"/>
      <point x="801.5" y="545.5" type="curve"/>
      <point x="615" y="461.5" type="line"/>
      <point x="593" y="512"/>
      <point x="557.5" y="550"/>
      <point x="491.5" y="550" type="curve" smooth="yes"/>
      <point x="379.5" y="550"/>
      <point x="284" y="465.5"/>
      <point x="264.5" y="350" type="curve" smooth="yes"/>
      <point x="247" y="239.5"/>
      <point x="295" y="142"/>
      <point x="411.5" y="142" type="curve" smooth="yes"/>
      <point x="498.558" y="142"/>
      <point x="550.448" y="181.802"/>
      <point x="585.016" y="245.5" type="curve"/>
    </contour>
  </outline>
</glyph>
<glyph name="H" format="1">
  <advance width="785"/>
  <unicode hex="0048"/>
  <outline>
    <contour>
      <point x="133" y="278" type="line"/>
      <point x="164" y="453" type="line"/>
      <point x="697.5" y="453" type="line"/>
      <point x="667" y="278" type="line"/>
    </contour>
    <contour>
      <point x="616.5" y="700" type="line"/>
      <point x="811" y="700" type="line"/>
      <point x="690.5" y="0" type="line"/>
      <point x="497" y="0" type="line"/>
    </contour>
    <contour>
      <point x="160.5" y="700" type="line"/>
      <point x="355" y="700" type="line"/>
      <point x="234" y="0" type="line"/>
      <point x="41" y="0" type="line"/>
    </contour>
  </outline>
</glyph>
<glyph name="I" format="1">
  <advance width="333"/>
  <unicode hex="0049"/>
  <outline>
    <contour>
      <point x="160.5" y="700" type="line"/>
      <point x="358.5" y="700" type="line"/>
      <point x="238.5" y="0" type="line"/>
      <point x="41" y="0" type="line"/>
    </contour>
  </outline>
</glyph>
<glyph name="J" format="2">
  <advance width="347"/>
  <unicode hex="004A"/>
  <outline>
    <contour>
      <point x="-112" y="-51" type="line"/>
      <point x="-92" y="-67"/>
      <point x="-65" y="-84"/>
      <point x="-38" y="-83" type="curve" smooth="yes"/>
      <point x="-2" y="-82"/>
      <point x="32" y="-51"/>
      <point x="39" y="-4" type="curve" smooth="yes"/>
      <point x="161" y="700" type="line"/>
      <point x="374" y="700" type="line"/>
      <point x="246" y="-52" type="line" smooth="yes"/>
      <point x="224" y="-187"/>
      <point x="101" y="-245"/>
      <point x="-33" y="-245" type="curve" smooth="yes"/>
      <point x="-111" y="-245"/>
      <point x="-181" y="-218"/>
      <point x="-235" y="-185" type="curve"/>
    </contour>
  </outline>
</glyph>
<glyph name="K" format="2">
  <advance width="720"/>
  <unicode hex="004B"/>
  <outline>
    <contour>
      <point x="160" y="700" type="line"/>
      <point x="363" y="700" type="line"/>
      <point x="242" y="0" type="line"/>
      <point x="41" y="0" type="line"/>
    </contour>
    <contour>
      <point x="575" y="700" type="line"/>
      <point x="807" y="700" type="line"/>
      <point x="475" y="368" type="line"/>
      <point x="695" y="0" type="line"/>
      <point x="468" y="0" type="line"/>
      <point x="249" y="370" type="line"/>
    </contour>
  </outline>
</glyph>
<glyph name="L" format="1">
  <advance width="536"/>
  <unicode hex="004C"/>
  <outline>
    <contour>
      <point x="161" y="700" type="line"/>
      <point x="355" y="700" type="line"/>
      <point x="263.5" y="167.5" type="line"/>
      <point x="539" y="167.5" type="line"/>
      <point x="509.5" y="0" type="line"/>
      <point x="41" y="0" type="line"/>
    </contour>
  </outline>
</glyph>
<glyph name="M" format="2">
  <advance width="889"/>
  <unicode hex="004D"/>
  <outline>
    <contour>
      <point x="301" y="318" type="line"/>
      <point x="208" y="0" type="line"/>
      <point x="1" y="0" type="line"/>
      <point x="246" y="735" type="line"/>
      <point x="472" y="336" type="line"/>
      <point x="841" y="740" type="line"/>
      <point x="833" y="0" type="line"/>
      <point x="628" y="0" type="line"/>
      <point x="645" y="312" type="line"/>
      <point x="431" y="64" type="line"/>
    </contour>
  </outline>
</glyph>
<glyph name="N" format="2">
  <advance width="775"/>
  <unicode hex="004E"/>
  <outline>
    <contour>
      <point x="615" y="700" type="line"/>
      <point x="801" y="700" type="line"/>
      <point x="676" y="-33" type="line"/>
      <point x="288" y="354" type="line"/>
      <point x="226" y="0" type="line"/>
      <point x="41" y="0" type="line"/>
      <point x="166" y="733" type="line"/>
      <point x="554" y="346" type="line"/>
    </contour>
  </outline>
</glyph>
<glyph name="O" format="1">
  <advance width="806"/>
  <unicode hex="004F"/>
  <outline>
    <contour>
      <point x="266.5" y="350" type="curve" smooth="yes"/>
      <point x="251.5" y="252.5"/>
      <point x="291.5" y="162.5"/>
      <point x="398.5" y="161" type="curve" smooth="yes"/>
      <point x="506.5" y="159.5"/>
      <point x="587" y="246"/>
      <point x="605" y="350" type="curve" smooth="yes"/>
      <point x="620.5" y="448"/>
      <point x="583" y="538"/>
      <point x="473.5" y="539" type="curve" smooth="yes"/>
      <point x="365.5" y="540"/>
      <point x="284.5" y="454"/>
    </contour>
    <contour>
      <point x="62" y="350" type="curve" smooth="yes"/>
      <point x="94" y="561"/>
      <point x="277" y="718"/>
      <point x="493" y="718" type="curve" smooth="yes"/>
      <point x="707" y="718"/>
      <point x="840" y="555"/>
      <point x="810.5" y="350" type="curve" smooth="yes"/>
      <point x="778.5" y="138"/>
      <point x="598.5" y="-27"/>
      <point x="377" y="-26.5" type="curve" smooth="yes"/>
      <point x="159" y="-26"/>
      <point x="32.5" y="145"/>
    </contour>
  </outline>
</glyph>
<glyph name="P" format="1">
  <advance width="627"/>
  <unicode hex="0050"/>
  <outline>
    <contour>
      <point x="160.5" y="700" type="line"/>
      <point x="355" y="700" type="line"/>
      <point x="234" y="0" type="line"/>
      <point x="41" y="0" type="line"/>
    </contour>
    <contour>
      <point x="255.5" y="541.5" type="line"/>
      <point x="283" y="700" type="line"/>
      <point x="409" y="700" type="line" smooth="yes"/>
      <point x="576" y="698.5"/>
      <point x="665.5" y="613.5"/>
      <point x="651" y="465" type="curve" smooth="yes"/>
      <point x="636" y="314"/>
      <point x="512" y="231.5"/>
      <point x="340" y="230" type="curve" smooth="yes"/>
      <point x="201.5" y="230" type="line"/>
      <point x="230" y="389" type="line"/>
      <point x="356.5" y="389" type="line" smooth="yes"/>
      <point x="411.5" y="389.5"/>
      <point x="457" y="415.5"/>
      <point x="466" y="465.5" type="curve" smooth="yes"/>
      <point x="474" y="513"/>
      <point x="444" y="540.5"/>
      <point x="391.5" y="541" type="curve" smooth="yes"/>
    </contour>
  </outline>
</glyph>
<glyph name="Q" format="1">
  <advance width="860"/>
  <unicode hex="0051"/>
  <outline>
    <contour>
      <point x="266.5" y="350" type="curve" smooth="yes"/>
      <point x="249.5" y="240.5"/>
      <point x="305" y="145"/>
      <point x="416" y="144" type="curve" smooth="yes"/>
      <point x="523.5" y="143"/>
      <point x="606.5" y="221.5"/>
      <point x="625" y="325.5" type="curve" smooth="yes"/>
      <point x="642.5" y="427"/>
      <point x="600.5" y="537.5"/>
      <point x="477.5" y="539" type="curve" smooth="yes"/>
      <point x="369.5" y="540"/>
      <point x="284.5" y="454.5"/>
    </contour>
    <contour>
      <point x="62" y="350" type="curve" smooth="yes"/>
      <point x="94" y="561.5"/>
      <point x="281.5" y="718.5"/>
      <point x="497.5" y="718" type="curve" smooth="yes"/>
      <point x="711.5" y="717.5"/>
      <point x="839.5" y="554"/>
      <point x="810.5" y="350" type="curve" smooth="yes"/>
      <point x="778.5" y="138.5"/>
      <point x="603.5" y="-27"/>
      <point x="382" y="-26.5" type="curve" smooth="yes"/>
      <point x="164" y="-26"/>
      <point x="32.5" y="145"/>
    </contour>
    <contour>
      <point x="366.5" y="300" type="line"/>
      <point x="551" y="300" type="line"/>
      <point x="836.5" y="-16.5" type="line"/>
      <point x="643" y="-16.5" type="line"/>
    </contour>
  </outline>
</glyph>
<glyph name="R" format="2">
  <advance width="654"/>
  <unicode hex="0052"/>
  <outline>
    <contour>
      <point x="282" y="308" type="line"/>
      <point x="475" y="308" type="line"/>
      <point x="625" y="0" type="line"/>
      <point x="406" y="0" type="line"/>
    </contour>
    <contour>
      <point x="160" y="700" type="line"/>
      <point x="354" y="700" type="line"/>
      <point x="234" y="0" type="line"/>
      <point x="41" y="0" type="line"/>
    </contour>
    <contour>
      <point x="254" y="534" type="line"/>
      <point x="283" y="700" type="line"/>
      <point x="425" y="700" type="line" smooth="yes"/>
      <point x="591" y="700"/>
      <point x="685" y="607"/>
      <point x="667" y="465" type="curve" smooth="yes"/>
      <point x="649" y="321"/>
      <point x="526" y="231"/>
      <point x="355" y="231" type="curve" smooth="yes"/>
      <point x="202" y="231" type="line"/>
      <point x="228" y="380" type="line"/>
      <point x="355" y="380" type="line" smooth="yes"/>
      <point x="410" y="380"/>
      <point x="456" y="408"/>
      <point x="465" y="457" type="curve" smooth="yes"/>
      <point x="473" y="504"/>
      <point x="443" y="534"/>
      <point x="390" y="534" type="curve" smooth="yes"/>
    </contour>
  </outline>
</glyph>
<glyph name="S" format="1">
  <advance width="630"/>
  <unicode hex="0053"/>
  <outline>
    <contour>
      <point x="175" y="259" type="line"/>
      <point x="209.5" y="190.5"/>
      <point x="246" y="143"/>
      <point x="315.5" y="143.5" type="curve" smooth="yes"/>
      <point x="357" y="143.5"/>
      <point x="392.5" y="160.5"/>
      <point x="400" y="197" type="curve" smooth="yes"/>
      <point x="411" y="248"/>
      <point x="343.5" y="265.5"/>
      <point x="286.5" y="290" type="curve" smooth="yes"/>
      <point x="208" y="325.5"/>
      <point x="116" y="392.5"/>
      <point x="131" y="514.5" type="curve" smooth="yes"/>
      <point x="150.5" y="641.5"/>
      <point x="277" y="718.5"/>
      <point x="419" y="718" type="curve" smooth="yes"/>
      <point x="553" y="717.5"/>
      <point x="626.5" y="646.5"/>
      <point x="656.5" y="562" type="curve"/>
      <point x="503.5" y="481.5" type="line"/>
      <point x="480.5" y="525.5"/>
      <point x="452" y="554"/>
      <point x="405" y="554" type="curve" smooth="yes"/>
      <point x="369.5" y="554"/>
      <point x="333.5" y="536"/>
      <point x="327" y="507.5" type="curve" smooth="yes"/>
      <point x="316" y="461.5"/>
      <point x="406.5" y="440"/>
      <point x="462.5" y="418.5" type="curve" smooth="yes"/>
      <point x="560.5" y="380.5"/>
      <point x="618.5" y="305"/>
      <point x="604" y="197.5" type="curve" smooth="yes"/>
      <point x="583" y="52"/>
      <point x="454" y="-27"/>
      <point x="296.5" y="-26.5" type="curve" smooth="yes"/>
      <point x="170" y="-26"/>
      <point x="65.5" y="49"/>
      <point x="30" y="164" type="curve"/>
    </contour>
  </outline>
</glyph>
<glyph name="T" format="1">
  <advance width="575"/>
  <unicode hex="0054"/>
  <outline>
    <contour>
      <point x="62" y="524.5" type="line"/>
      <point x="93" y="700" type="line"/>
      <point x="668.5" y="700" type="line"/>
      <point x="637.5" y="524.5" type="line"/>
      <point x="447.5" y="524.5" type="line"/>
      <point x="357.5" y="0" type="line"/>
      <point x="163.5" y="0" type="line"/>
      <point x="253" y="524.5" type="line"/>
    </contour>
  </outline>
</glyph>
<glyph name="U" format="2">
  <advance width="702"/>
  <unicode hex="0055"/>
  <outline>
    <contour>
      <point x="156" y="700" type="line"/>
      <point x="349" y="700" type="line"/>
      <point x="270" y="247" type="line" smooth="yes"/>
      <point x="263" y="192"/>
      <point x="280" y="141"/>
      <point x="344" y="140" type="curve" smooth="yes"/>
      <point x="411" y="139"/>
      <point x="450" y="189"/>
      <point x="461" y="247" type="curve"/>
      <point x="540" y="700" type="line"/>
      <point x="733" y="700" type="line"/>
      <point x="653" y="230" type="line" smooth="yes"/>
      <point x="625" y="58"/>
      <point x="491" y="-35"/>
      <point x="324" y="-35" type="curve" smooth="yes"/>
      <point x="164" y="-35"/>
      <point x="53" y="59"/>
      <point x="76" y="230" type="curve"/>
    </contour>
  </outline>
</glyph>
<glyph name="V" format="1">
  <advance width="736"/>
  <unicode hex="0056"/>
  <outline>
    <contour>
      <point x="400.5" y="327" type="line"/>
      <point x="603.5" y="699.5" type="line"/>
      <point x="834" y="699.5" type="line"/>
      <point x="345.5" y="-49.5" type="line"/>
      <point x="88" y="700" type="line"/>
      <point x="311.5" y="700" type="line"/>
    </contour>
  </outline>
</glyph>
<glyph name="W" format="2">
  <advance width="1056"/>
  <unicode hex="0057"/>
  <outline>
    <contour>
      <point x="748" y="322" type="line"/>
      <point x="915" y="700" type="line"/>
      <point x="1149" y="700" type="line"/>
      <point x="730" y="-45" type="line"/>
      <point x="566" y="337" type="line"/>
      <point x="281" y="-46" type="line"/>
      <point x="93" y="700" type="line"/>
      <point x="321" y="700" type="line"/>
      <point x="371" y="325" type="line"/>
      <point x="624" y="738" type="line"/>
    </contour>
  </outline>
</glyph>
<glyph name="X" format="2">
  <advance width="705"/>
  <unicode hex="0058"/>
  <outline>
    <contour>
      <point x="541" y="700" type="line"/>
      <point x="785" y="700" type="line"/>
      <point x="511" y="352" type="line"/>
      <point x="686" y="0" type="line"/>
      <point x="452" y="0" type="line"/>
      <point x="373" y="210" type="line"/>
      <point x="225" y="0" type="line"/>
      <point x="-19" y="0" type="line"/>
      <point x="277" y="360" type="line"/>
      <point x="118" y="700" type="line"/>
      <point x="353" y="700" type="line"/>
      <point x="417" y="518" type="line"/>
    </contour>
  </outline>
</glyph>
<glyph name="Y" format="1">
  <advance width="671"/>
  <unicode hex="0059"/>
  <outline>
    <contour>
      <point x="543.5" y="699.5" type="line"/>
      <point x="772.5" y="699.5" type="line"/>
      <point x="454.5" y="274.04" type="line"/>
      <point x="408" y="0" type="line"/>
      <point x="210" y="0" type="line"/>
      <point x="260" y="283.04" type="line"/>
      <point x="90" y="700" type="line"/>
      <point x="309" y="700" type="line"/>
      <point x="385" y="460.5" type="line"/>
    </contour>
  </outline>
</glyph>
<glyph name="Z" format="1">
  <advance width="624"/>
  <unicode hex="005A"/>
  <outline>
    <contour>
      <point x="122.5" y="524.5" type="line"/>
      <point x="153.5" y="700" type="line"/>
      <point x="710" y="699.5" type="line"/>
      <point x="310" y="168" type="line"/>
      <point x="578" y="167.5" type="line"/>
      <point x="548" y="0" type="line"/>
      <point x="-25.5" y="0" type="line"/>
      <point x="368.5" y="524" type="line"/>
    </contour>
  </outline>
</glyph>
<glyph name="bracketleft" format="1">
  <advance width="371"/>
  <unicode hex="005B"/>
  <outline>
    <contour>
      <point x="335.5" y="630.5" type="line"/>
      <point x="228" y="-70.5" type="line"/>
      <point x="326" y="-70.5" type="line"/>
      <point x="302" y="-220" type="line"/>
      <point x="32" y="-220" type="line"/>
      <point x="186.5" y="780" type="line"/>
      <point x="456.5" y="780" type="line"/>
      <point x="433" y="630.5" type="line"/>
    </contour>
  </outline>
</glyph>
<glyph name="backslash" format="1">
  <advance width="539"/>
  <unicode hex="005C"/>
  <outline>
    <contour>
      <point x="107.5" y="700" type="line"/>
      <point x="269" y="700" type="line"/>
      <point x="497" y="0" type="line"/>
      <point x="336.5" y="0" type="line"/>
    </contour>
  </outline>
</glyph>
<glyph name="bracketright" format="1">
  <advance width="371"/>
  <unicode hex="005D"/>
  <outline>
    <contour>
      <point x="88.5" y="-70.5" type="line"/>
      <point x="195.5" y="630.5" type="line"/>
      <point x="97.5" y="630.5" type="line"/>
      <point x="121" y="780" type="line"/>
      <point x="391.5" y="780" type="line"/>
      <point x="237" y="-220" type="line"/>
      <point x="-33.5" y="-220" type="line"/>
      <point x="-9.5" y="-70.5" type="line"/>
    </contour>
  </outline>
</glyph>
<glyph name="asciicircum" format="1">
  <advance width="494"/>
  <unicode hex="005E"/>
  <outline>
    <contour>
      <point x="319.5" y="564" type="line"/>
      <point x="233" y="444" type="line"/>
      <point x="74.5" y="444" type="line"/>
      <point x="286" y="709.5" type="line"/>
      <point x="391.5" y="710" type="line"/>
      <point x="511.5" y="443.5" type="line"/>
      <point x="363.5" y="443.5" type="line"/>
    </contour>
  </outline>
</glyph>
<glyph name="underscore" format="1">
  <advance width="524"/>
  <unicode hex="005F"/>
  <outline>
    <contour>
      <point x="-56.5" y="-160.5" type="line"/>
      <point x="-37" y="-51" type="line"/>
      <point x="491" y="-51" type="line"/>
      <point x="471.5" y="-160.5" type="line"/>
    </contour>
  </outline>
</glyph>
<glyph name="grave" format="1">
  <advance width="363"/>
  <unicode hex="0060"/>
  <outline>
    <contour>
      <point x="128" y="654.5" type="line"/>
      <point x="258.5" y="708.5" type="line"/>
      <point x="382" y="545.5" type="line"/>
      <point x="283" y="502" type="line"/>
    </contour>
  </outline>
</glyph>
<glyph name="b" format="1">
  <advance width="612"/>
  <unicode hex="0062"/>
  <outline>
    <contour>
      <point x="330.5" y="780" type="line"/>
      <point x="196.5" y="0" type="line"/>
      <point x="23" y="0" type="line"/>
      <point x="156.5" y="780" type="line"/>
    </contour>
    <contour>
      <point x="597" y="229.5" type="curve" smooth="yes"/>
      <point x="579" y="91.5"/>
      <point x="471" y="-10"/>
      <point x="351" y="-10" type="curve" smooth="yes"/>
      <point x="227.5" y="-10"/>
      <point x="175" y="105"/>
      <point x="190.5" y="230.5" type="curve" smooth="yes"/>
      <point x="208" y="362.5"/>
      <point x="299.5" y="469.5"/>
      <point x="422" y="469.5" type="curve" smooth="yes"/>
      <point x="542" y="469.5"/>
      <point x="613.5" y="362.5"/>
    </contour>
    <contour>
      <point x="417" y="230.5" type="curve" smooth="yes"/>
      <point x="424.5" y="281.5"/>
      <point x="398" y="331"/>
      <point x="346" y="332.5" type="curve" smooth="yes"/>
      <point x="295.5" y="334"/>
      <point x="245" y="286"/>
      <point x="236" y="229.5" type="curve" smooth="yes"/>
      <point x="228.5" y="177"/>
      <point x="254.5" y="129"/>
      <point x="303.5" y="127.5" type="curve" smooth="yes"/>
      <point x="357" y="126"/>
      <point x="408" y="176"/>
    </contour>
  </outline>
</glyph>
<glyph name="c" format="1">
  <advance width="483"/>
  <unicode hex="0063"/>
  <outline>
    <contour>
      <point x="222.5" y="229.5" type="curve" smooth="yes"/>
      <point x="213.5" y="169.5"/>
      <point x="251.5" y="128"/>
      <point x="310.5" y="126.5" type="curve" smooth="yes"/>
      <point x="362.5" y="125"/>
      <point x="410.5" y="151"/>
      <point x="446" y="188" type="curve"/>
      <point x="425" y="25.5" type="line"/>
      <point x="386.5" y="4"/>
      <point x="343.5" y="-10"/>
      <point x="282.5" y="-10" type="curve" smooth="yes"/>
      <point x="134" y="-10"/>
      <point x="27.5" y="87"/>
      <point x="46" y="230.5" type="curve" smooth="yes"/>
      <point x="65.5" y="376"/>
      <point x="194" y="470"/>
      <point x="346.5" y="470" type="curve" smooth="yes"/>
      <point x="406.5" y="470"/>
      <point x="448" y="455.5"/>
      <point x="485" y="436" type="curve"/>
      <point x="463" y="272" type="line"/>
      <point x="436.5" y="312"/>
      <point x="394.5" y="334.5"/>
      <point x="350.5" y="334.5" type="curve" smooth="yes"/>
      <point x="285.5" y="334.5"/>
      <point x="232.5" y="287.5"/>
    </contour>
  </outline>
</glyph>
<glyph name="d" format="1">
  <advance width="612"/>
  <unicode hex="0064"/>
  <outline>
    <contour>
      <point x="496.5" y="780" type="line"/>
      <point x="670" y="780" type="line"/>
      <point x="536" y="0" type="line"/>
      <point x="363" y="0" type="line"/>
    </contour>
    <contour>
      <point x="40.5" y="230.5" type="curve" smooth="yes"/>
      <point x="58.5" y="368.5"/>
      <point x="166.5" y="470"/>
      <point x="286.5" y="470" type="curve" smooth="yes"/>
      <point x="410" y="470"/>
      <point x="462.5" y="355"/>
      <point x="447" y="229.5" type="curve" smooth="yes"/>
      <point x="429.5" y="97.5"/>
      <point x="338" y="-9.5"/>
      <point x="215.5" y="-9.5" type="curve" smooth="yes"/>
      <point x="95.5" y="-9.5"/>
      <point x="24" y="97.5"/>
    </contour>
    <contour>
      <point x="221.5" y="229.5" type="curve" smooth="yes"/>
      <point x="214" y="178.5"/>
      <point x="240" y="129"/>
      <point x="292" y="127.5" type="curve" smooth="yes"/>
      <point x="342.5" y="126"/>
      <point x="393" y="174"/>
      <point x="402" y="230.5" type="curve" smooth="yes"/>
      <point x="409.5" y="283"/>
      <point x="384" y="331"/>
      <point x="335" y="332.5" type="curve" smooth="yes"/>
      <point x="281.5" y="334"/>
      <point x="230.5" y="284"/>
    </contour>
  </outline>
</glyph>
<glyph name="e" format="1">
  <advance width="572"/>
  <unicode hex="0065"/>
  <outline>
    <contour>
      <point x="141.5" y="194" type="line"/>
      <point x="154.5" y="284" type="line"/>
      <point x="392" y="284" type="line"/>
      <point x="389.5" y="323.5"/>
      <point x="373" y="355.5"/>
      <point x="328.5" y="355.5" type="curve" smooth="yes"/>
      <point x="269.5" y="355.5"/>
      <point x="233" y="308"/>
      <point x="222.5" y="251.5" type="curve"/>
      <point x="217" y="229.5" type="line"/>
      <point x="209" y="164.5"/>
      <point x="231.5" y="115.5"/>
      <point x="289" y="112.5" type="curve" smooth="yes"/>
      <point x="333.5" y="110.5"/>
      <point x="368.5" y="132.5"/>
      <point x="392" y="162" type="curve"/>
      <point x="544" y="127.5" type="line"/>
      <point x="488.5" y="45.5"/>
      <point x="405.5" y="-10"/>
      <point x="284.5" y="-10" type="curve" smooth="yes"/>
      <point x="128" y="-10"/>
      <point x="30" y="89"/>
      <point x="48.5" y="230" type="curve" smooth="yes"/>
      <point x="50.5" y="247"/>
      <point x="54" y="263.5"/>
      <point x="59" y="279.5" type="curve" smooth="yes"/>
      <point x="95" y="395.5"/>
      <point x="202" y="470"/>
      <point x="341.5" y="470" type="curve" smooth="yes"/>
      <point x="489.5" y="470"/>
      <point x="576.5" y="379"/>
      <point x="560" y="238" type="curve" smooth="yes"/>
      <point x="558" y="226.5"/>
      <point x="556" y="210.5"/>
      <point x="552.5" y="194" type="curve"/>
    </contour>
  </outline>
</glyph>
<glyph name="f" format="1">
  <advance width="351"/>
  <unicode hex="0066"/>
  <outline>
    <contour>
      <point x="61" y="460" type="line"/>
      <point x="395.5" y="460" type="line"/>
      <point x="370.5" y="318.5" type="line"/>
      <point x="36" y="318.5" type="line"/>
    </contour>
    <contour>
      <point x="406" y="619" type="line"/>
      <point x="395" y="632.5"/>
      <point x="383" y="643.5"/>
      <point x="366" y="644" type="curve" smooth="yes"/>
      <point x="335" y="644.5"/>
      <point x="312.5" y="616.5"/>
      <point x="307.5" y="582.5" type="curve" smooth="yes"/>
      <point x="206.5" y="0" type="line"/>
      <point x="41.5" y="0" type="line"/>
      <point x="148.5" y="630.5" type="line" smooth="yes"/>
      <point x="166.5" y="729"/>
      <point x="240" y="798"/>
      <point x="355.5" y="797.5" type="curve" smooth="yes"/>
      <point x="419.5" y="797.5"/>
      <point x="458" y="769.5"/>
      <point x="488.5" y="742.5" type="curve"/>
    </contour>
  </outline>
</glyph>
<glyph name="g" format="2">
  <advance width="604"/>
  <unicode hex="0067"/>
  <outline>
    <contour>
      <point x="4" y="-34" type="curve"/>
      <point x="167" y="-35" type="line"/>
      <point x="171" y="-82"/>
      <point x="193" y="-104"/>
      <point x="241" y="-105" type="curve" smooth="yes"/>
      <point x="306" y="-106"/>
      <point x="354" y="-56"/>
      <point x="364" y="10" type="curve" smooth="yes"/>
      <point x="441" y="460" type="line"/>
      <point x="607" y="460" type="line"/>
      <point x="530" y="10" type="line" smooth="yes"/>
      <point x="504" y="-153"/>
      <point x="391" y="-242"/>
      <point x="237" y="-242" type="curve" smooth="yes"/>
      <point x="77" y="-242"/>
      <point x="6" y="-163"/>
    </contour>
    <contour>
      <point x="42" y="239" type="curve" smooth="yes"/>
      <point x="60" y="377"/>
      <point x="168" y="470"/>
      <point x="287" y="470" type="curve" smooth="yes"/>
      <point x="410" y="470"/>
      <point x="464" y="365"/>
      <point x="448" y="238" type="curve" smooth="yes"/>
      <point x="431" y="107"/>
      <point x="341" y="7"/>
      <point x="219" y="7" type="curve" smooth="yes"/>
      <point x="100" y="7"/>
      <point x="26" y="106"/>
    </contour>
    <contour>
      <point x="222" y="238" type="curve" smooth="yes"/>
      <point x="214" y="186"/>
      <point x="243" y="146"/>
      <point x="294" y="144" type="curve" smooth="yes"/>
      <point x="343" y="142"/>
      <point x="396" y="183"/>
      <point x="404" y="239" type="curve" smooth="yes"/>
      <point x="412" y="292"/>
      <point x="382" y="333"/>
      <point x="334" y="333" type="curve" smooth="yes"/>
      <point x="277" y="333"/>
      <point x="230" y="292"/>
    </contour>
  </outline>
</glyph>
<glyph name="h" format="1">
  <advance width="564"/>
  <unicode hex="0068"/>
  <outline>
    <contour>
      <point x="331" y="780" type="line"/>
      <point x="197" y="0" type="line"/>
      <point x="24" y="0" type="line"/>
      <point x="157.5" y="780" type="line"/>
    </contour>
    <contour>
      <point x="364.5" y="280" type="line" smooth="yes"/>
      <point x="369" y="316.5"/>
      <point x="366.5" y="350"/>
      <point x="325.5" y="353.5" type="curve" smooth="yes"/>
      <point x="284" y="357"/>
      <point x="254" y="319"/>
      <point x="245" y="280" type="curve"/>
      <point x="217.5" y="281" type="line"/>
      <point x="235.5" y="383.5"/>
      <point x="292" y="478"/>
      <point x="409.5" y="479" type="curve" smooth="yes"/>
      <point x="523.5" y="480"/>
      <point x="554" y="406"/>
      <point x="539.5" y="306.5" type="curve"/>
      <point x="487.5" y="0" type="line"/>
      <point x="314.5" y="0" type="line"/>
    </contour>
  </outline>
</glyph>
<glyph name="i" format="1">
  <advance width="273"/>
  <unicode hex="0069"/>
  <outline>
    <contour>
      <point x="117.5" y="626" type="curve" smooth="yes"/>
      <point x="117.5" y="680.5"/>
      <point x="162" y="717"/>
      <point x="216.5" y="717" type="curve" smooth="yes"/>
      <point x="271" y="717"/>
      <point x="315" y="680.5"/>
      <point x="315" y="626" type="curve" smooth="yes"/>
      <point x="315" y="571.5"/>
      <point x="271" y="535.5"/>
      <point x="216.5" y="535.5" type="curve" smooth="yes"/>
      <point x="162" y="535.5"/>
      <point x="117.5" y="571.5"/>
    </contour>
    <contour>
      <point x="104" y="460" type="line"/>
      <point x="271.5" y="460" type="line"/>
      <point x="192.5" y="0" type="line"/>
      <point x="25.5" y="0" type="line"/>
    </contour>
  </outline>
</glyph>
<glyph name="j" format="2">
  <advance width="269"/>
  <unicode hex="006A"/>
  <outline>
    <contour>
      <point x="116" y="627" type="curve" smooth="yes"/>
      <point x="116" y="681"/>
      <point x="160" y="717"/>
      <point x="215" y="717" type="curve" smooth="yes"/>
      <point x="270" y="717"/>
      <point x="314" y="681"/>
      <point x="314" y="627" type="curve" smooth="yes"/>
      <point x="314" y="573"/>
      <point x="270" y="536"/>
      <point x="215" y="536" type="curve" smooth="yes"/>
      <point x="160" y="536"/>
      <point x="116" y="573"/>
    </contour>
    <contour>
      <point x="-80" y="-66" type="line"/>
      <point x="-69" y="-80"/>
      <point x="-54" y="-91"/>
      <point x="-36" y="-91" type="curve" smooth="yes"/>
      <point x="-5" y="-91"/>
      <point x="15" y="-62"/>
      <point x="19" y="-29" type="curve" smooth="yes"/>
      <point x="104" y="460" type="line"/>
      <point x="269" y="460" type="line"/>
      <point x="178" y="-77" type="line" smooth="yes"/>
      <point x="160" y="-176"/>
      <point x="88" y="-245"/>
      <point x="-28" y="-244" type="curve" smooth="yes"/>
      <point x="-92" y="-244"/>
      <point x="-132" y="-216"/>
      <point x="-162" y="-189" type="curve"/>
    </contour>
  </outline>
</glyph>
<glyph name="k" format="2">
  <advance width="602"/>
  <unicode hex="006B"/>
  <outline>
    <contour>
      <point x="156" y="780" type="line"/>
      <point x="322" y="780" type="line"/>
      <point x="188" y="0" type="line"/>
      <point x="23" y="0" type="line"/>
    </contour>
    <contour>
      <point x="422" y="460" type="line"/>
      <point x="632" y="460" type="line"/>
      <point x="403" y="266" type="line"/>
      <point x="565" y="0" type="line"/>
      <point x="373" y="0" type="line"/>
      <point x="205" y="275" type="line"/>
    </contour>
  </outline>
</glyph>
<glyph name="l" format="1">
  <advance width="274"/>
  <unicode hex="006C"/>
  <outline>
    <contour>
      <point x="157.5" y="780" type="line"/>
      <point x="331" y="780" type="line"/>
      <point x="196.5" y="0" type="line"/>
      <point x="24" y="0" type="line"/>
    </contour>
  </outline>
</glyph>
<glyph name="m" format="1">
  <advance width="808"/>
  <unicode hex="006D"/>
  <outline>
    <contour>
      <point x="337" y="280.5" type="line" smooth="yes"/>
      <point x="340" y="315"/>
      <point x="339.5" y="350"/>
      <point x="305" y="353.5" type="curve" smooth="yes"/>
      <point x="270" y="357.5"/>
      <point x="243.5" y="317.5"/>
      <point x="236.5" y="280.5" type="curve"/>
      <point x="208.5" y="273" type="line"/>
      <point x="226" y="374.5"/>
      <point x="282.5" y="469.5"/>
      <point x="394.5" y="470.5" type="curve" smooth="yes"/>
      <point x="502.5" y="471.5"/>
      <point x="523.5" y="403"/>
      <point x="511.5" y="306.5" type="curve" smooth="yes"/>
      <point x="459.5" y="0" type="line"/>
      <point x="286.5" y="0" type="line"/>
    </contour>
    <contour>
      <point x="268" y="460" type="line"/>
      <point x="189" y="0" type="line"/>
      <point x="24" y="0" type="line"/>
      <point x="103" y="460" type="line"/>
    </contour>
    <contour>
      <point x="781" y="298" type="curve" smooth="yes"/>
      <point x="731" y="0" type="line"/>
      <point x="557.5" y="0" type="line"/>
      <point x="608" y="280" type="line" smooth="yes"/>
      <point x="611.5" y="314.5"/>
      <point x="610" y="350"/>
      <point x="575.5" y="353.5" type="curve" smooth="yes"/>
      <point x="540.5" y="357.5"/>
      <point x="514" y="317.5"/>
      <point x="507" y="280.5" type="curve"/>
      <point x="453" y="273" type="line"/>
      <point x="473" y="376.5"/>
      <point x="551" y="470"/>
      <point x="665" y="470.5" type="curve" smooth="yes"/>
      <point x="774.5" y="471"/>
      <point x="793.5" y="394.5"/>
    </contour>
  </outline>
</glyph>
<glyph name="n" format="1">
  <advance width="573"/>
  <unicode hex="006E"/>
  <outline>
    <contour>
      <point x="276" y="460" type="line"/>
      <point x="197" y="0" type="line"/>
      <point x="24" y="0" type="line"/>
      <point x="103" y="460" type="line"/>
    </contour>
    <contour>
      <point x="364.5" y="280" type="line" smooth="yes"/>
      <point x="369" y="316.5"/>
      <point x="366" y="350"/>
      <point x="325" y="353.5" type="curve" smooth="yes"/>
      <point x="283.5" y="357"/>
      <point x="254" y="319.5"/>
      <point x="245" y="280.5" type="curve"/>
      <point x="216.5" y="273" type="line"/>
      <point x="234" y="375.5"/>
      <point x="290.5" y="469.5"/>
      <point x="408" y="470.5" type="curve" smooth="yes"/>
      <point x="522" y="471.5"/>
      <point x="561" y="398"/>
      <point x="546" y="298" type="curve"/>
      <point x="495.5" y="0" type="line"/>
      <point x="314.5" y="0" type="line"/>
    </contour>
  </outline>
</glyph>
<glyph name="o" format="1">
  <advance width="585"/>
  <unicode hex="006F"/>
  <outline>
    <contour>
      <point x="47" y="230.5" type="curve" smooth="yes"/>
      <point x="66" y="374.5"/>
      <point x="194.5" y="470.5"/>
      <point x="343.5" y="470.5" type="curve" smooth="yes"/>
      <point x="489.5" y="470.5"/>
      <point x="594.5" y="371.5"/>
      <point x="576" y="229.5" type="curve" smooth="yes"/>
      <point x="557" y="85.5"/>
      <point x="429" y="-10"/>
      <point x="280" y="-10" type="curve" smooth="yes"/>
      <point x="134.5" y="-10"/>
      <point x="28.5" y="88.5"/>
    </contour>
    <contour>
      <point x="224" y="229.5" type="curve" smooth="yes"/>
      <point x="217" y="177.5"/>
      <point x="242" y="133.5"/>
      <point x="292.5" y="132" type="curve" smooth="yes"/>
      <point x="344" y="130.5"/>
      <point x="391.5" y="175"/>
      <point x="399.5" y="230.5" type="curve" smooth="yes"/>
      <point x="406.5" y="282.5"/>
      <point x="381" y="327.5"/>
      <point x="330.5" y="329" type="curve" smooth="yes"/>
      <point x="279" y="330.5"/>
      <point x="232" y="285"/>
    </contour>
  </outline>
</glyph>
<glyph name="p" format="1">
  <advance width="612"/>
  <unicode hex="0070"/>
  <outline>
    <contour>
      <point x="159" y="-220" type="line"/>
      <point x="-14.5" y="-220" type="line"/>
      <point x="102" y="460" type="line"/>
      <point x="275" y="460" type="line"/>
    </contour>
    <contour>
      <point x="597" y="229.5" type="curve" smooth="yes"/>
      <point x="579" y="87"/>
      <point x="471" y="-18.5"/>
      <point x="349.5" y="-18" type="curve" smooth="yes"/>
      <point x="218.5" y="-17.5"/>
      <point x="184" y="105"/>
      <point x="199.5" y="230" type="curve" smooth="yes"/>
      <point x="217" y="362"/>
      <point x="295" y="477"/>
      <point x="423.5" y="477.5" type="curve" smooth="yes"/>
      <point x="546" y="478"/>
      <point x="613.5" y="366.5"/>
    </contour>
    <contour>
      <point x="417" y="231" type="curve" smooth="yes"/>
      <point x="424.5" y="283.5"/>
      <point x="396" y="322.5"/>
      <point x="345" y="324" type="curve" smooth="yes"/>
      <point x="296" y="325.5"/>
      <point x="244" y="285"/>
      <point x="236" y="229" type="curve" smooth="yes"/>
      <point x="228.5" y="175"/>
      <point x="257.5" y="138"/>
      <point x="305" y="136" type="curve" smooth="yes"/>
      <point x="357.5" y="134"/>
      <point x="409" y="176.5"/>
    </contour>
  </outline>
</glyph>
<glyph name="q" format="1">
  <advance width="612"/>
  <unicode hex="0071"/>
  <outline>
    <contour>
      <point x="325" y="-220" type="line"/>
      <point x="441.5" y="460" type="line"/>
      <point x="615.5" y="460" type="line"/>
      <point x="498.5" y="-220" type="line"/>
    </contour>
    <contour>
      <point x="40.5" y="230.5" type="curve" smooth="yes"/>
      <point x="58.5" y="373"/>
      <point x="166" y="478.5"/>
      <point x="287.5" y="478" type="curve" smooth="yes"/>
      <point x="418.5" y="477.5"/>
      <point x="454.5" y="355"/>
      <point x="439" y="230" type="curve" smooth="yes"/>
      <point x="421.5" y="98"/>
      <point x="342.5" y="-17"/>
      <point x="214" y="-17.5" type="curve" smooth="yes"/>
      <point x="91.5" y="-18"/>
      <point x="24" y="93.5"/>
    </contour>
    <contour>
      <point x="221.5" y="229" type="curve" smooth="yes"/>
      <point x="214" y="176.5"/>
      <point x="242.5" y="137.5"/>
      <point x="293.5" y="136" type="curve" smooth="yes"/>
      <point x="342.5" y="134.5"/>
      <point x="394" y="175"/>
      <point x="402" y="231" type="curve" smooth="yes"/>
      <point x="409.5" y="285"/>
      <point x="381" y="322"/>
      <point x="333.5" y="324" type="curve" smooth="yes"/>
      <point x="281" y="326"/>
      <point x="229.5" y="283.5"/>
    </contour>
  </outline>
</glyph>
<glyph name="r" format="1">
  <advance width="425"/>
  <unicode hex="0072"/>
  <outline>
    <contour>
      <point x="272" y="460" type="line"/>
      <point x="192.5" y="0" type="line"/>
      <point x="24" y="0" type="line"/>
      <point x="103" y="460" type="line"/>
    </contour>
    <contour>
      <point x="375" y="281" type="line"/>
      <point x="362" y="295.5"/>
      <point x="346.5" y="307.5"/>
      <point x="323.5" y="308" type="curve" smooth="yes"/>
      <point x="276.5" y="309"/>
      <point x="235.5" y="262"/>
      <point x="228.5" y="209.5" type="curve"/>
      <point x="211.5" y="281" type="line"/>
      <point x="228.5" y="376.5"/>
      <point x="311" y="472"/>
      <point x="390.5" y="472" type="curve" smooth="yes"/>
      <point x="424" y="472"/>
      <point x="451.5" y="452.5"/>
      <point x="468.5" y="429.5" type="curve"/>
    </contour>
  </outline>
</glyph>
<glyph name="s" format="1">
  <advance width="457"/>
  <unicode hex="0073"/>
  <outline>
    <contour>
      <point x="84.5" y="178.5" type="line"/>
      <point x="142.75" y="132.25"/>
      <point x="192" y="100.5"/>
      <point x="231.75" y="103.5" type="curve" smooth="yes"/>
      <point x="251.25" y="104.5"/>
      <point x="270.5" y="116.25"/>
      <point x="272.5" y="132.5" type="curve" smooth="yes"/>
      <point x="276.5" y="164"/>
      <point x="228.25" y="175"/>
      <point x="191.5" y="189" type="curve" smooth="yes"/>
      <point x="127" y="213.75"/>
      <point x="74.75" y="257.5"/>
      <point x="84.25" y="337" type="curve" smooth="yes"/>
      <point x="96.25" y="421"/>
      <point x="179" y="469"/>
      <point x="275.25" y="469.5" type="curve" smooth="yes"/>
      <point x="350.75" y="470"/>
      <point x="415.25" y="442.5"/>
      <point x="471.75" y="407.25" type="curve"/>
      <point x="406.5" y="293.75" type="line"/>
      <point x="369.5" y="327"/>
      <point x="326.25" y="354"/>
      <point x="285.25" y="354" type="curve" smooth="yes"/>
      <point x="262.25" y="354"/>
      <point x="242.75" y="344.5"/>
      <point x="239.75" y="329.75" type="curve" smooth="yes"/>
      <point x="233.25" y="297.25"/>
      <point x="295" y="287"/>
      <point x="335.25" y="271.25" type="curve" smooth="yes"/>
      <point x="397.75" y="246.5"/>
      <point x="449.25" y="206.75"/>
      <point x="441.25" y="129" type="curve" smooth="yes"/>
      <point x="429.25" y="29.5"/>
      <point x="353" y="-21"/>
      <point x="247.25" y="-22" type="curve" smooth="yes"/>
      <point x="153.5" y="-23"/>
      <point x="75" y="12.5"/>
      <point x="7.5" y="61.75" type="curve"/>
    </contour>
  </outline>
</glyph>
<glyph name="t" format="1">
  <advance width="332"/>
  <unicode hex="0074"/>
  <outline>
    <contour>
      <point x="55.5" y="460" type="line"/>
      <point x="382" y="460" type="line"/>
      <point x="356.5" y="318.5" type="line"/>
      <point x="30" y="318.5" type="line"/>
    </contour>
    <contour>
      <point x="163" y="620" type="line"/>
      <point x="328.5" y="620" type="line"/>
      <point x="222" y="0" type="line"/>
      <point x="56.5" y="0" type="line"/>
    </contour>
  </outline>
</glyph>
<glyph name="u" format="1">
  <advance width="573"/>
  <unicode hex="0075"/>
  <outline>
    <contour>
      <point x="322" y="0" type="line"/>
      <point x="401.5" y="460" type="line"/>
      <point x="575" y="460" type="line"/>
      <point x="495.5" y="0" type="line"/>
    </contour>
    <contour>
      <point x="234" y="180" type="line"/>
      <point x="230.5" y="143"/>
      <point x="232" y="110"/>
      <point x="273" y="106.5" type="curve" smooth="yes"/>
      <point x="314.5" y="103"/>
      <point x="344.5" y="140.5"/>
      <point x="353.5" y="179.5" type="curve"/>
      <point x="381.5" y="187" type="line"/>
      <point x="364" y="84.5"/>
      <point x="307.5" y="-9.5"/>
      <point x="190" y="-10.5" type="curve" smooth="yes"/>
      <point x="76" y="-11.5"/>
      <point x="39.5" y="61"/>
      <point x="52.5" y="162" type="curve"/>
      <point x="103" y="460" type="line"/>
      <point x="284" y="460" type="line"/>
    </contour>
  </outline>
</glyph>
<glyph name="v" format="2">
  <advance width="537"/>
  <unicode hex="0076"/>
  <outline>
    <contour>
      <point x="50" y="460" type="line"/>
      <point x="231" y="460" type="line"/>
      <point x="287" y="231" type="line"/>
      <point x="416" y="460" type="line"/>
      <point x="600" y="460" type="line"/>
      <point x="244" y="-62" type="line"/>
    </contour>
  </outline>
</glyph>
<glyph name="w" format="1">
  <advance width="763"/>
  <unicode hex="0077"/>
  <outline>
    <contour>
      <point x="41.5" y="460" type="line"/>
      <point x="215.5" y="460" type="line"/>
      <point x="264.428" y="249.34" type="line"/>
      <point x="437.5" y="497.5" type="line"/>
      <point x="525.989" y="247.639" type="line"/>
      <point x="648.5" y="459.5" type="line"/>
      <point x="831" y="459.5" type="line"/>
      <point x="503.5" y="-28.5" type="line"/>
      <point x="395.581" y="224.351" type="line"/>
      <point x="200.5" y="-28.5" type="line"/>
    </contour>
  </outline>
</glyph>
<glyph name="x" format="2">
  <advance width="550"/>
  <unicode hex="0078"/>
  <outline>
    <contour>
      <point x="405" y="460" type="line"/>
      <point x="600" y="460" type="line"/>
      <point x="384" y="232" type="line"/>
      <point x="533" y="0" type="line"/>
      <point x="349" y="0" type="line"/>
      <point x="279" y="123" type="line"/>
      <point x="181" y="0" type="line"/>
      <point x="-22" y="0" type="line"/>
      <point x="206" y="245" type="line"/>
      <point x="65" y="460" type="line"/>
      <point x="257" y="460" type="line"/>
      <point x="314" y="353" type="line"/>
    </contour>
  </outline>
</glyph>
<glyph name="y" format="1">
  <advance width="530"/>
  <unicode hex="0079"/>
  <outline>
    <contour>
      <point x="599" y="459.5" type="line"/>
      <point x="191" y="-219.5" type="line"/>
      <point x="16" y="-219.5" type="line"/>
      <point x="167" y="32.5" type="line"/>
      <point x="40.5" y="460" type="line"/>
      <point x="222.5" y="460" type="line"/>
      <point x="304.5" y="87.5" type="line"/>
      <point x="211.5" y="88.5" type="line"/>
      <point x="420" y="459.5" type="line"/>
    </contour>
  </outline>
</glyph>
<glyph name="z" format="1">
  <advance width="526"/>
  <unicode hex="007A"/>
  <outline>
    <contour>
      <point x="254.5" y="302.5" type="line"/>
      <point x="82.5" y="302.5" type="line"/>
      <point x="110" y="459.5" type="line"/>
      <point x="568" y="459.5" type="line"/>
      <point x="311.5" y="157.5" type="line"/>
      <point x="479" y="157.5" type="line"/>
      <point x="451" y="0" type="line"/>
      <point x="-17" y="0" type="line"/>
    </contour>
  </outline>
</glyph>
<glyph name="braceleft" format="1">
  <advance width="413"/>
  <unicode hex="007B"/>
  <outline>
    <contour>
      <point x="362" y="593.5" type="curve" smooth="yes"/>
      <point x="346" y="489.5" type="line" smooth="yes"/>
      <point x="327.5" y="387.5"/>
      <point x="298" y="289.5"/>
      <point x="161" y="280.5" type="curve"/>
      <point x="163.5" y="300.5" type="line"/>
      <point x="297" y="289"/>
      <point x="297.5" y="183.5"/>
      <point x="282.5" y="89.5" type="curve" smooth="yes"/>
      <point x="266" y="-14" type="line" smooth="yes"/>
      <point x="261.5" y="-41"/>
      <point x="273.5" y="-62.5"/>
      <point x="303" y="-63" type="curve" smooth="yes"/>
      <point x="339" y="-63.5" type="line"/>
      <point x="319" y="-199.5" type="line"/>
      <point x="224.5" y="-200" type="line" smooth="yes"/>
      <point x="136.5" y="-199"/>
      <point x="54.5" y="-155"/>
      <point x="68.5" y="-60" type="curve" smooth="yes"/>
      <point x="95.5" y="117" type="line" smooth="yes"/>
      <point x="103" y="180.5"/>
      <point x="95.5" y="207.5"/>
      <point x="49.5" y="227" type="curve"/>
      <point x="67.5" y="352.5" type="line"/>
      <point x="116.5" y="369.5"/>
      <point x="137.5" y="398.5"/>
      <point x="147" y="463.5" type="curve" smooth="yes"/>
      <point x="174" y="640.5" type="line" smooth="yes"/>
      <point x="188.5" y="735.5"/>
      <point x="273.5" y="778.5"/>
      <point x="365.5" y="780" type="curve" smooth="yes"/>
      <point x="470" y="780" type="line"/>
      <point x="450" y="644" type="line"/>
      <point x="417.5" y="644" type="line" smooth="yes"/>
      <point x="387.5" y="644"/>
      <point x="366.5" y="621.5"/>
    </contour>
  </outline>
</glyph>
<glyph name="bar" format="1">
  <advance width="366"/>
  <unicode hex="007C"/>
  <outline>
    <contour>
      <point x="199.5" y="785" type="line"/>
      <point x="375" y="785" type="line"/>
      <point x="221" y="-215" type="line"/>
      <point x="45" y="-215" type="line"/>
    </contour>
  </outline>
</glyph>
<glyph name="braceright" format="1">
  <advance width="413"/>
  <unicode hex="007D"/>
  <outline>
    <contour>
      <point x="109" y="-13.5" type="curve" smooth="yes"/>
      <point x="125" y="90.5" type="line" smooth="yes"/>
      <point x="143.5" y="192.5"/>
      <point x="172.5" y="290.5"/>
      <point x="309.5" y="299.5" type="curve"/>
      <point x="307.5" y="279.5" type="line"/>
      <point x="174" y="291"/>
      <point x="173" y="396.5"/>
      <point x="188" y="490.5" type="curve" smooth="yes"/>
      <point x="204.5" y="594" type="line" smooth="yes"/>
      <point x="209" y="620.5"/>
      <point x="196.5" y="642.5"/>
      <point x="167.5" y="643" type="curve" smooth="yes"/>
      <point x="132" y="643.5" type="line"/>
      <point x="152" y="780" type="line"/>
      <point x="246.5" y="780" type="line" smooth="yes"/>
      <point x="334.5" y="778.5"/>
      <point x="416" y="735"/>
      <point x="402" y="640" type="curve" smooth="yes"/>
      <point x="375" y="463" type="line" smooth="yes"/>
      <point x="367.5" y="399.5"/>
      <point x="375" y="372.5"/>
      <point x="421" y="353" type="curve"/>
      <point x="403" y="227.5" type="line"/>
      <point x="354" y="210.5"/>
      <point x="332.5" y="181.5"/>
      <point x="323" y="116.5" type="curve" smooth="yes"/>
      <point x="296.5" y="-60.5" type="line" smooth="yes"/>
      <point x="282.5" y="-156"/>
      <point x="197" y="-198.5"/>
      <point x="105" y="-200" type="curve" smooth="yes"/>
      <point x="0.5" y="-200" type="line"/>
      <point x="20.5" y="-64" type="line"/>
      <point x="53" y="-64" type="line" smooth="yes"/>
      <point x="83" y="-64"/>
      <point x="104.5" y="-41.5"/>
    </contour>
  </outline>
</glyph>
<glyph name="asciitilde" format="1">
  <advance width="558"/>
  <unicode hex="007E"/>
  <outline>
    <contour>
      <point x="166" y="158.5" type="curve"/>
      <point x="35" y="164" type="line"/>
      <point x="34" y="171.5"/>
      <point x="33" y="180"/>
      <point x="34" y="188.5" type="curve" smooth="yes"/>
      <point x="38" y="227"/>
      <point x="53.5" y="262.5"/>
      <point x="80" y="292" type="curve" smooth="yes"/>
      <point x="112.5" y="327.5"/>
      <point x="156.5" y="353"/>
      <point x="220.5" y="352" type="curve" smooth="yes"/>
      <point x="265" y="351.5"/>
      <point x="296.5" y="331.5"/>
      <point x="336.5" y="302.5" type="curve" smooth="yes"/>
      <point x="359" y="287"/>
      <point x="379" y="267.5"/>
      <point x="398" y="267.5" type="curve" smooth="yes"/>
      <point x="417" y="267.5"/>
      <point x="430.5" y="287.5"/>
      <point x="434" y="304" type="curve" smooth="yes"/>
      <point x="436.5" y="315.5"/>
      <point x="434.5" y="330"/>
      <point x="432.5" y="341" type="curve"/>
      <point x="564.5" y="334.5" type="line"/>
      <point x="565.5" y="325.5"/>
      <point x="566.5" y="315.5"/>
      <point x="565.5" y="306" type="curve" smooth="yes"/>
      <point x="561.5" y="268.5"/>
      <point x="549" y="231.5"/>
      <point x="522.5" y="201.5" type="curve" smooth="yes"/>
      <point x="493.5" y="168"/>
      <point x="453.5" y="147"/>
      <point x="400.5" y="147.5" type="curve" smooth="yes"/>
      <point x="359" y="148"/>
      <point x="325" y="169"/>
      <point x="283.5" y="198" type="curve" smooth="yes"/>
      <point x="259" y="215"/>
      <point x="235.5" y="233.5"/>
      <point x="211" y="232.5" type="curve" smooth="yes"/>
      <point x="184" y="231.5"/>
      <point x="169" y="209"/>
      <point x="164.5" y="190" type="curve" smooth="yes"/>
      <point x="162" y="177"/>
      <point x="164.5" y="167.5"/>
    </contour>
  </outline>
</glyph>
<glyph name="exclamdown" format="2">
  <advance width="346"/>
  <unicode hex="00A1"/>
  <outline>
    <contour>
      <point x="213" y="-224" type="line"/>
      <point x="1" y="-224" type="line"/>
      <point x="115" y="234" type="line"/>
      <point x="257" y="234" type="line"/>
    </contour>
    <contour>
      <point x="321" y="406" type="curve" smooth="yes"/>
      <point x="314" y="351"/>
      <point x="261" y="311"/>
      <point x="203" y="311" type="curve" smooth="yes"/>
      <point x="144" y="311"/>
      <point x="104" y="352"/>
      <point x="111" y="408" type="curve" smooth="yes"/>
      <point x="118" y="463"/>
      <point x="170" y="503"/>
      <point x="228" y="503" type="curve" smooth="yes"/>
      <point x="287" y="503"/>
      <point x="328" y="462"/>
    </contour>
  </outline>
</glyph>
<glyph name="cent" format="1">
  <advance width="562"/>
  <unicode hex="00A2"/>
  <outline>
    <contour>
      <point x="194" y="38" type="line"/>
      <point x="319" y="38" type="line"/>
      <point x="304" y="-112" type="line"/>
      <point x="154.5" y="-112" type="line"/>
    </contour>
    <contour>
      <point x="225.5" y="229.5" type="curve" smooth="yes"/>
      <point x="216" y="168"/>
      <point x="254.5" y="128"/>
      <point x="312" y="126.5" type="curve" smooth="yes"/>
      <point x="368" y="125"/>
      <point x="413.5" y="156.5"/>
      <point x="449" y="189.5" type="curve"/>
      <point x="425" y="23.5" type="line"/>
      <point x="386.5" y="2.5"/>
      <point x="338.5" y="-10"/>
      <point x="282" y="-10" type="curve" smooth="yes"/>
      <point x="133.5" y="-9.5"/>
      <point x="28.5" y="88"/>
      <point x="49" y="230.5" type="curve" smooth="yes"/>
      <point x="70.5" y="375.5"/>
      <point x="200.5" y="469.5"/>
      <point x="353.5" y="470" type="curve" smooth="yes"/>
      <point x="409" y="470"/>
      <point x="454.5" y="457"/>
      <point x="491.5" y="435.5" type="curve"/>
      <point x="467" y="269.5" type="line"/>
      <point x="441.5" y="306.5"/>
      <point x="408" y="334.5"/>
      <point x="356" y="334.5" type="curve" smooth="yes"/>
      <point x="297" y="334.5"/>
      <point x="236" y="289.5"/>
    </contour>
    <contour>
      <point x="274.5" y="578" type="line"/>
      <point x="423.5" y="578" type="line"/>
      <point x="385.5" y="428" type="line"/>
      <point x="260.5" y="428" type="line"/>
    </contour>
  </outline>
</glyph>
<glyph name="sterling" format="1">
  <advance width="602"/>
  <unicode hex="00A3"/>
  <outline>
    <contour>
      <point x="100" y="370" type="line"/>
      <point x="476.5" y="370" type="line"/>
      <point x="457.5" y="261.5" type="line"/>
      <point x="80" y="261.5" type="line"/>
    </contour>
    <contour>
      <point x="471" y="463" type="line"/>
      <point x="472" y="508.5"/>
      <point x="463.5" y="558"/>
      <point x="400.5" y="559" type="curve" smooth="yes"/>
      <point x="356" y="560"/>
      <point x="315" y="532.5"/>
      <point x="306.5" y="486.5" type="curve" smooth="yes"/>
      <point x="291" y="413.5"/>
      <point x="368.5" y="363.5"/>
      <point x="358" y="271.5" type="curve" smooth="yes"/>
      <point x="341.5" y="159.5"/>
      <point x="204.5" y="77.5"/>
      <point x="113.5" y="52" type="curve"/>
      <point x="194" y="158" type="line"/>
      <point x="532.5" y="158.5" type="line"/>
      <point x="504.5" y="0" type="line"/>
      <point x="19" y="0" type="line"/>
      <point x="110.5" y="95.5"/>
      <point x="180" y="185"/>
      <point x="197.5" y="299" type="curve" smooth="yes"/>
      <point x="209" y="385.5"/>
      <point x="122.5" y="427"/>
      <point x="133" y="522.5" type="curve" smooth="yes"/>
      <point x="149.5" y="643"/>
      <point x="282" y="709.5"/>
      <point x="408" y="709.5" type="curve" smooth="yes"/>
      <point x="545" y="709.5"/>
      <point x="635.5" y="623.5"/>
      <point x="633.5" y="520" type="curve"/>
    </contour>
  </outline>
</glyph>
<glyph name="currency" format="1">
  <advance width="558"/>
  <unicode hex="00A4"/>
  <outline>
    <contour>
      <point x="75.5" y="505" type="line"/>
      <point x="151" y="570" type="line"/>
      <point x="233.5" y="462.5" type="line"/>
      <point x="163.5" y="402.5" type="line"/>
    </contour>
    <contour>
      <point x="65" y="30.5" type="line"/>
      <point x="8" y="102" type="line"/>
      <point x="122.5" y="198.5" type="line"/>
      <point x="177.5" y="130.5" type="line"/>
    </contour>
    <contour>
      <point x="487.5" y="402" type="line"/>
      <point x="430.5" y="472" type="line"/>
      <point x="545" y="570" type="line"/>
      <point x="600" y="500.5" type="line"/>
    </contour>
    <contour>
      <point x="372" y="134.5" type="line"/>
      <point x="446.5" y="198.5" type="line"/>
      <point x="529.5" y="92" type="line"/>
      <point x="459.5" y="31" type="line"/>
    </contour>
    <contour>
      <point x="71" y="300.5" type="curve" smooth="yes"/>
      <point x="89.5" y="433"/>
      <point x="203.5" y="540"/>
      <point x="339" y="540" type="curve" smooth="yes"/>
      <point x="473" y="540"/>
      <point x="553.5" y="428"/>
      <point x="536" y="299.5" type="curve" smooth="yes"/>
      <point x="517.5" y="167"/>
      <point x="403.5" y="60"/>
      <point x="268" y="60" type="curve" smooth="yes"/>
      <point x="134" y="60"/>
      <point x="53.5" y="172"/>
    </contour>
    <contour>
      <point x="223.5" y="299" type="curve" smooth="yes"/>
      <point x="217" y="255"/>
      <point x="239.5" y="219"/>
      <point x="286" y="218" type="curve" smooth="yes"/>
      <point x="334" y="216.5"/>
      <point x="376" y="254.5"/>
      <point x="383.5" y="301" type="curve" smooth="yes"/>
      <point x="390" y="345"/>
      <point x="367.5" y="381"/>
      <point x="321" y="382" type="curve" smooth="yes"/>
      <point x="273" y="383.5"/>
      <point x="231" y="345.5"/>
    </contour>
  </outline>
</glyph>
<glyph name="yen" format="1">
  <advance width="677"/>
  <unicode hex="00A5"/>
  <outline>
    <contour>
      <point x="58.5" y="257" type="line"/>
      <point x="77.5" y="365" type="line"/>
      <point x="668.5" y="365" type="line"/>
      <point x="649" y="257" type="line"/>
    </contour>
    <contour>
      <point x="33" y="107" type="line"/>
      <point x="52" y="215" type="line"/>
      <point x="643" y="215" type="line"/>
      <point x="623.5" y="107" type="line"/>
    </contour>
    <contour>
      <point x="546" y="699.5" type="line"/>
      <point x="773" y="699.5" type="line"/>
      <point x="457.5" y="276.5" type="line"/>
      <point x="411" y="0" type="line"/>
      <point x="211.5" y="0" type="line"/>
      <point x="262" y="283.5" type="line"/>
      <point x="92.5" y="700" type="line"/>
      <point x="311" y="700" type="line"/>
      <point x="386.5" y="460.5" type="line"/>
    </contour>
  </outline>
</glyph>
<glyph name="brokenbar" format="1">
  <advance width="366"/>
  <unicode hex="00A6"/>
  <outline>
    <contour>
      <point x="187.5" y="695" type="line"/>
      <point x="363.5" y="695" type="line"/>
      <point x="316" y="421.5" type="line"/>
      <point x="140" y="421.5" type="line"/>
    </contour>
    <contour>
      <point x="292.5" y="278.5" type="line"/>
      <point x="244.5" y="5" type="line"/>
      <point x="68.5" y="5" type="line"/>
      <point x="116.5" y="278.5" type="line"/>
    </contour>
  </outline>
</glyph>
<glyph name="section" format="1">
  <advance width="612"/>
  <unicode hex="00A7"/>
  <outline>
    <contour>
      <point x="486.5" y="540" type="line"/>
      <point x="459.5" y="565.5"/>
      <point x="422" y="587.5"/>
      <point x="389.5" y="587" type="curve" smooth="yes"/>
      <point x="366" y="587"/>
      <point x="339" y="576"/>
      <point x="337.5" y="560.5" type="curve" smooth="yes"/>
      <point x="335.5" y="537"/>
      <point x="387.5" y="533.5"/>
      <point x="422" y="524" type="curve" smooth="yes"/>
      <point x="495" y="504.5"/>
      <point x="547.5" y="452"/>
      <point x="537.5" y="379.5" type="curve" smooth="yes"/>
      <point x="521" y="270"/>
      <point x="397.5" y="229.5"/>
      <point x="290" y="226.5" type="curve"/>
      <point x="297.5" y="269.5" type="line"/>
      <point x="332" y="280"/>
      <point x="373" y="298"/>
      <point x="379.5" y="338" type="curve" smooth="yes"/>
      <point x="389.5" y="393"/>
      <point x="318.5" y="410"/>
      <point x="274" y="429" type="curve" smooth="yes"/>
      <point x="217" y="454.5"/>
      <point x="169.5" y="500.5"/>
      <point x="178.5" y="575.5" type="curve" smooth="yes"/>
      <point x="192.5" y="675"/>
      <point x="298" y="727.5"/>
      <point x="392.5" y="728" type="curve" smooth="yes"/>
      <point x="467.5" y="728.5"/>
      <point x="537" y="699"/>
      <point x="575" y="655" type="curve"/>
    </contour>
    <contour>
      <point x="133.5" y="176.5" type="line"/>
      <point x="181.5" y="136.5"/>
      <point x="235.5" y="114"/>
      <point x="278.5" y="115" type="curve" smooth="yes"/>
      <point x="304" y="115.5"/>
      <point x="329" y="125"/>
      <point x="332" y="142.5" type="curve" smooth="yes"/>
      <point x="336" y="170"/>
      <point x="287" y="177"/>
      <point x="250.5" y="187" type="curve" smooth="yes"/>
      <point x="179" y="206.5"/>
      <point x="107.5" y="250"/>
      <point x="117.5" y="326.5" type="curve" smooth="yes"/>
      <point x="133" y="434.5"/>
      <point x="265" y="476"/>
      <point x="373" y="479" type="curve"/>
      <point x="366" y="437.5" type="line"/>
      <point x="331" y="424.5"/>
      <point x="289.5" y="408.5"/>
      <point x="283" y="368.5" type="curve" smooth="yes"/>
      <point x="273.5" y="311"/>
      <point x="355" y="302"/>
      <point x="398.5" y="283" type="curve" smooth="yes"/>
      <point x="461" y="255"/>
      <point x="510.5" y="204.5"/>
      <point x="500.5" y="129.5" type="curve" smooth="yes"/>
      <point x="486" y="25.5"/>
      <point x="373" y="-26"/>
      <point x="274.5" y="-26.5" type="curve" smooth="yes"/>
      <point x="172.5" y="-27"/>
      <point x="100" y="8.5"/>
      <point x="44" y="62" type="curve"/>
    </contour>
  </outline>
</glyph>
<glyph name="dieresis" format="1">
  <advance width="508"/>
  <unicode hex="00A8"/>
  <outline>
    <contour>
      <point x="361" y="624" type="curve" smooth="yes"/>
      <point x="367" y="675.5"/>
      <point x="417" y="713"/>
      <point x="469" y="713" type="curve" smooth="yes"/>
      <point x="521.5" y="713"/>
      <point x="561.5" y="674.5"/>
      <point x="555" y="622" type="curve" smooth="yes"/>
      <point x="549" y="570.5"/>
      <point x="499.5" y="533"/>
      <point x="447.5" y="533" type="curve" smooth="yes"/>
      <point x="395" y="533"/>
      <point x="354.5" y="571.5"/>
    </contour>
    <contour>
      <point x="111" y="624" type="curve" smooth="yes"/>
      <point x="117" y="675.5"/>
      <point x="167" y="713"/>
      <point x="219" y="713" type="curve" smooth="yes"/>
      <point x="271.5" y="713"/>
      <point x="312" y="674.5"/>
      <point x="305.5" y="622" type="curve" smooth="yes"/>
      <point x="299.5" y="570.5"/>
      <point x="250" y="533"/>
      <point x="198" y="533" type="curve" smooth="yes"/>
      <point x="145.5" y="533"/>
      <point x="104.5" y="571.5"/>
    </contour>
  </outline>
</glyph>
<glyph name="copyright" format="1">
  <advance width="776"/>
  <unicode hex="00A9"/>
  <outline>
    <contour>
      <point x="333.5" y="349.5" type="curve" smooth="yes"/>
      <point x="324" y="286"/>
      <point x="363.5" y="243"/>
      <point x="425.5" y="241.5" type="curve" smooth="yes"/>
      <point x="480" y="240.5"/>
      <point x="521" y="267"/>
      <point x="554.5" y="293.5" type="curve"/>
      <point x="538.5" y="170" type="line"/>
      <point x="501.5" y="146.5"/>
      <point x="463" y="130"/>
      <point x="408.5" y="129.5" type="curve" smooth="yes"/>
      <point x="276" y="129"/>
      <point x="189.5" y="224.5"/>
      <point x="206" y="350.5" type="curve" smooth="yes"/>
      <point x="223" y="479.5"/>
      <point x="332" y="571"/>
      <point x="467" y="571" type="curve" smooth="yes"/>
      <point x="520" y="571"/>
      <point x="556" y="554.5"/>
      <point x="591.5" y="529.5" type="curve"/>
      <point x="575.5" y="406" type="line"/>
      <point x="550" y="435.5"/>
      <point x="518" y="459"/>
      <point x="467" y="459" type="curve" smooth="yes"/>
      <point x="403" y="459"/>
      <point x="344" y="415.5"/>
    </contour>
    <contour>
      <point x="130.5" y="350" type="curve" smooth="yes"/>
      <point x="106.5" y="189.5"/>
      <point x="201" y="41.5"/>
      <point x="372.5" y="40.5" type="curve" smooth="yes"/>
      <point x="547" y="39.5"/>
      <point x="692.5" y="181"/>
      <point x="719.5" y="350" type="curve" smooth="yes"/>
      <point x="743.5" y="510.5"/>
      <point x="649" y="658.5"/>
      <point x="477.5" y="659.5" type="curve" smooth="yes"/>
      <point x="303" y="660.5"/>
      <point x="157.5" y="519"/>
    </contour>
    <contour>
      <point x="74" y="350" type="curve" smooth="yes"/>
      <point x="100.5" y="550"/>
      <point x="271" y="710.5"/>
      <point x="475" y="710" type="curve" smooth="yes"/>
      <point x="676" y="709.5"/>
      <point x="800.5" y="543.5"/>
      <point x="776" y="350" type="curve" smooth="yes"/>
      <point x="749.5" y="150"/>
      <point x="578.5" y="-10.5"/>
      <point x="374.5" y="-10" type="curve" smooth="yes"/>
      <point x="173.5" y="-9.5"/>
      <point x="49.5" y="156.5"/>
    </contour>
  </outline>
</glyph>
<glyph name="ordfeminine" format="1">
  <advance width="272"/>
  <unicode hex="00AA"/>
  <outline>
    <contour>
      <point x="165" y="529" type="curve" smooth="yes"/>
      <point x="164" y="517.5"/>
      <point x="173.5" y="509.5"/>
      <point x="186" y="509.5" type="curve" smooth="yes"/>
      <point x="211.5" y="509.5"/>
      <point x="232" y="526.5"/>
      <point x="240" y="553.5" type="curve"/>
      <point x="243" y="523.5" type="line"/>
      <point x="231.5" y="483.5"/>
      <point x="199.5" y="455.5"/>
      <point x="152.5" y="455.5" type="curve" smooth="yes"/>
      <point x="107" y="455.5"/>
      <point x="72" y="483.5"/>
      <point x="78" y="527.5" type="curve" smooth="yes"/>
      <point x="84.5" y="573"/>
      <point x="134" y="599"/>
      <point x="184.5" y="599.5" type="curve" smooth="yes"/>
      <point x="215" y="600"/>
      <point x="243.5" y="589.5"/>
      <point x="261" y="577" type="curve"/>
      <point x="254.5" y="538" type="line"/>
      <point x="240" y="548.5"/>
      <point x="226" y="556"/>
      <point x="205" y="555.5" type="curve" smooth="yes"/>
      <point x="188" y="555.5"/>
      <point x="167" y="544"/>
    </contour>
    <contour>
      <point x="143" y="617" type="curve"/>
      <point x="124.5" y="681" type="line"/>
      <point x="156" y="692.5"/>
      <point x="193.5" y="705"/>
      <point x="233" y="705" type="curve" smooth="yes"/>
      <point x="289" y="705"/>
      <point x="338" y="681.5"/>
      <point x="333.5" y="629" type="curve"/>
      <point x="305.5" y="460" type="line"/>
      <point x="222" y="460.5" type="line"/>
      <point x="249" y="603" type="line"/>
      <point x="248" y="620.5"/>
      <point x="242.5" y="633.5"/>
      <point x="220.5" y="636" type="curve" smooth="yes"/>
      <point x="191.5" y="639"/>
      <point x="160" y="624"/>
    </contour>
  </outline>
</glyph>
<glyph name="guillemotleft" format="1">
  <advance width="534"/>
  <unicode hex="00AB"/>
  <outline>
    <contour>
      <point x="378" y="255" type="line"/>
      <point x="490.5" y="61.5" type="line"/>
      <point x="376.5" y="-6" type="line"/>
      <point x="250.5" y="260" type="line"/>
      <point x="459.5" y="514" type="line"/>
      <point x="557" y="441" type="line"/>
    </contour>
    <contour>
      <point x="166.5" y="255" type="line"/>
      <point x="279" y="61.5" type="line"/>
      <point x="165.5" y="-6" type="line"/>
      <point x="39.5" y="260" type="line"/>
      <point x="248.5" y="514" type="line"/>
      <point x="345.5" y="441" type="line"/>
    </contour>
  </outline>
</glyph>
<glyph name="logicalnot" format="1">
  <advance width="640"/>
  <unicode hex="00AC"/>
  <outline>
    <contour>
      <point x="81.5" y="263.5" type="line"/>
      <point x="105.5" y="412.5" type="line"/>
      <point x="623" y="412.5" type="line"/>
      <point x="581.5" y="175" type="line"/>
      <point x="466" y="175" type="line"/>
      <point x="484.5" y="263.5" type="line"/>
    </contour>
  </outline>
</glyph>
<glyph name="registered" format="1">
  <advance width="776"/>
  <unicode hex="00AE"/>
  <outline>
    <contour>
      <point x="407" y="318" type="line"/>
      <point x="507" y="318" type="line"/>
      <point x="587" y="150" type="line"/>
      <point x="455.5" y="150" type="line"/>
    </contour>
    <contour>
      <point x="309.5" y="570" type="line"/>
      <point x="426.5" y="570" type="line"/>
      <point x="361" y="150" type="line"/>
      <point x="244" y="150" type="line"/>
    </contour>
    <contour>
      <point x="367.5" y="471" type="line"/>
      <point x="382.5" y="569.5" type="line"/>
      <point x="467" y="570" type="line"/>
      <point x="563.5" y="568.5"/>
      <point x="628" y="518.5"/>
      <point x="617" y="437" type="curve" smooth="yes"/>
      <point x="606" y="351"/>
      <point x="534.5" y="299"/>
      <point x="433.5" y="297" type="curve"/>
      <point x="339" y="296.5" type="line"/>
      <point x="353.5" y="386" type="line"/>
      <point x="430" y="386.5" type="line"/>
      <point x="461" y="387.5"/>
      <point x="490.5" y="401"/>
      <point x="494.5" y="430" type="curve" smooth="yes"/>
      <point x="498" y="457.5"/>
      <point x="477" y="470"/>
      <point x="448.5" y="471" type="curve"/>
    </contour>
    <contour>
      <point x="130.5" y="350" type="curve" smooth="yes"/>
      <point x="106.5" y="189.5"/>
      <point x="201" y="41.5"/>
      <point x="372.5" y="40.5" type="curve" smooth="yes"/>
      <point x="547" y="39.5"/>
      <point x="692.5" y="181"/>
      <point x="719.5" y="350" type="curve" smooth="yes"/>
      <point x="743.5" y="510.5"/>
      <point x="649" y="658.5"/>
      <point x="477.5" y="659.5" type="curve" smooth="yes"/>
      <point x="303" y="660.5"/>
      <point x="157.5" y="519"/>
    </contour>
    <contour>
      <point x="74" y="350" type="curve" smooth="yes"/>
      <point x="100.5" y="550"/>
      <point x="271" y="710.5"/>
      <point x="475" y="710" type="curve" smooth="yes"/>
      <point x="676" y="709.5"/>
      <point x="800.5" y="543.5"/>
      <point x="776" y="350" type="curve" smooth="yes"/>
      <point x="749.5" y="150"/>
      <point x="578.5" y="-10.5"/>
      <point x="374.5" y="-10" type="curve" smooth="yes"/>
      <point x="173.5" y="-9.5"/>
      <point x="49.5" y="156.5"/>
    </contour>
  </outline>
</glyph>
<glyph name="macron" format="1">
  <advance width="522"/>
  <unicode hex="00AF"/>
  <outline>
    <contour>
      <point x="145.5" y="563" type="line"/>
      <point x="169" y="712.5" type="line"/>
      <point x="540" y="712.5" type="line"/>
      <point x="516" y="563" type="line"/>
    </contour>
  </outline>
</glyph>
<glyph name="degree" format="1">
  <advance width="293"/>
  <unicode hex="00B0"/>
  <outline>
    <contour>
      <point x="88.5" y="597" type="curve" smooth="yes"/>
      <point x="98" y="667.5"/>
      <point x="163" y="719.5"/>
      <point x="237" y="719.5" type="curve" smooth="yes"/>
      <point x="311" y="719.5"/>
      <point x="364" y="666"/>
      <point x="354" y="595" type="curve" smooth="yes"/>
      <point x="344.5" y="524"/>
      <point x="278.5" y="472.5"/>
      <point x="204" y="472.5" type="curve" smooth="yes"/>
      <point x="130" y="472.5"/>
      <point x="78.5" y="526.5"/>
    </contour>
    <contour>
      <point x="172.5" y="595" type="curve" smooth="yes"/>
      <point x="169.5" y="570"/>
      <point x="183" y="546.5"/>
      <point x="209" y="545.5" type="curve" smooth="yes"/>
      <point x="236.5" y="544.5"/>
      <point x="265" y="569.5"/>
      <point x="269" y="596.5" type="curve" smooth="yes"/>
      <point x="272" y="621.5"/>
      <point x="258" y="646"/>
      <point x="232" y="647" type="curve" smooth="yes"/>
      <point x="204.5" y="648"/>
      <point x="176.5" y="622"/>
    </contour>
  </outline>
</glyph>
<glyph name="plusminus" format="2">
  <advance width="619"/>
  <unicode hex="00B1"/>
  <outline>
    <contour>
      <point x="46" y="8" type="line"/>
      <point x="69" y="154" type="line"/>
      <point x="566" y="154" type="line"/>
      <point x="543" y="8" type="line"/>
    </contour>
    <contour>
      <point x="95" y="328" type="line"/>
      <point x="120" y="483" type="line"/>
      <point x="617" y="483" type="line"/>
      <point x="593" y="328" type="line"/>
    </contour>
    <contour>
      <point x="302" y="620" type="line"/>
      <point x="476" y="620" type="line"/>
      <point x="409" y="191" type="line"/>
      <point x="236" y="191" type="line"/>
    </contour>
  </outline>
</glyph>
<glyph name="uni00B2" format="1">
  <advance width="415"/>
  <unicode hex="00B2"/>
  <outline>
    <contour>
      <point x="41" y="282.5" type="line"/>
      <point x="251.5" y="469.5" type="line" smooth="yes"/>
      <point x="285.5" y="500.5"/>
      <point x="322" y="529"/>
      <point x="327.5" y="566" type="curve" smooth="yes"/>
      <point x="330" y="587.5"/>
      <point x="320" y="609.5"/>
      <point x="291.5" y="610.5" type="curve" smooth="yes"/>
      <point x="256" y="612.5"/>
      <point x="231.5" y="576.5"/>
      <point x="223.5" y="543.5" type="curve"/>
      <point x="108.5" y="544.5" type="line"/>
      <point x="127" y="634"/>
      <point x="193.5" y="711.5"/>
      <point x="303.5" y="711.5" type="curve" smooth="yes"/>
      <point x="396.5" y="711.5"/>
      <point x="459.5" y="648"/>
      <point x="448" y="572.5" type="curve" smooth="yes"/>
      <point x="441.5" y="526"/>
      <point x="409.5" y="490.5"/>
      <point x="372" y="461.5" type="curve" smooth="yes"/>
      <point x="277.5" y="390" type="line"/>
      <point x="430" y="389" type="line"/>
      <point x="411" y="282" type="line"/>
    </contour>
  </outline>
</glyph>
<glyph name="uni00B3" format="2">
  <advance width="369"/>
  <unicode hex="00B3"/>
  <outline>
    <contour>
      <point x="209" y="483" type="curve"/>
      <point x="216" y="531" type="line"/>
      <point x="253" y="534"/>
      <point x="295" y="552"/>
      <point x="300" y="584" type="curve" smooth="yes"/>
      <point x="302" y="602"/>
      <point x="289" y="616"/>
      <point x="267" y="616" type="curve" smooth="yes"/>
      <point x="238" y="616"/>
      <point x="219" y="595"/>
      <point x="211" y="572" type="curve"/>
      <point x="102" y="573" type="line"/>
      <point x="120" y="650"/>
      <point x="183" y="707"/>
      <point x="275" y="708" type="curve" smooth="yes"/>
      <point x="360" y="708"/>
      <point x="426" y="661"/>
      <point x="414" y="589" type="curve" smooth="yes"/>
      <point x="401" y="506"/>
      <point x="301" y="485"/>
    </contour>
    <contour>
      <point x="204" y="269" type="curve" smooth="yes"/>
      <point x="104" y="270"/>
      <point x="52" y="339"/>
      <point x="57" y="421" type="curve"/>
      <point x="170" y="420" type="line"/>
      <point x="170" y="386"/>
      <point x="183" y="364"/>
      <point x="216" y="362" type="curve" smooth="yes"/>
      <point x="244" y="361"/>
      <point x="275" y="379"/>
      <point x="279" y="408" type="curve" smooth="yes"/>
      <point x="286" y="444"/>
      <point x="249" y="459"/>
      <point x="203" y="461" type="curve"/>
      <point x="213" y="516" type="line"/>
      <point x="310" y="514"/>
      <point x="407" y="488"/>
      <point x="393" y="395" type="curve" smooth="yes"/>
      <point x="382" y="317"/>
      <point x="300" y="268"/>
    </contour>
  </outline>
</glyph>
<glyph name="acute" format="1">
  <advance width="363"/>
  <unicode hex="00B4"/>
  <outline>
    <contour>
      <point x="399.5" y="649" type="line"/>
      <point x="204.5" y="502.5" type="line"/>
      <point x="110" y="551.5" type="line"/>
      <point x="277.5" y="707.5" type="line"/>
    </contour>
  </outline>
</glyph>
<glyph name="paragraph" format="1">
  <advance width="680"/>
  <unicode hex="00B6"/>
  <outline>
    <contour>
      <point x="352.5" y="597.5" type="line"/>
      <point x="370.5" y="700" type="line"/>
      <point x="607.5" y="700" type="line"/>
      <point x="589.5" y="597.5" type="line"/>
    </contour>
    <contour>
      <point x="566" y="700" type="line"/>
      <point x="717.5" y="700" type="line"/>
      <point x="560" y="-220" type="line"/>
      <point x="408" y="-220" type="line"/>
    </contour>
    <contour>
      <point x="370.5" y="700" type="line"/>
      <point x="522" y="700" type="line"/>
      <point x="364" y="-220" type="line"/>
      <point x="213" y="-220" type="line"/>
    </contour>
    <contour>
      <point x="301.5" y="270.5" type="line"/>
      <point x="179.5" y="277"/>
      <point x="94" y="355.5"/>
      <point x="112.5" y="485.5" type="curve" smooth="yes"/>
      <point x="132.5" y="621"/>
      <point x="242.5" y="700"/>
      <point x="370.5" y="700" type="curve"/>
    </contour>
  </outline>
</glyph>
<glyph name="periodcentered" format="1">
  <advance width="319"/>
  <unicode hex="00B7"/>
  <outline>
    <contour>
      <point x="74.5" y="278" type="curve" smooth="yes"/>
      <point x="82" y="333"/>
      <point x="134.5" y="381.5"/>
      <point x="194" y="381.5" type="curve" smooth="yes"/>
      <point x="254" y="381.5"/>
      <point x="293" y="331"/>
      <point x="285.5" y="276" type="curve" smooth="yes"/>
      <point x="278" y="221"/>
      <point x="225.5" y="173"/>
      <point x="166" y="173" type="curve" smooth="yes"/>
      <point x="106" y="173"/>
      <point x="67" y="223"/>
    </contour>
  </outline>
</glyph>
<glyph name="cedilla" format="1">
  <advance width="395"/>
  <unicode hex="00B8"/>
  <outline>
    <contour>
      <point x="156" y="74" type="line"/>
      <point x="286" y="69.5" type="line"/>
      <point x="168.5" y="-55.5" type="line"/>
      <point x="181" y="-52"/>
      <point x="195.5" y="-50"/>
      <point x="209.5" y="-50.5" type="curve" smooth="yes"/>
      <point x="258.5" y="-52.5"/>
      <point x="300" y="-95"/>
      <point x="292.5" y="-156.5" type="curve" smooth="yes"/>
      <point x="282.5" y="-229"/>
      <point x="208" y="-267.5"/>
      <point x="141.5" y="-269" type="curve" smooth="yes"/>
      <point x="83" y="-270.5"/>
      <point x="34.5" y="-256"/>
      <point x="-15" y="-228" type="curve"/>
      <point x="43.5" y="-153" type="line"/>
      <point x="68" y="-169"/>
      <point x="100.5" y="-179"/>
      <point x="123" y="-178.5" type="curve" smooth="yes"/>
      <point x="149" y="-178"/>
      <point x="184" y="-166"/>
      <point x="185.5" y="-142.5" type="curve" smooth="yes"/>
      <point x="187" y="-118.5"/>
      <point x="154" y="-113.5"/>
      <point x="132.5" y="-113" type="curve" smooth="yes"/>
      <point x="111.5" y="-112"/>
      <point x="75.5" y="-117"/>
      <point x="40" y="-127" type="curve"/>
    </contour>
  </outline>
</glyph>
<glyph name="uni00B9" format="1">
  <advance width="472"/>
  <unicode hex="00B9"/>
  <outline>
    <contour>
      <point x="190" y="558.5" type="line"/>
      <point x="208" y="660.5" type="line"/>
      <point x="433" y="703.5" type="line"/>
      <point x="359" y="274" type="line"/>
      <point x="246" y="274" type="line"/>
      <point x="299" y="583" type="line"/>
    </contour>
  </outline>
</glyph>
<glyph name="ordmasculine" format="1">
  <advance width="269"/>
  <unicode hex="00BA"/>
  <outline>
    <contour>
      <point x="88" y="581" type="curve" smooth="yes"/>
      <point x="97.5" y="651.5"/>
      <point x="162.5" y="699.5"/>
      <point x="236" y="699.5" type="curve" smooth="yes"/>
      <point x="309.5" y="699.5"/>
      <point x="364" y="650"/>
      <point x="354" y="579" type="curve" smooth="yes"/>
      <point x="344.5" y="508"/>
      <point x="278.5" y="460.5"/>
      <point x="205" y="460.5" type="curve" smooth="yes"/>
      <point x="131.5" y="460.5"/>
      <point x="78" y="510"/>
    </contour>
    <contour>
      <point x="176.5" y="579" type="curve" smooth="yes"/>
      <point x="173.5" y="555"/>
      <point x="186" y="532.5"/>
      <point x="209.5" y="531.5" type="curve" smooth="yes"/>
      <point x="234" y="530.5"/>
      <point x="261.5" y="554.5"/>
      <point x="265" y="581" type="curve" smooth="yes"/>
      <point x="268" y="605"/>
      <point x="255" y="628"/>
      <point x="231.5" y="629" type="curve" smooth="yes"/>
      <point x="207" y="630"/>
      <point x="180" y="605.5"/>
    </contour>
  </outline>
</glyph>
<glyph name="guillemotright" format="1">
  <advance width="534"/>
  <unicode hex="00BB"/>
  <outline>
    <contour>
      <point x="190" y="255" type="line"/>
      <point x="77.5" y="448.5" type="line"/>
      <point x="191.5" y="516" type="line"/>
      <point x="317" y="250" type="line"/>
      <point x="108.5" y="-4" type="line"/>
      <point x="11" y="69" type="line"/>
    </contour>
    <contour>
      <point x="402" y="255" type="line"/>
      <point x="288.5" y="448.5" type="line"/>
      <point x="402.5" y="516" type="line"/>
      <point x="528.5" y="250" type="line"/>
      <point x="320" y="-4" type="line"/>
      <point x="222" y="69" type="line"/>
    </contour>
  </outline>
</glyph>
<glyph name="onequarter" format="2">
  <advance width="818"/>
  <unicode hex="00BC"/>
  <outline>
    <contour>
      <point x="704" y="699" type="line"/>
      <point x="816" y="699" type="line"/>
      <point x="191" y="0" type="line"/>
      <point x="80" y="0" type="line"/>
    </contour>
    <contour>
      <point x="88" y="559" type="line"/>
      <point x="106" y="660" type="line"/>
      <point x="331" y="704" type="line"/>
      <point x="256" y="274" type="line"/>
      <point x="143" y="274" type="line"/>
      <point x="196" y="584" type="line"/>
    </contour>
    <contour>
      <point x="378" y="72" type="line"/>
      <point x="485" y="153" type="line"/>
      <point x="666" y="154" type="line"/>
      <point x="680" y="171" type="line"/>
      <point x="796" y="171" type="line"/>
      <point x="778" y="72" type="line"/>
    </contour>
    <contour>
      <point x="507" y="111" type="line"/>
      <point x="373" y="68" type="line"/>
      <point x="678" y="419" type="line"/>
      <point x="774" y="420" type="line"/>
      <point x="702" y="0" type="line"/>
      <point x="579" y="0" type="line"/>
      <point x="595" y="93" type="line"/>
      <point x="611" y="99" type="line"/>
      <point x="637" y="254" type="line"/>
    </contour>
  </outline>
</glyph>
<glyph name="onehalf" format="2">
  <advance width="890"/>
  <unicode hex="00BD"/>
  <outline>
    <contour>
      <point x="704" y="699" type="line"/>
      <point x="816" y="699" type="line"/>
      <point x="191" y="0" type="line"/>
      <point x="80" y="0" type="line"/>
    </contour>
    <contour>
      <point x="88" y="559" type="line"/>
      <point x="106" y="660" type="line"/>
      <point x="331" y="704" type="line"/>
      <point x="256" y="274" type="line"/>
      <point x="143" y="274" type="line"/>
      <point x="196" y="584" type="line"/>
    </contour>
    <contour>
      <point x="463" y="3" type="line"/>
      <point x="674" y="190" type="line" smooth="yes"/>
      <point x="707" y="221"/>
      <point x="745" y="249"/>
      <point x="751" y="286" type="curve" smooth="yes"/>
      <point x="753" y="308"/>
      <point x="742" y="330"/>
      <point x="714" y="331" type="curve" smooth="yes"/>
      <point x="678" y="333"/>
      <point x="654" y="296"/>
      <point x="646" y="263" type="curve"/>
      <point x="530" y="264" type="line"/>
      <point x="548" y="353"/>
      <point x="616" y="431"/>
      <point x="726" y="431" type="curve" smooth="yes"/>
      <point x="819" y="431"/>
      <point x="882" y="368"/>
      <point x="870" y="293" type="curve" smooth="yes"/>
      <point x="863" y="247"/>
      <point x="833" y="210"/>
      <point x="795" y="182" type="curve" smooth="yes"/>
      <point x="699" y="110" type="line"/>
      <point x="852" y="109" type="line"/>
      <point x="833" y="2" type="line"/>
    </contour>
  </outline>
</glyph>
<glyph name="threequarters" format="2">
  <advance width="870"/>
  <unicode hex="00BE"/>
  <outline>
    <contour>
      <point x="765" y="699" type="line"/>
      <point x="877" y="699" type="line"/>
      <point x="252" y="0" type="line"/>
      <point x="141" y="0" type="line"/>
    </contour>
    <contour>
      <point x="218" y="483" type="curve"/>
      <point x="225" y="531" type="line"/>
      <point x="262" y="534"/>
      <point x="304" y="552"/>
      <point x="309" y="584" type="curve" smooth="yes"/>
      <point x="311" y="602"/>
      <point x="298" y="616"/>
      <point x="276" y="616" type="curve" smooth="yes"/>
      <point x="247" y="616"/>
      <point x="228" y="595"/>
      <point x="220" y="572" type="curve"/>
      <point x="111" y="573" type="line"/>
      <point x="129" y="650"/>
      <point x="192" y="707"/>
      <point x="284" y="708" type="curve" smooth="yes"/>
      <point x="369" y="708"/>
      <point x="435" y="661"/>
      <point x="423" y="589" type="curve" smooth="yes"/>
      <point x="410" y="506"/>
      <point x="310" y="485"/>
    </contour>
    <contour>
      <point x="213" y="269" type="curve" smooth="yes"/>
      <point x="113" y="270"/>
      <point x="61" y="339"/>
      <point x="66" y="421" type="curve"/>
      <point x="179" y="420" type="line"/>
      <point x="179" y="386"/>
      <point x="191" y="364"/>
      <point x="224" y="362" type="curve" smooth="yes"/>
      <point x="252" y="361"/>
      <point x="284" y="379"/>
      <point x="288" y="408" type="curve" smooth="yes"/>
      <point x="295" y="444"/>
      <point x="258" y="459"/>
      <point x="212" y="461" type="curve"/>
      <point x="221" y="516" type="line"/>
      <point x="318" y="514"/>
      <point x="415" y="488"/>
      <point x="401" y="395" type="curve" smooth="yes"/>
      <point x="390" y="317"/>
      <point x="309" y="268"/>
    </contour>
    <contour>
      <point x="430" y="72" type="line"/>
      <point x="538" y="153" type="line"/>
      <point x="719" y="154" type="line"/>
      <point x="732" y="171" type="line"/>
      <point x="849" y="171" type="line"/>
      <point x="831" y="72" type="line"/>
    </contour>
    <contour>
      <point x="561" y="111" type="line"/>
      <point x="426" y="68" type="line"/>
      <point x="732" y="419" type="line"/>
      <point x="828" y="420" type="line"/>
      <point x="754" y="0" type="line"/>
      <point x="633" y="0" type="line"/>
      <point x="648" y="93" type="line"/>
      <point x="664" y="99" type="line"/>
      <point x="690" y="254" type="line"/>
    </contour>
  </outline>
</glyph>
<glyph name="questiondown" format="1">
  <advance width="629"/>
  <unicode hex="00BF"/>
  <outline>
    <contour>
      <point x="228.5" y="199.5" type="curve" smooth="yes"/>
      <point x="221" y="151.5"/>
      <point x="254" y="124.5"/>
      <point x="309" y="123.5" type="curve" smooth="yes"/>
      <point x="373" y="121.5"/>
      <point x="437" y="161"/>
      <point x="481.5" y="211" type="curve"/>
      <point x="581.5" y="110" type="line"/>
      <point x="498.5" y="31.5"/>
      <point x="402" y="-23"/>
      <point x="284.5" y="-22.5" type="curve" smooth="yes"/>
      <point x="155.5" y="-22"/>
      <point x="36.5" y="62.5"/>
      <point x="56" y="200.5" type="curve" smooth="yes"/>
      <point x="74" y="323.5"/>
      <point x="188" y="390.5"/>
      <point x="298" y="416.5" type="curve"/>
      <point x="315" y="489" type="line"/>
      <point x="459" y="489" type="line"/>
      <point x="449" y="309.5" type="line"/>
      <point x="417.5" y="309.5" type="line"/>
      <point x="322.5" y="308"/>
      <point x="241" y="259.5"/>
    </contour>
    <contour>
      <point x="518" y="634.5" type="curve" smooth="yes"/>
      <point x="511" y="585"/>
      <point x="457.5" y="543.5"/>
      <point x="401" y="543.5" type="curve" smooth="yes"/>
      <point x="344" y="543.5"/>
      <point x="301" y="586"/>
      <point x="308" y="636.5" type="curve" smooth="yes"/>
      <point x="315" y="686"/>
      <point x="368" y="727"/>
      <point x="424.5" y="727" type="curve" smooth="yes"/>
      <point x="481.5" y="727"/>
      <point x="525" y="685"/>
    </contour>
  </outline>
</glyph>
<glyph name="Agrave" format="1">
  <advance width="736"/>
  <unicode hex="00C0"/>
  <outline>
    <contour>
      <point x="180.5" y="111" type="line"/>
      <point x="211.5" y="255" type="line"/>
      <point x="563.5" y="255.5" type="line"/>
      <point x="543" y="111" type="line"/>
    </contour>
    <contour>
      <point x="414" y="409.5" type="line"/>
      <point x="288.5" y="202" type="line"/>
      <point x="294" y="157" type="line"/>
      <point x="190" y="0" type="line"/>
      <point x="-34.5" y="0" type="line"/>
      <point x="467.5" y="749.5" type="line"/>
      <point x="711.5" y="0" type="line"/>
      <point x="497.5" y="0" type="line"/>
      <point x="444.5" y="151" type="line"/>
      <point x="465" y="201" type="line"/>
    </contour>
    <contour>
      <point x="339" y="960" type="line"/>
      <point x="470" y="1014.5" type="line"/>
      <point x="591" y="851" type="line"/>
      <point x="491.5" y="807.5" type="line"/>
    </contour>
  </outline>
</glyph>
<glyph name="Aacute" format="1">
  <advance width="736"/>
  <unicode hex="00C1"/>
  <outline>
    <contour>
      <point x="180.5" y="111" type="line"/>
      <point x="211.5" y="255" type="line"/>
      <point x="563.5" y="255.5" type="line"/>
      <point x="543" y="111" type="line"/>
    </contour>
    <contour>
      <point x="414" y="409.5" type="line"/>
      <point x="288.5" y="202" type="line"/>
      <point x="294" y="157" type="line"/>
      <point x="190" y="0" type="line"/>
      <point x="-34.5" y="0" type="line"/>
      <point x="467.5" y="749.5" type="line"/>
      <point x="711.5" y="0" type="line"/>
      <point x="497.5" y="0" type="line"/>
      <point x="444.5" y="151" type="line"/>
      <point x="465" y="201" type="line"/>
    </contour>
    <contour>
      <point x="668.5" y="954" type="line"/>
      <point x="471.5" y="808" type="line"/>
      <point x="378" y="857.5" type="line"/>
      <point x="547.5" y="1013.5" type="line"/>
    </contour>
  </outline>
</glyph>
<glyph name="Acircumflex" format="2">
  <advance width="735"/>
  <unicode hex="00C2"/>
  <outline>
    <contour>
      <point x="181" y="111" type="line"/>
      <point x="211" y="255" type="line"/>
      <point x="563" y="255" type="line"/>
      <point x="543" y="111" type="line"/>
    </contour>
    <contour>
      <point x="414" y="410" type="line"/>
      <point x="289" y="202" type="line"/>
      <point x="294" y="157" type="line"/>
      <point x="189" y="0" type="line"/>
      <point x="-34" y="0" type="line"/>
      <point x="467" y="750" type="line"/>
      <point x="712" y="0" type="line"/>
      <point x="498" y="0" type="line"/>
      <point x="445" y="151" type="line"/>
      <point x="465" y="201" type="line"/>
    </contour>
    <contour>
      <point x="496" y="882" type="line"/>
      <point x="399" y="800" type="line"/>
      <point x="288" y="885" type="line"/>
      <point x="511" y="1022" type="line"/>
      <point x="695" y="878" type="line"/>
      <point x="564" y="799" type="line"/>
    </contour>
  </outline>
</glyph>
<glyph name="Atilde" format="1">
  <advance width="736"/>
  <unicode hex="00C3"/>
  <outline>
    <contour>
      <point x="180.5" y="111" type="line"/>
      <point x="211.5" y="255" type="line"/>
      <point x="563.5" y="255.5" type="line"/>
      <point x="543" y="111" type="line"/>
    </contour>
    <contour>
      <point x="414" y="409.5" type="line"/>
      <point x="288.5" y="202" type="line"/>
      <point x="294" y="157" type="line"/>
      <point x="190" y="0" type="line"/>
      <point x="-34.5" y="0" type="line"/>
      <point x="467.5" y="749.5" type="line"/>
      <point x="711.5" y="0" type="line"/>
      <point x="497.5" y="0" type="line"/>
      <point x="444.5" y="151" type="line"/>
      <point x="465" y="201" type="line"/>
    </contour>
    <contour>
      <point x="290" y="881" type="line"/>
      <point x="311" y="929"/>
      <point x="358.5" y="978.5"/>
      <point x="424.5" y="977" type="curve" smooth="yes"/>
      <point x="479.5" y="976"/>
      <point x="501" y="923"/>
      <point x="551.5" y="924.5" type="curve" smooth="yes"/>
      <point x="582" y="925.5"/>
      <point x="606" y="952"/>
      <point x="628" y="978.5" type="curve"/>
      <point x="695.5" y="892.5" type="line"/>
      <point x="668.5" y="853.5"/>
      <point x="609" y="802.5"/>
      <point x="545.5" y="805" type="curve" smooth="yes"/>
      <point x="496" y="807"/>
      <point x="461" y="862.5"/>
      <point x="413.5" y="859" type="curve" smooth="yes"/>
      <point x="380.5" y="856.5"/>
      <point x="366.5" y="827"/>
      <point x="358" y="809" type="curve"/>
    </contour>
  </outline>
</glyph>
<glyph name="Adieresis" format="1">
  <advance width="736"/>
  <unicode hex="00C4"/>
  <outline>
    <contour>
      <point x="180.5" y="111" type="line"/>
      <point x="211.5" y="255" type="line"/>
      <point x="563.5" y="255.5" type="line"/>
      <point x="543" y="111" type="line"/>
    </contour>
    <contour>
      <point x="414" y="409.5" type="line"/>
      <point x="288.5" y="202" type="line"/>
      <point x="294" y="157" type="line"/>
      <point x="190" y="0" type="line"/>
      <point x="-34.5" y="0" type="line"/>
      <point x="467.5" y="749.5" type="line"/>
      <point x="711.5" y="0" type="line"/>
      <point x="497.5" y="0" type="line"/>
      <point x="444.5" y="151" type="line"/>
      <point x="465" y="201" type="line"/>
    </contour>
    <contour>
      <point x="534" y="825" type="curve" smooth="yes"/>
      <point x="541" y="876.5"/>
      <point x="591" y="913.5"/>
      <point x="643" y="913.5" type="curve" smooth="yes"/>
      <point x="695.5" y="913.5"/>
      <point x="735" y="874.5"/>
      <point x="728" y="822" type="curve" smooth="yes"/>
      <point x="721" y="770.5"/>
      <point x="671.5" y="733.5"/>
      <point x="619.5" y="733.5" type="curve" smooth="yes"/>
      <point x="567" y="733.5"/>
      <point x="527" y="772.5"/>
    </contour>
    <contour>
      <point x="229" y="833" type="curve" smooth="yes"/>
      <point x="236" y="884.5"/>
      <point x="286" y="922"/>
      <point x="338" y="922" type="curve" smooth="yes"/>
      <point x="390.5" y="922"/>
      <point x="430" y="883"/>
      <point x="423" y="830.5" type="curve" smooth="yes"/>
      <point x="416" y="779"/>
      <point x="366.5" y="741.5"/>
      <point x="314.5" y="741.5" type="curve" smooth="yes"/>
      <point x="262" y="741.5"/>
      <point x="222" y="780.5"/>
    </contour>
  </outline>
</glyph>
<glyph name="Aring" format="1">
  <advance width="736"/>
  <unicode hex="00C5"/>
  <outline>
    <contour>
      <point x="180.5" y="111" type="line"/>
      <point x="211.5" y="255" type="line"/>
      <point x="563.5" y="255.5" type="line"/>
      <point x="543" y="111" type="line"/>
    </contour>
    <contour>
      <point x="414" y="409.5" type="line"/>
      <point x="288.5" y="202" type="line"/>
      <point x="294" y="157" type="line"/>
      <point x="190" y="0" type="line"/>
      <point x="-34.5" y="0" type="line"/>
      <point x="467.5" y="749.5" type="line"/>
      <point x="711.5" y="0" type="line"/>
      <point x="497.5" y="0" type="line"/>
      <point x="444.5" y="151" type="line"/>
      <point x="465" y="201" type="line"/>
    </contour>
    <contour>
      <point x="348" y="802" type="curve" smooth="yes"/>
      <point x="357" y="871"/>
      <point x="422.5" y="922"/>
      <point x="493.5" y="922" type="curve" smooth="yes"/>
      <point x="564.5" y="922"/>
      <point x="617" y="870"/>
      <point x="607.5" y="800" type="curve" smooth="yes"/>
      <point x="598.5" y="730.5"/>
      <point x="532.5" y="681"/>
      <point x="461" y="681" type="curve" smooth="yes"/>
      <point x="390" y="681"/>
      <point x="338.5" y="732.5"/>
    </contour>
    <contour>
      <point x="434.5" y="800.5" type="curve" smooth="yes"/>
      <point x="432" y="778"/>
      <point x="444" y="757.5"/>
      <point x="466.5" y="756.5" type="curve" smooth="yes"/>
      <point x="490" y="755.5"/>
      <point x="517.5" y="778"/>
      <point x="521" y="802" type="curve" smooth="yes"/>
      <point x="523.5" y="824.5"/>
      <point x="510.5" y="846.5"/>
      <point x="488" y="847.5" type="curve" smooth="yes"/>
      <point x="464.5" y="848.5"/>
      <point x="438" y="824.5"/>
    </contour>
  </outline>
</glyph>
<glyph name="AE" format="1">
  <advance width="1091"/>
  <unicode hex="00C6"/>
  <outline>
    <contour>
      <point x="271.5" y="131.5" type="line"/>
      <point x="311.5" y="310.5" type="line"/>
      <point x="606" y="310.5" type="line"/>
      <point x="574" y="131.5" type="line"/>
    </contour>
    <contour>
      <point x="522.5" y="700" type="line"/>
      <point x="702" y="658" type="line"/>
      <point x="238" y="0" type="line"/>
      <point x="-14.5" y="0" type="line"/>
    </contour>
    <contour>
      <point x="612.5" y="0" type="line"/>
      <point x="640" y="158.5" type="line"/>
      <point x="1026.5" y="158.5" type="line"/>
      <point x="998.5" y="0" type="line"/>
    </contour>
    <contour>
      <point x="718.5" y="541.5" type="line"/>
      <point x="522.5" y="700" type="line"/>
      <point x="1118.5" y="700" type="line"/>
      <point x="1090.5" y="541.5" type="line"/>
    </contour>
    <contour>
      <point x="661" y="286.5" type="line"/>
      <point x="688.5" y="440.5" type="line"/>
      <point x="1055" y="440.5" type="line"/>
      <point x="1027.5" y="286.5" type="line"/>
    </contour>
    <contour>
      <point x="642.5" y="700" type="line"/>
      <point x="853" y="700" type="line"/>
      <point x="733" y="0" type="line"/>
      <point x="523" y="0" type="line"/>
    </contour>
  </outline>
</glyph>
<glyph name="Ccedilla" format="1">
  <advance width="684"/>
  <unicode hex="00C7"/>
  <outline>
    <contour>
      <point x="273.5" y="350" type="curve" smooth="yes"/>
      <point x="256" y="245.5"/>
      <point x="320" y="170"/>
      <point x="424.5" y="168.5" type="curve" smooth="yes"/>
      <point x="516" y="167.5"/>
      <point x="584" y="211"/>
      <point x="640.5" y="255.5" type="curve"/>
      <point x="609.5" y="50.5" type="line"/>
      <point x="547.5" y="10.5"/>
      <point x="481" y="-18"/>
      <point x="390" y="-18" type="curve" smooth="yes"/>
      <point x="167.5" y="-18"/>
      <point x="31" y="141"/>
      <point x="62" y="350" type="curve" smooth="yes"/>
      <point x="94.5" y="565"/>
      <point x="277" y="718.5"/>
      <point x="504.5" y="718" type="curve" smooth="yes"/>
      <point x="592" y="718"/>
      <point x="652" y="691.5"/>
      <point x="708.5" y="649" type="curve"/>
      <point x="677" y="443.5" type="line"/>
      <point x="635.5" y="494"/>
      <point x="581" y="531.5"/>
      <point x="496.5" y="531.5" type="curve" smooth="yes"/>
      <point x="389.5" y="531"/>
      <point x="292.5" y="459"/>
    </contour>
    <contour>
      <point x="317.5" y="44" type="line"/>
      <point x="446.5" y="39" type="line"/>
      <point x="330" y="-85.5" type="line"/>
      <point x="342.5" y="-82"/>
      <point x="357" y="-81"/>
      <point x="371" y="-81.5" type="curve" smooth="yes"/>
      <point x="420" y="-83.5"/>
      <point x="460.5" y="-125.5"/>
      <point x="453" y="-187" type="curve" smooth="yes"/>
      <point x="443" y="-259.5"/>
      <point x="369.5" y="-297.5"/>
      <point x="303" y="-299" type="curve" smooth="yes"/>
      <point x="244.5" y="-300.5"/>
      <point x="196" y="-286.5"/>
      <point x="146" y="-258.5" type="curve"/>
      <point x="205" y="-183" type="line"/>
      <point x="229.5" y="-199"/>
      <point x="261.5" y="-208.5"/>
      <point x="284" y="-208" type="curve" smooth="yes"/>
      <point x="310" y="-207.5"/>
      <point x="345.5" y="-196"/>
      <point x="347" y="-172.5" type="curve" smooth="yes"/>
      <point x="348.5" y="-148.5"/>
      <point x="315.5" y="-143.5"/>
      <point x="294" y="-143" type="curve" smooth="yes"/>
      <point x="273" y="-142"/>
      <point x="236" y="-147.5"/>
      <point x="200.5" y="-157.5" type="curve"/>
    </contour>
  </outline>
</glyph>
<glyph name="Egrave" format="1">
  <advance width="601"/>
  <unicode hex="00C8"/>
  <outline>
    <contour>
      <point x="170.5" y="0" type="line"/>
      <point x="198.5" y="158.5" type="line"/>
      <point x="544.5" y="158.5" type="line"/>
      <point x="516" y="0" type="line"/>
    </contour>
    <contour>
      <point x="263" y="541.5" type="line"/>
      <point x="291" y="700" type="line"/>
      <point x="636.5" y="700" type="line"/>
      <point x="608.5" y="541.5" type="line"/>
    </contour>
    <contour>
      <point x="219" y="286.5" type="line"/>
      <point x="246.5" y="440.5" type="line"/>
      <point x="573" y="440.5" type="line"/>
      <point x="545.5" y="286.5" type="line"/>
    </contour>
    <contour>
      <point x="160.5" y="700" type="line"/>
      <point x="346.5" y="700" type="line"/>
      <point x="226.5" y="0" type="line"/>
      <point x="41" y="0" type="line"/>
    </contour>
    <contour>
      <point x="273" y="939" type="line"/>
      <point x="403" y="993.5" type="line"/>
      <point x="524" y="830" type="line"/>
      <point x="425.5" y="786.5" type="line"/>
    </contour>
  </outline>
</glyph>
<glyph name="Eacute" format="1">
  <advance width="601"/>
  <unicode hex="00C9"/>
  <outline>
    <contour>
      <point x="170.5" y="0" type="line"/>
      <point x="198.5" y="158.5" type="line"/>
      <point x="544.5" y="158.5" type="line"/>
      <point x="516" y="0" type="line"/>
    </contour>
    <contour>
      <point x="263" y="541.5" type="line"/>
      <point x="291" y="700" type="line"/>
      <point x="636.5" y="700" type="line"/>
      <point x="608.5" y="541.5" type="line"/>
    </contour>
    <contour>
      <point x="219" y="286.5" type="line"/>
      <point x="246.5" y="440.5" type="line"/>
      <point x="573" y="440.5" type="line"/>
      <point x="545.5" y="286.5" type="line"/>
    </contour>
    <contour>
      <point x="160.5" y="700" type="line"/>
      <point x="346.5" y="700" type="line"/>
      <point x="226.5" y="0" type="line"/>
      <point x="41" y="0" type="line"/>
    </contour>
    <contour>
      <point x="603" y="933" type="line"/>
      <point x="406" y="787" type="line"/>
      <point x="312" y="836" type="line"/>
      <point x="482" y="992" type="line"/>
    </contour>
  </outline>
</glyph>
<glyph name="Ecircumflex" format="1">
  <advance width="601"/>
  <unicode hex="00CA"/>
  <outline>
    <contour>
      <point x="170.5" y="0" type="line"/>
      <point x="198.5" y="158.5" type="line"/>
      <point x="544.5" y="158.5" type="line"/>
      <point x="516" y="0" type="line"/>
    </contour>
    <contour>
      <point x="263" y="541.5" type="line"/>
      <point x="291" y="700" type="line"/>
      <point x="636.5" y="700" type="line"/>
      <point x="608.5" y="541.5" type="line"/>
    </contour>
    <contour>
      <point x="219" y="286.5" type="line"/>
      <point x="246.5" y="440.5" type="line"/>
      <point x="573" y="440.5" type="line"/>
      <point x="545.5" y="286.5" type="line"/>
    </contour>
    <contour>
      <point x="160.5" y="700" type="line"/>
      <point x="346.5" y="700" type="line"/>
      <point x="226.5" y="0" type="line"/>
      <point x="41" y="0" type="line"/>
    </contour>
    <contour>
      <point x="437" y="889.5" type="line"/>
      <point x="312.5" y="795" type="line"/>
      <point x="266.5" y="837.5" type="line"/>
      <point x="442.5" y="975" type="line"/>
      <point x="579" y="832.5" type="line"/>
      <point x="527" y="795" type="line"/>
    </contour>
  </outline>
</glyph>
<glyph name="Edieresis" format="2">
  <advance width="600"/>
  <unicode hex="00CB"/>
  <outline>
    <contour>
      <point x="170" y="0" type="line"/>
      <point x="198" y="158" type="line"/>
      <point x="544" y="158" type="line"/>
      <point x="516" y="0" type="line"/>
    </contour>
    <contour>
      <point x="263" y="542" type="line"/>
      <point x="290" y="700" type="line"/>
      <point x="636" y="700" type="line"/>
      <point x="609" y="542" type="line"/>
    </contour>
    <contour>
      <point x="219" y="287" type="line"/>
      <point x="246" y="441" type="line"/>
      <point x="572" y="441" type="line"/>
      <point x="545" y="287" type="line"/>
    </contour>
    <contour>
      <point x="160" y="700" type="line"/>
      <point x="346" y="700" type="line"/>
      <point x="226" y="0" type="line"/>
      <point x="41" y="0" type="line"/>
    </contour>
    <contour>
      <point x="458" y="874" type="curve" smooth="yes"/>
      <point x="465" y="925"/>
      <point x="514" y="962"/>
      <point x="566" y="962" type="curve" smooth="yes"/>
      <point x="618" y="962"/>
      <point x="658" y="922"/>
      <point x="651" y="870" type="curve" smooth="yes"/>
      <point x="644" y="819"/>
      <point x="595" y="782"/>
      <point x="543" y="782" type="curve" smooth="yes"/>
      <point x="491" y="782"/>
      <point x="451" y="822"/>
    </contour>
    <contour>
      <point x="208" y="874" type="curve" smooth="yes"/>
      <point x="215" y="925"/>
      <point x="264" y="962"/>
      <point x="316" y="962" type="curve" smooth="yes"/>
      <point x="368" y="962"/>
      <point x="408" y="922"/>
      <point x="401" y="870" type="curve" smooth="yes"/>
      <point x="394" y="819"/>
      <point x="345" y="782"/>
      <point x="293" y="782" type="curve" smooth="yes"/>
      <point x="241" y="782"/>
      <point x="201" y="822"/>
    </contour>
  </outline>
</glyph>
<glyph name="Igrave" format="1">
  <advance width="333"/>
  <unicode hex="00CC"/>
  <outline>
    <contour>
      <point x="160.5" y="700" type="line"/>
      <point x="358.5" y="700" type="line"/>
      <point x="238.5" y="0" type="line"/>
      <point x="41" y="0" type="line"/>
    </contour>
    <contour>
      <point x="125.5" y="939" type="line"/>
      <point x="256.5" y="993.5" type="line"/>
      <point x="377.5" y="830" type="line"/>
      <point x="278" y="786.5" type="line"/>
    </contour>
  </outline>
</glyph>
<glyph name="Iacute" format="1">
  <advance width="333"/>
  <unicode hex="00CD"/>
  <outline>
    <contour>
      <point x="160.5" y="700" type="line"/>
      <point x="358.5" y="700" type="line"/>
      <point x="238.5" y="0" type="line"/>
      <point x="41" y="0" type="line"/>
    </contour>
    <contour>
      <point x="456" y="933" type="line"/>
      <point x="259" y="787" type="line"/>
      <point x="165" y="836" type="line"/>
      <point x="334.5" y="992" type="line"/>
    </contour>
  </outline>
</glyph>
<glyph name="Icircumflex" format="1">
  <advance width="333"/>
  <unicode hex="00CE"/>
  <outline>
    <contour>
      <point x="160.5" y="700" type="line"/>
      <point x="358.5" y="700" type="line"/>
      <point x="238.5" y="0" type="line"/>
      <point x="41" y="0" type="line"/>
    </contour>
    <contour>
      <point x="287.5" y="889.5" type="line"/>
      <point x="163.5" y="795" type="line"/>
      <point x="117.5" y="837.5" type="line"/>
      <point x="294" y="975" type="line"/>
      <point x="430" y="832.5" type="line"/>
      <point x="378" y="795" type="line"/>
    </contour>
  </outline>
</glyph>
<glyph name="Idieresis" format="1">
  <advance width="333"/>
  <unicode hex="00CF"/>
  <outline>
    <contour>
      <point x="160.5" y="700" type="line"/>
      <point x="358.5" y="700" type="line"/>
      <point x="238.5" y="0" type="line"/>
      <point x="41" y="0" type="line"/>
    </contour>
    <contour>
      <point x="317" y="870.5" type="curve" smooth="yes"/>
      <point x="324" y="921.5"/>
      <point x="374" y="959"/>
      <point x="426" y="959" type="curve" smooth="yes"/>
      <point x="478.5" y="959"/>
      <point x="518" y="920"/>
      <point x="511" y="867.5" type="curve" smooth="yes"/>
      <point x="504" y="816"/>
      <point x="454" y="778.5"/>
      <point x="402" y="778.5" type="curve" smooth="yes"/>
      <point x="349.5" y="778.5"/>
      <point x="310" y="818.5"/>
    </contour>
    <contour>
      <point x="67" y="870.5" type="curve" smooth="yes"/>
      <point x="74" y="921.5"/>
      <point x="123" y="959"/>
      <point x="175" y="959" type="curve" smooth="yes"/>
      <point x="227.5" y="959"/>
      <point x="268" y="920"/>
      <point x="261" y="867.5" type="curve" smooth="yes"/>
      <point x="254" y="816"/>
      <point x="204" y="778.5"/>
      <point x="152" y="778.5" type="curve" smooth="yes"/>
      <point x="99.5" y="778.5"/>
      <point x="60" y="818.5"/>
    </contour>
  </outline>
</glyph>
<glyph name="Eth" format="2">
  <advance width="726"/>
  <unicode hex="00D0"/>
  <outline>
    <contour>
      <point x="28" y="300" type="line"/>
      <point x="48" y="408" type="line"/>
      <point x="405" y="408" type="line"/>
      <point x="386" y="300" type="line"/>
    </contour>
    <contour>
      <point x="160" y="700" type="line"/>
      <point x="362" y="700" type="line"/>
      <point x="242" y="0" type="line"/>
      <point x="41" y="0" type="line"/>
    </contour>
    <contour>
      <point x="304" y="0" type="curve"/>
      <point x="170" y="0" type="line"/>
      <point x="201" y="172" type="line"/>
      <point x="314" y="172" type="line"/>
      <point x="417" y="174"/>
      <point x="510" y="224"/>
      <point x="530" y="350" type="curve" smooth="yes"/>
      <point x="549" y="471"/>
      <point x="485" y="525"/>
      <point x="385" y="528" type="curve"/>
      <point x="260" y="528" type="line"/>
      <point x="290" y="700" type="line"/>
      <point x="412" y="700" type="line"/>
      <point x="632" y="697"/>
      <point x="762" y="557"/>
      <point x="731" y="350" type="curve" smooth="yes"/>
      <point x="699" y="137"/>
      <point x="530" y="3"/>
    </contour>
  </outline>
</glyph>
<glyph name="Ntilde" format="1">
  <advance width="775"/>
  <unicode hex="00D1"/>
  <outline>
    <contour>
      <point x="615" y="700" type="line"/>
      <point x="801" y="700" type="line"/>
      <point x="676" y="-33" type="line"/>
      <point x="287" y="350.829" type="line"/>
      <point x="226.5" y="0" type="line"/>
      <point x="41" y="0" type="line"/>
      <point x="166" y="733" type="line"/>
      <point x="554" y="348.988" type="line"/>
    </contour>
    <contour>
      <point x="268.5" y="850" type="line"/>
      <point x="289.5" y="898"/>
      <point x="336" y="948"/>
      <point x="402" y="946.5" type="curve" smooth="yes"/>
      <point x="457" y="945.5"/>
      <point x="478.5" y="892.5"/>
      <point x="529" y="894" type="curve" smooth="yes"/>
      <point x="559.5" y="895"/>
      <point x="584" y="921"/>
      <point x="606" y="947.5" type="curve"/>
      <point x="673" y="861.5" type="line"/>
      <point x="646" y="822.5"/>
      <point x="586.5" y="772"/>
      <point x="523" y="774.5" type="curve" smooth="yes"/>
      <point x="473.5" y="776.5"/>
      <point x="438.5" y="831.5"/>
      <point x="391" y="828" type="curve" smooth="yes"/>
      <point x="358" y="825.5"/>
      <point x="345" y="796"/>
      <point x="336.5" y="778" type="curve"/>
    </contour>
  </outline>
</glyph>
<glyph name="Otilde" format="1">
  <advance width="806"/>
  <unicode hex="00D5"/>
  <outline>
    <contour>
      <point x="266.5" y="350" type="curve" smooth="yes"/>
      <point x="251.5" y="252.5"/>
      <point x="291.5" y="162"/>
      <point x="398.5" y="160.5" type="curve" smooth="yes"/>
      <point x="506.5" y="159"/>
      <point x="587.5" y="246"/>
      <point x="605.5" y="350" type="curve" smooth="yes"/>
      <point x="621" y="448"/>
      <point x="583" y="538.5"/>
      <point x="473.5" y="539.5" type="curve" smooth="yes"/>
      <point x="365.5" y="540.5"/>
      <point x="284.5" y="454"/>
    </contour>
    <contour>
      <point x="62" y="350" type="curve" smooth="yes"/>
      <point x="94" y="561"/>
      <point x="277" y="718"/>
      <point x="493" y="718" type="curve" smooth="yes"/>
      <point x="707" y="718"/>
      <point x="839.5" y="555"/>
      <point x="810" y="350" type="curve" smooth="yes"/>
      <point x="778" y="138"/>
      <point x="598.5" y="-27"/>
      <point x="377" y="-26.5" type="curve" smooth="yes"/>
      <point x="159" y="-26"/>
      <point x="32.5" y="145"/>
    </contour>
    <contour>
      <point x="365" y="855" type="line"/>
      <point x="365" y="899"/>
      <point x="439" y="935"/>
      <point x="475.5" y="934.5" type="curve" smooth="yes"/>
      <point x="527.5" y="934"/>
      <point x="541.5" y="888"/>
      <point x="588" y="889.5" type="curve" smooth="yes"/>
      <point x="611.5" y="890.5"/>
      <point x="632" y="912"/>
      <point x="652" y="936.5" type="curve"/>
      <point x="694" y="891" type="line"/>
      <point x="672" y="857"/>
      <point x="630.5" y="819"/>
      <point x="582.5" y="821" type="curve" smooth="yes"/>
      <point x="536" y="822.5"/>
      <point x="515.5" y="867.5"/>
      <point x="474" y="866.5" type="curve" smooth="yes"/>
      <point x="438.5" y="865.5"/>
      <point x="423" y="834.5"/>
      <point x="414.5" y="816.5" type="curve"/>
    </contour>
  </outline>
</glyph>
<glyph name="Odieresis" format="2">
  <advance width="805"/>
  <unicode hex="00D6"/>
  <outline>
    <contour>
      <point x="266" y="350" type="curve" smooth="yes"/>
      <point x="251" y="253"/>
      <point x="291" y="161"/>
      <point x="398" y="160" type="curve" smooth="yes"/>
      <point x="506" y="159"/>
      <point x="588" y="246"/>
      <point x="606" y="350" type="curve" smooth="yes"/>
      <point x="622" y="448"/>
      <point x="584" y="539"/>
      <point x="474" y="540" type="curve" smooth="yes"/>
      <point x="366" y="541"/>
      <point x="284" y="454"/>
    </contour>
    <contour>
      <point x="62" y="350" type="curve" smooth="yes"/>
      <point x="94" y="561"/>
      <point x="277" y="718"/>
      <point x="493" y="718" type="curve" smooth="yes"/>
      <point x="707" y="718"/>
      <point x="840" y="555"/>
      <point x="810" y="350" type="curve" smooth="yes"/>
      <point x="778" y="138"/>
      <point x="599" y="-27"/>
      <point x="377" y="-27" type="curve" smooth="yes"/>
      <point x="159" y="-27"/>
      <point x="32" y="145"/>
    </contour>
    <contour>
      <point x="553" y="870" type="curve" smooth="yes"/>
      <point x="560" y="921"/>
      <point x="610" y="958"/>
      <point x="662" y="958" type="curve" smooth="yes"/>
      <point x="714" y="958"/>
      <point x="754" y="919"/>
      <point x="747" y="867" type="curve" smooth="yes"/>
      <point x="740" y="816"/>
      <point x="690" y="779"/>
      <point x="638" y="779" type="curve" smooth="yes"/>
      <point x="586" y="779"/>
      <point x="546" y="818"/>
    </contour>
    <contour>
      <point x="303" y="870" type="curve" smooth="yes"/>
      <point x="310" y="921"/>
      <point x="359" y="958"/>
      <point x="411" y="958" type="curve" smooth="yes"/>
      <point x="463" y="958"/>
      <point x="504" y="919"/>
      <point x="497" y="867" type="curve" smooth="yes"/>
      <point x="490" y="816"/>
      <point x="440" y="779"/>
      <point x="388" y="779" type="curve" smooth="yes"/>
      <point x="336" y="779"/>
      <point x="296" y="818"/>
    </contour>
  </outline>
</glyph>
<glyph name="multiply" format="2">
  <advance width="578"/>
  <unicode hex="00D7"/>
  <outline>
    <contour>
      <point x="117" y="-3" type="line"/>
      <point x="30" y="107" type="line"/>
      <point x="208" y="259" type="line"/>
      <point x="82" y="412" type="line"/>
      <point x="198" y="514" type="line"/>
      <point x="320" y="358" type="line"/>
      <point x="494" y="513" type="line"/>
      <point x="582" y="403" type="line"/>
      <point x="403" y="251" type="line"/>
      <point x="530" y="98" type="line"/>
      <point x="413" y="-4" type="line"/>
      <point x="292" y="152" type="line"/>
    </contour>
  </outline>
</glyph>
<glyph name="Oslash" format="2">
  <advance width="766"/>
  <unicode hex="00D8"/>
  <outline>
    <contour>
      <point x="266" y="350" type="curve" smooth="yes"/>
      <point x="250" y="250"/>
      <point x="290" y="161"/>
      <point x="398" y="160" type="curve" smooth="yes"/>
      <point x="507" y="159"/>
      <point x="588" y="244"/>
      <point x="606" y="350" type="curve" smooth="yes"/>
      <point x="622" y="450"/>
      <point x="582" y="539"/>
      <point x="474" y="540" type="curve" smooth="yes"/>
      <point x="365" y="541"/>
      <point x="284" y="456"/>
    </contour>
    <contour>
      <point x="62" y="350" type="curve" smooth="yes"/>
      <point x="94" y="562"/>
      <point x="275" y="718"/>
      <point x="493" y="718" type="curve" smooth="yes"/>
      <point x="707" y="718"/>
      <point x="840" y="555"/>
      <point x="810" y="350" type="curve" smooth="yes"/>
      <point x="778" y="138"/>
      <point x="596" y="-27"/>
      <point x="377" y="-27" type="curve" smooth="yes"/>
      <point x="162" y="-27"/>
      <point x="32" y="145"/>
    </contour>
    <contour>
      <point x="777" y="758" type="line"/>
      <point x="846" y="697" type="line"/>
      <point x="89" y="-58" type="line"/>
      <point x="22" y="-1" type="line"/>
    </contour>
  </outline>
</glyph>
<glyph name="Ugrave" format="2">
  <advance width="702"/>
  <unicode hex="00D9"/>
  <outline>
    <contour>
      <point x="156" y="700" type="line"/>
      <point x="349" y="700" type="line"/>
      <point x="270" y="247" type="line" smooth="yes"/>
      <point x="263" y="192"/>
      <point x="280" y="141"/>
      <point x="344" y="140" type="curve" smooth="yes"/>
      <point x="409" y="139"/>
      <point x="450" y="189"/>
      <point x="461" y="247" type="curve"/>
      <point x="540" y="700" type="line"/>
      <point x="733" y="700" type="line"/>
      <point x="653" y="230" type="line" smooth="yes"/>
      <point x="625" y="58"/>
      <point x="489" y="-35"/>
      <point x="324" y="-35" type="curve" smooth="yes"/>
      <point x="164" y="-35"/>
      <point x="54" y="59"/>
      <point x="76" y="230" type="curve"/>
    </contour>
    <contour>
      <point x="318" y="931" type="line"/>
      <point x="448" y="985" type="line"/>
      <point x="569" y="821" type="line"/>
      <point x="470" y="778" type="line"/>
    </contour>
  </outline>
</glyph>
<glyph name="Uacute" format="2">
  <advance width="702"/>
  <unicode hex="00DA"/>
  <outline>
    <contour>
      <point x="156" y="700" type="line"/>
      <point x="349" y="700" type="line"/>
      <point x="270" y="247" type="line" smooth="yes"/>
      <point x="263" y="192"/>
      <point x="280" y="141"/>
      <point x="344" y="140" type="curve" smooth="yes"/>
      <point x="409" y="139"/>
      <point x="450" y="189"/>
      <point x="461" y="247" type="curve"/>
      <point x="540" y="700" type="line"/>
      <point x="733" y="700" type="line"/>
      <point x="653" y="230" type="line" smooth="yes"/>
      <point x="625" y="58"/>
      <point x="489" y="-35"/>
      <point x="324" y="-35" type="curve" smooth="yes"/>
      <point x="164" y="-35"/>
      <point x="54" y="59"/>
      <point x="76" y="230" type="curve"/>
    </contour>
    <contour>
      <point x="651" y="925" type="line"/>
      <point x="453" y="779" type="line"/>
      <point x="359" y="828" type="line"/>
      <point x="530" y="984" type="line"/>
    </contour>
  </outline>
</glyph>
<glyph name="Ucircumflex" format="1">
  <advance width="703"/>
  <unicode hex="00DB"/>
  <outline>
    <contour>
      <point x="156" y="700" type="line"/>
      <point x="350.5" y="700" type="line"/>
      <point x="271" y="246.5" type="line" smooth="yes"/>
      <point x="264" y="191.5"/>
      <point x="280.5" y="142.5"/>
      <point x="344.5" y="141" type="curve" smooth="yes"/>
      <point x="409.5" y="139.5"/>
      <point x="450" y="188.5"/>
      <point x="461" y="247" type="curve"/>
      <point x="539.5" y="700" type="line"/>
      <point x="733" y="700" type="line"/>
      <point x="653.5" y="230" type="line" smooth="yes"/>
      <point x="625.5" y="58"/>
      <point x="489.5" y="-34.5"/>
      <point x="324.5" y="-34.5" type="curve" smooth="yes"/>
      <point x="164.5" y="-34.5"/>
      <point x="54" y="59"/>
      <point x="76.5" y="230" type="curve"/>
    </contour>
    <contour>
      <point x="475.5" y="859.5" type="line"/>
      <point x="379" y="778.5" type="line"/>
      <point x="268.5" y="862.5" type="line"/>
      <point x="491.5" y="999.5" type="line"/>
      <point x="675" y="856" type="line"/>
      <point x="544.5" y="777.5" type="line"/>
    </contour>
  </outline>
</glyph>
<glyph name="Udieresis" format="1">
  <advance width="703"/>
  <unicode hex="00DC"/>
  <outline>
    <contour>
      <point x="156" y="700" type="line"/>
      <point x="350.5" y="700" type="line"/>
      <point x="271" y="246.5" type="line" smooth="yes"/>
      <point x="264" y="191.5"/>
      <point x="280.5" y="142.5"/>
      <point x="344.5" y="141" type="curve" smooth="yes"/>
      <point x="409.5" y="139.5"/>
      <point x="450" y="188.5"/>
      <point x="461" y="247" type="curve"/>
      <point x="539.5" y="700" type="line"/>
      <point x="733" y="700" type="line"/>
      <point x="653.5" y="230" type="line" smooth="yes"/>
      <point x="625.5" y="58"/>
      <point x="489.5" y="-34.5"/>
      <point x="324.5" y="-34.5" type="curve" smooth="yes"/>
      <point x="164.5" y="-34.5"/>
      <point x="54" y="59"/>
      <point x="76.5" y="230" type="curve"/>
    </contour>
    <contour>
      <point x="525.5" y="870.5" type="curve" smooth="yes"/>
      <point x="532.5" y="922"/>
      <point x="582.5" y="959"/>
      <point x="634.5" y="959" type="curve" smooth="yes"/>
      <point x="687" y="959"/>
      <point x="726.5" y="920"/>
      <point x="719.5" y="867.5" type="curve" smooth="yes"/>
      <point x="712.5" y="816"/>
      <point x="662.5" y="778.5"/>
      <point x="610.5" y="778.5" type="curve" smooth="yes"/>
      <point x="558" y="778.5"/>
      <point x="518.5" y="818"/>
    </contour>
    <contour>
      <point x="227" y="870.5" type="curve" smooth="yes"/>
      <point x="234" y="922"/>
      <point x="284" y="959"/>
      <point x="336" y="959" type="curve" smooth="yes"/>
      <point x="388.5" y="959"/>
      <point x="428" y="920"/>
      <point x="421" y="867.5" type="curve" smooth="yes"/>
      <point x="414" y="816"/>
      <point x="364" y="778.5"/>
      <point x="312" y="778.5" type="curve" smooth="yes"/>
      <point x="259.5" y="778.5"/>
      <point x="220" y="818"/>
    </contour>
  </outline>
</glyph>
<glyph name="Yacute" format="2">
  <advance width="670"/>
  <unicode hex="00DD"/>
  <outline>
    <contour>
      <point x="634" y="925" type="line"/>
      <point x="438" y="779" type="line"/>
      <point x="344" y="828" type="line"/>
      <point x="513" y="984" type="line"/>
    </contour>
    <contour>
      <point x="544" y="700" type="line"/>
      <point x="771" y="700" type="line"/>
      <point x="455" y="275" type="line"/>
      <point x="408" y="0" type="line"/>
      <point x="210" y="0" type="line"/>
      <point x="260" y="283" type="line"/>
      <point x="90" y="700" type="line"/>
      <point x="309" y="700" type="line"/>
      <point x="385" y="460" type="line"/>
    </contour>
  </outline>
</glyph>
<glyph name="Thorn" format="2">
  <advance width="612"/>
  <unicode hex="00DE"/>
  <outline>
    <contour>
      <point x="168" y="700" type="line"/>
      <point x="334" y="700" type="line"/>
      <point x="214" y="0" type="line"/>
      <point x="49" y="0" type="line"/>
    </contour>
    <contour>
      <point x="228" y="435" type="line"/>
      <point x="255" y="585" type="line"/>
      <point x="381" y="585" type="line"/>
      <point x="547" y="583"/>
      <point x="647" y="502"/>
      <point x="624" y="354" type="curve" smooth="yes"/>
      <point x="601" y="205"/>
      <point x="485" y="125"/>
      <point x="314" y="123" type="curve"/>
      <point x="175" y="123" type="line"/>
      <point x="202" y="273" type="line"/>
      <point x="329" y="273" type="line"/>
      <point x="394" y="274"/>
      <point x="445" y="294"/>
      <point x="456" y="354" type="curve" smooth="yes"/>
      <point x="466" y="413"/>
      <point x="427" y="432"/>
      <point x="366" y="434" type="curve"/>
    </contour>
  </outline>
</glyph>
<glyph name="germandbls" format="1">
  <advance width="580"/>
  <unicode hex="00DF"/>
  <outline>
    <contour>
      <point x="271.5" y="147.5" type="line"/>
      <point x="345" y="153.5"/>
      <point x="399" y="193.5"/>
      <point x="411.5" y="261" type="curve" smooth="yes"/>
      <point x="424.5" y="324.5"/>
      <point x="381.5" y="352"/>
      <point x="297.5" y="355" type="curve"/>
      <point x="316.5" y="476" type="line"/>
      <point x="472.5" y="471.5"/>
      <point x="601.5" y="379.5"/>
      <point x="578.5" y="224.5" type="curve" smooth="yes"/>
      <point x="554.5" y="65"/>
      <point x="418.5" y="-5.5"/>
      <point x="248" y="-9.5" type="curve"/>
    </contour>
    <contour>
      <point x="306" y="409" type="curve"/>
      <point x="322" y="512.5" type="line"/>
      <point x="382" y="515.5"/>
      <point x="422" y="535.5"/>
      <point x="428" y="580.5" type="curve" smooth="yes"/>
      <point x="432.5" y="618.5"/>
      <point x="407.5" y="640.5"/>
      <point x="365.5" y="640.5" type="curve" smooth="yes"/>
      <point x="318.5" y="640.5"/>
      <point x="288" y="618"/>
      <point x="281.5" y="581" type="curve" smooth="yes"/>
      <point x="181" y="0" type="line"/>
      <point x="16.5" y="0" type="line"/>
      <point x="119.5" y="606.5" type="line" smooth="yes"/>
      <point x="140" y="729"/>
      <point x="255.5" y="798"/>
      <point x="384" y="798" type="curve" smooth="yes"/>
      <point x="520.5" y="798"/>
      <point x="614.5" y="722"/>
      <point x="596.5" y="605.5" type="curve" smooth="yes"/>
      <point x="576.5" y="475"/>
      <point x="457.5" y="412.5"/>
    </contour>
  </outline>
</glyph>
<glyph name="atilde" format="1">
  <advance width="612"/>
  <unicode hex="00E3"/>
  <outline>
    <contour>
      <point x="442.5" y="460" type="line"/>
      <point x="615" y="460" type="line"/>
      <point x="535.5" y="0" type="line"/>
      <point x="363.5" y="0" type="line"/>
    </contour>
    <contour>
      <point x="40.5" y="230.5" type="curve" smooth="yes"/>
      <point x="58.5" y="368"/>
      <point x="166.5" y="470"/>
      <point x="287" y="470" type="curve" smooth="yes"/>
      <point x="410.5" y="470"/>
      <point x="462.5" y="355"/>
      <point x="447" y="229.5" type="curve" smooth="yes"/>
      <point x="429.5" y="97.5"/>
      <point x="338.5" y="-9.5"/>
      <point x="216" y="-9.5" type="curve" smooth="yes"/>
      <point x="95.5" y="-9.5"/>
      <point x="24" y="98"/>
    </contour>
    <contour>
      <point x="221" y="229.5" type="curve" smooth="yes"/>
      <point x="213.5" y="178.5"/>
      <point x="240" y="129"/>
      <point x="292" y="127.5" type="curve" smooth="yes"/>
      <point x="342.5" y="126"/>
      <point x="393" y="174"/>
      <point x="402" y="230.5" type="curve" smooth="yes"/>
      <point x="409.5" y="283"/>
      <point x="384" y="331"/>
      <point x="335" y="332.5" type="curve" smooth="yes"/>
      <point x="281.5" y="334"/>
      <point x="230" y="284"/>
    </contour>
    <contour>
      <point x="198" y="607.5" type="line"/>
      <point x="218" y="657.5"/>
      <point x="263.5" y="705"/>
      <point x="331.5" y="704.5" type="curve" smooth="yes"/>
      <point x="387" y="704"/>
      <point x="407.5" y="650.5"/>
      <point x="458.5" y="652" type="curve" smooth="yes"/>
      <point x="489" y="653"/>
      <point x="513.5" y="678.5"/>
      <point x="535.5" y="705" type="curve"/>
      <point x="603" y="619.5" type="line"/>
      <point x="576" y="580.5"/>
      <point x="516.5" y="529.5"/>
      <point x="453" y="532" type="curve" smooth="yes"/>
      <point x="403.5" y="534"/>
      <point x="369" y="589"/>
      <point x="321.5" y="585.5" type="curve" smooth="yes"/>
      <point x="288.5" y="583"/>
      <point x="275" y="554"/>
      <point x="266.5" y="536" type="curve"/>
    </contour>
  </outline>
</glyph>
<glyph name="adieresis" format="1">
  <advance width="612"/>
  <unicode hex="00E4"/>
  <outline>
    <contour>
      <point x="442.5" y="460" type="line"/>
      <point x="615" y="460" type="line"/>
      <point x="535.5" y="0" type="line"/>
      <point x="363.5" y="0" type="line"/>
    </contour>
    <contour>
      <point x="40.5" y="230.5" type="curve" smooth="yes"/>
      <point x="58.5" y="368"/>
      <point x="166.5" y="470"/>
      <point x="287" y="470" type="curve" smooth="yes"/>
      <point x="410.5" y="470"/>
      <point x="462.5" y="355"/>
      <point x="447" y="229.5" type="curve" smooth="yes"/>
      <point x="429.5" y="97.5"/>
      <point x="338.5" y="-9.5"/>
      <point x="216" y="-9.5" type="curve" smooth="yes"/>
      <point x="95.5" y="-9.5"/>
      <point x="24" y="98"/>
    </contour>
    <contour>
      <point x="221" y="229.5" type="curve" smooth="yes"/>
      <point x="213.5" y="178.5"/>
      <point x="240" y="129"/>
      <point x="292" y="127.5" type="curve" smooth="yes"/>
      <point x="342.5" y="126"/>
      <point x="393" y="174"/>
      <point x="402" y="230.5" type="curve" smooth="yes"/>
      <point x="409.5" y="283"/>
      <point x="384" y="331"/>
      <point x="335" y="332.5" type="curve" smooth="yes"/>
      <point x="281.5" y="334"/>
      <point x="230" y="284"/>
    </contour>
    <contour>
      <point x="414" y="622.5" type="curve" smooth="yes"/>
      <point x="421" y="674"/>
      <point x="470.5" y="711.5"/>
      <point x="522.5" y="711.5" type="curve" smooth="yes"/>
      <point x="575" y="711.5"/>
      <point x="615" y="672"/>
      <point x="608" y="619.5" type="curve" smooth="yes"/>
      <point x="601" y="568"/>
      <point x="551.5" y="531.5"/>
      <point x="499.5" y="531.5" type="curve" smooth="yes"/>
      <point x="447" y="531.5"/>
      <point x="407" y="570"/>
    </contour>
    <contour>
      <point x="163.5" y="622.5" type="curve" smooth="yes"/>
      <point x="170.5" y="674"/>
      <point x="220.5" y="711.5"/>
      <point x="272.5" y="711.5" type="curve" smooth="yes"/>
      <point x="325" y="711.5"/>
      <point x="364.5" y="672"/>
      <point x="357.5" y="619.5" type="curve" smooth="yes"/>
      <point x="350.5" y="568"/>
      <point x="300.5" y="531.5"/>
      <point x="248.5" y="531.5" type="curve" smooth="yes"/>
      <point x="196" y="531.5"/>
      <point x="156.5" y="570"/>
    </contour>
  </outline>
</glyph>
<glyph name="aring" format="1">
  <advance width="612"/>
  <unicode hex="00E5"/>
  <outline>
    <contour>
      <point x="442.5" y="460" type="line"/>
      <point x="615" y="460" type="line"/>
      <point x="535.5" y="0" type="line"/>
      <point x="363.5" y="0" type="line"/>
    </contour>
    <contour>
      <point x="40.5" y="230.5" type="curve" smooth="yes"/>
      <point x="58.5" y="368"/>
      <point x="166.5" y="470"/>
      <point x="287" y="470" type="curve" smooth="yes"/>
      <point x="410.5" y="470"/>
      <point x="462.5" y="355"/>
      <point x="447" y="229.5" type="curve" smooth="yes"/>
      <point x="429.5" y="97.5"/>
      <point x="338.5" y="-9.5"/>
      <point x="216" y="-9.5" type="curve" smooth="yes"/>
      <point x="95.5" y="-9.5"/>
      <point x="24" y="98"/>
    </contour>
    <contour>
      <point x="221" y="229.5" type="curve" smooth="yes"/>
      <point x="213.5" y="178.5"/>
      <point x="240" y="129"/>
      <point x="292" y="127.5" type="curve" smooth="yes"/>
      <point x="342.5" y="126"/>
      <point x="393" y="174"/>
      <point x="402" y="230.5" type="curve" smooth="yes"/>
      <point x="409.5" y="283"/>
      <point x="384" y="331"/>
      <point x="335" y="332.5" type="curve" smooth="yes"/>
      <point x="281.5" y="334"/>
      <point x="230" y="284"/>
    </contour>
    <contour>
      <point x="257" y="652.5" type="curve" smooth="yes"/>
      <point x="266" y="721.5"/>
      <point x="330.5" y="772"/>
      <point x="401.5" y="772" type="curve" smooth="yes"/>
      <point x="472.5" y="772"/>
      <point x="526.5" y="720.5"/>
      <point x="517" y="650.5" type="curve" smooth="yes"/>
      <point x="508" y="581"/>
      <point x="441" y="531.5"/>
      <point x="369.5" y="531.5" type="curve" smooth="yes"/>
      <point x="298.5" y="531.5"/>
      <point x="247.5" y="583"/>
    </contour>
    <contour>
      <point x="343" y="650.5" type="curve" smooth="yes"/>
      <point x="340.5" y="628"/>
      <point x="352.5" y="607.5"/>
      <point x="375" y="606.5" type="curve" smooth="yes"/>
      <point x="398.5" y="605.5"/>
      <point x="426.5" y="628.5"/>
      <point x="430" y="652.5" type="curve" smooth="yes"/>
      <point x="432.5" y="675"/>
      <point x="419" y="696.5"/>
      <point x="396.5" y="697.5" type="curve" smooth="yes"/>
      <point x="373" y="698.5"/>
      <point x="346.5" y="674.5"/>
    </contour>
  </outline>
</glyph>
<glyph name="ae" format="1">
  <advance width="891"/>
  <unicode hex="00E6"/>
  <outline>
    <contour>
      <point x="188" y="137.5" type="curve" smooth="yes"/>
      <point x="184.5" y="112"/>
      <point x="206" y="100"/>
      <point x="231.5" y="99" type="curve" smooth="yes"/>
      <point x="283.5" y="96.5"/>
      <point x="324" y="132"/>
      <point x="336.5" y="188" type="curve"/>
      <point x="408" y="128.5" type="line"/>
      <point x="386" y="36.5"/>
      <point x="310" y="-10"/>
      <point x="190.5" y="-9.5" type="curve" smooth="yes"/>
      <point x="87.5" y="-9.5"/>
      <point x="0.5" y="35.5"/>
      <point x="14.5" y="129.5" type="curve" smooth="yes"/>
      <point x="28" y="223.5"/>
      <point x="124" y="276"/>
      <point x="230" y="276.5" type="curve" smooth="yes"/>
      <point x="289" y="277"/>
      <point x="348" y="258.5"/>
      <point x="380" y="231" type="curve"/>
      <point x="368" y="153" type="line"/>
      <point x="339" y="175.5"/>
      <point x="310.5" y="188.5"/>
      <point x="267.5" y="187.5" type="curve" smooth="yes"/>
      <point x="231.5" y="186.5"/>
      <point x="192.5" y="168.5"/>
    </contour>
    <contour>
      <point x="143.5" y="307" type="curve"/>
      <point x="105" y="423" type="line"/>
      <point x="168.5" y="448.5"/>
      <point x="245.5" y="474.5"/>
      <point x="325" y="474" type="curve" smooth="yes"/>
      <point x="439.5" y="473"/>
      <point x="478.5" y="418.5"/>
      <point x="465.5" y="322" type="curve"/>
      <point x="434" y="130" type="line"/>
      <point x="328" y="130.5" type="line"/>
      <point x="356" y="280.5" type="line"/>
      <point x="360" y="317"/>
      <point x="340" y="341"/>
      <point x="296.5" y="343.5" type="curve" smooth="yes"/>
      <point x="237.5" y="347"/>
      <point x="178" y="322"/>
    </contour>
    <contour>
      <point x="417" y="194" type="line"/>
      <point x="431" y="283" type="line"/>
      <point x="865.5" y="283" type="line"/>
      <point x="866" y="193.5" type="line"/>
    </contour>
    <contour>
      <point x="695.5" y="242" type="line" smooth="yes"/>
      <point x="702" y="300"/>
      <point x="702" y="355"/>
      <point x="643" y="358" type="curve" smooth="yes"/>
      <point x="584.5" y="361"/>
      <point x="548.5" y="310"/>
      <point x="537" y="252" type="curve"/>
      <point x="530.5" y="229.5" type="line"/>
      <point x="521.5" y="162.5"/>
      <point x="539.5" y="115"/>
      <point x="595.5" y="111.5" type="curve" smooth="yes"/>
      <point x="642.5" y="109"/>
      <point x="680" y="132"/>
      <point x="705.5" y="161.5" type="curve"/>
      <point x="859.5" y="130.5" type="line"/>
      <point x="800.5" y="46.5"/>
      <point x="715" y="-10"/>
      <point x="591.5" y="-10" type="curve" smooth="yes"/>
      <point x="427.5" y="-9.5"/>
      <point x="378.5" y="95.5"/>
      <point x="399.5" y="230" type="curve" smooth="yes"/>
      <point x="402" y="247"/>
      <point x="407.5" y="263"/>
      <point x="412.5" y="279" type="curve" smooth="yes"/>
      <point x="449.5" y="391"/>
      <point x="547" y="470"/>
      <point x="682" y="470" type="curve" smooth="yes"/>
      <point x="821" y="470"/>
      <point x="891" y="371"/>
      <point x="874.5" y="238" type="curve" smooth="yes"/>
      <point x="872.5" y="226.5"/>
      <point x="870" y="210.5"/>
      <point x="866.5" y="194" type="curve"/>
      <point x="690.5" y="214.5" type="line"/>
    </contour>
  </outline>
</glyph>
<glyph name="ccedilla" format="1">
  <advance width="483"/>
  <unicode hex="00E7"/>
  <outline>
    <contour>
      <point x="216.5" y="229.5" type="curve" smooth="yes"/>
      <point x="207" y="170"/>
      <point x="242.5" y="128"/>
      <point x="302" y="126.5" type="curve" smooth="yes"/>
      <point x="354" y="124.5"/>
      <point x="403.5" y="151"/>
      <point x="439" y="188" type="curve"/>
      <point x="415.5" y="25.5" type="line"/>
      <point x="377" y="4"/>
      <point x="333" y="-10"/>
      <point x="272.5" y="-10" type="curve" smooth="yes"/>
      <point x="124" y="-10"/>
      <point x="19" y="88"/>
      <point x="39.5" y="230.5" type="curve" smooth="yes"/>
      <point x="61" y="375.5"/>
      <point x="190.5" y="470"/>
      <point x="343.5" y="470" type="curve" smooth="yes"/>
      <point x="403" y="470"/>
      <point x="445" y="455"/>
      <point x="482" y="435.5" type="curve"/>
      <point x="457.5" y="272" type="line"/>
      <point x="432" y="312.5"/>
      <point x="390.5" y="335"/>
      <point x="347" y="334.5" type="curve" smooth="yes"/>
      <point x="286" y="334"/>
      <point x="227" y="287.5"/>
    </contour>
    <contour>
      <point x="204" y="60.5" type="line"/>
      <point x="333" y="55.5" type="line"/>
      <point x="216" y="-69" type="line"/>
      <point x="228.5" y="-65.5"/>
      <point x="243.5" y="-64.5"/>
      <point x="257.5" y="-65" type="curve" smooth="yes"/>
      <point x="306.5" y="-67"/>
      <point x="347" y="-109"/>
      <point x="339.5" y="-170.5" type="curve" smooth="yes"/>
      <point x="329.5" y="-243"/>
      <point x="254.5" y="-281"/>
      <point x="188" y="-282.5" type="curve" smooth="yes"/>
      <point x="129.5" y="-284"/>
      <point x="82.5" y="-269.5"/>
      <point x="32.5" y="-241.5" type="curve"/>
      <point x="91.5" y="-166.5" type="line"/>
      <point x="116" y="-182.5"/>
      <point x="147" y="-192"/>
      <point x="169.5" y="-191.5" type="curve" smooth="yes"/>
      <point x="195.5" y="-191"/>
      <point x="232" y="-179.5"/>
      <point x="233.5" y="-156" type="curve" smooth="yes"/>
      <point x="235" y="-132"/>
      <point x="201.5" y="-127"/>
      <point x="180" y="-126.5" type="curve" smooth="yes"/>
      <point x="159" y="-125.5"/>
      <point x="122" y="-131"/>
      <point x="86.5" y="-141" type="curve"/>
    </contour>
  </outline>
</glyph>
<glyph name="edieresis" format="1">
  <advance width="575"/>
  <unicode hex="00EB"/>
  <outline>
    <contour>
      <point x="130" y="194" type="line"/>
      <point x="144" y="282.5" type="line"/>
      <point x="380.5" y="283.5" type="line"/>
      <point x="379" y="324.5"/>
      <point x="369.5" y="356.5"/>
      <point x="325" y="358.5" type="curve" smooth="yes"/>
      <point x="266.5" y="361"/>
      <point x="231" y="309"/>
      <point x="219.5" y="251.5" type="curve"/>
      <point x="213" y="229.5" type="line"/>
      <point x="204" y="162.5"/>
      <point x="223" y="115"/>
      <point x="278.5" y="111.5" type="curve" smooth="yes"/>
      <point x="325.5" y="109"/>
      <point x="362.5" y="132"/>
      <point x="388" y="161.5" type="curve"/>
      <point x="542" y="130.5" type="line"/>
      <point x="483" y="46"/>
      <point x="398.5" y="-10"/>
      <point x="274.5" y="-10" type="curve" smooth="yes"/>
      <point x="112.5" y="-10"/>
      <point x="20.5" y="89.5"/>
      <point x="41" y="230" type="curve" smooth="yes"/>
      <point x="43.5" y="247"/>
      <point x="47" y="263"/>
      <point x="52" y="279" type="curve" smooth="yes"/>
      <point x="89.5" y="395"/>
      <point x="194" y="470"/>
      <point x="339" y="470" type="curve" smooth="yes"/>
      <point x="494.5" y="470"/>
      <point x="575.5" y="379"/>
      <point x="557.5" y="238" type="curve" smooth="yes"/>
      <point x="555.5" y="226.5"/>
      <point x="553" y="210.5"/>
      <point x="549.5" y="194" type="curve"/>
    </contour>
    <contour>
      <point x="398.5" y="622.5" type="curve" smooth="yes"/>
      <point x="405.5" y="674"/>
      <point x="455.5" y="711.5"/>
      <point x="507.5" y="711.5" type="curve" smooth="yes"/>
      <point x="560" y="711.5"/>
      <point x="599.5" y="672"/>
      <point x="592.5" y="619.5" type="curve" smooth="yes"/>
      <point x="585.5" y="568"/>
      <point x="535.5" y="531.5"/>
      <point x="483.5" y="531.5" type="curve" smooth="yes"/>
      <point x="431" y="531.5"/>
      <point x="391.5" y="570"/>
    </contour>
    <contour>
      <point x="148" y="622.5" type="curve" smooth="yes"/>
      <point x="155" y="674"/>
      <point x="205" y="711.5"/>
      <point x="257" y="711.5" type="curve" smooth="yes"/>
      <point x="309.5" y="711.5"/>
      <point x="349" y="672"/>
      <point x="342" y="619.5" type="curve" smooth="yes"/>
      <point x="335" y="568"/>
      <point x="285.5" y="531.5"/>
      <point x="233.5" y="531.5" type="curve" smooth="yes"/>
      <point x="181" y="531.5"/>
      <point x="141" y="570"/>
    </contour>
  </outline>
</glyph>
<glyph name="igrave" format="1">
  <advance width="273"/>
  <unicode hex="00EC"/>
  <outline>
    <contour>
      <point x="104.5" y="460" type="line"/>
      <point x="271.5" y="460" type="line"/>
      <point x="192.5" y="0" type="line"/>
      <point x="26" y="0" type="line"/>
    </contour>
    <contour>
      <point x="45" y="686.5" type="line"/>
      <point x="176" y="741.5" type="line"/>
      <point x="297" y="578" type="line"/>
      <point x="197.5" y="534" type="line"/>
    </contour>
  </outline>
</glyph>
<glyph name="iacute" format="1">
  <advance width="273"/>
  <unicode hex="00ED"/>
  <outline>
    <contour>
      <point x="104.5" y="460" type="line"/>
      <point x="271.5" y="460" type="line"/>
      <point x="192.5" y="0" type="line"/>
      <point x="26" y="0" type="line"/>
    </contour>
    <contour>
      <point x="398" y="680.5" type="line"/>
      <point x="201" y="534.5" type="line"/>
      <point x="107" y="584" type="line"/>
      <point x="277" y="740" type="line"/>
    </contour>
  </outline>
</glyph>
<glyph name="icircumflex" format="1">
  <advance width="273"/>
  <unicode hex="00EE"/>
  <outline>
    <contour>
      <point x="104.5" y="460" type="line"/>
      <point x="271.5" y="460" type="line"/>
      <point x="192.5" y="0" type="line"/>
      <point x="26" y="0" type="line"/>
    </contour>
    <contour>
      <point x="217.5" y="614" type="line"/>
      <point x="121" y="532.5" type="line"/>
      <point x="10" y="617" type="line"/>
      <point x="233" y="754" type="line"/>
      <point x="417" y="610.5" type="line"/>
      <point x="286.5" y="531.5" type="line"/>
    </contour>
  </outline>
</glyph>
<glyph name="idieresis" format="2">
  <advance width="272"/>
  <unicode hex="00EF"/>
  <outline>
    <contour>
      <point x="104" y="460" type="line"/>
      <point x="271" y="460" type="line"/>
      <point x="192" y="0" type="line"/>
      <point x="26" y="0" type="line"/>
    </contour>
    <contour>
      <point x="244" y="628" type="curve" smooth="yes"/>
      <point x="251" y="679"/>
      <point x="301" y="717"/>
      <point x="353" y="717" type="curve" smooth="yes"/>
      <point x="405" y="717"/>
      <point x="445" y="677"/>
      <point x="438" y="625" type="curve" smooth="yes"/>
      <point x="431" y="574"/>
      <point x="382" y="537"/>
      <point x="330" y="537" type="curve" smooth="yes"/>
      <point x="278" y="537"/>
      <point x="237" y="576"/>
    </contour>
    <contour>
      <point x="-6" y="628" type="curve" smooth="yes"/>
      <point x="1" y="679"/>
      <point x="51" y="717"/>
      <point x="103" y="717" type="curve" smooth="yes"/>
      <point x="155" y="717"/>
      <point x="195" y="677"/>
      <point x="188" y="625" type="curve" smooth="yes"/>
      <point x="181" y="574"/>
      <point x="132" y="537"/>
      <point x="80" y="537" type="curve" smooth="yes"/>
      <point x="28" y="537"/>
      <point x="-13" y="576"/>
    </contour>
  </outline>
</glyph>
<glyph name="eth" format="1">
  <advance width="678"/>
  <unicode hex="00F0"/>
  <outline>
    <contour>
      <point x="456.5" y="251" type="curve" smooth="yes"/>
      <point x="465.5" y="306"/>
      <point x="435" y="353.5"/>
      <point x="377" y="354.5" type="curve" smooth="yes"/>
      <point x="317.5" y="356"/>
      <point x="264" y="308.5"/>
      <point x="254" y="250" type="curve" smooth="yes"/>
      <point x="245" y="194.5"/>
      <point x="275.5" y="149.5"/>
      <point x="333" y="148.5" type="curve" smooth="yes"/>
      <point x="392" y="147.5"/>
      <point x="446.5" y="192.5"/>
    </contour>
    <contour>
      <point x="444.5" y="696" type="line"/>
      <point x="590" y="462" type="line" smooth="yes"/>
      <point x="630.5" y="397"/>
      <point x="659.5" y="328"/>
      <point x="648.5" y="250.5" type="curve" smooth="yes"/>
      <point x="625" y="81.5"/>
      <point x="479" y="-18"/>
      <point x="315" y="-18" type="curve" smooth="yes"/>
      <point x="155" y="-18"/>
      <point x="38.5" y="85"/>
      <point x="62.5" y="251" type="curve" smooth="yes"/>
      <point x="81" y="382"/>
      <point x="196" y="477"/>
      <point x="310.5" y="479" type="curve" smooth="yes"/>
      <point x="360.5" y="480"/>
      <point x="389.5" y="465.5"/>
      <point x="427" y="431.5" type="curve"/>
      <point x="389" y="454" type="line"/>
      <point x="208" y="696" type="line"/>
    </contour>
    <contour>
      <point x="188.5" y="520.5" type="line"/>
      <point x="201" y="601.5" type="line"/>
      <point x="672" y="601.5" type="line"/>
      <point x="658.5" y="520.5" type="line"/>
    </contour>
  </outline>
</glyph>
<glyph name="ntilde" format="1">
  <advance width="573"/>
  <unicode hex="00F1"/>
  <outline>
    <contour>
      <point x="276" y="460" type="line"/>
      <point x="197" y="0" type="line"/>
      <point x="24" y="0" type="line"/>
      <point x="103" y="460" type="line"/>
    </contour>
    <contour>
      <point x="364.5" y="280" type="line"/>
      <point x="368" y="317"/>
      <point x="366" y="350.5"/>
      <point x="325" y="354" type="curve" smooth="yes"/>
      <point x="283.5" y="357.5"/>
      <point x="254" y="319.5"/>
      <point x="245" y="280.5" type="curve"/>
      <point x="215" y="273" type="line"/>
      <point x="233" y="376"/>
      <point x="290" y="470"/>
      <point x="407.5" y="471" type="curve" smooth="yes"/>
      <point x="521.5" y="472"/>
      <point x="558.5" y="399.5"/>
      <point x="545.5" y="298" type="curve"/>
      <point x="495" y="0" type="line"/>
      <point x="314.5" y="0" type="line"/>
    </contour>
    <contour>
      <point x="162.5" y="608" type="line"/>
      <point x="183.5" y="656"/>
      <point x="229.5" y="706"/>
      <point x="295.5" y="704.5" type="curve" smooth="yes"/>
      <point x="351" y="703.5"/>
      <point x="372" y="650.5"/>
      <point x="423" y="652" type="curve" smooth="yes"/>
      <point x="453.5" y="653"/>
      <point x="478" y="678.5"/>
      <point x="500" y="705" type="curve"/>
      <point x="567.5" y="619.5" type="line"/>
      <point x="540.5" y="580.5"/>
      <point x="480.5" y="529.5"/>
      <point x="417" y="532" type="curve" smooth="yes"/>
      <point x="367.5" y="534"/>
      <point x="333" y="589"/>
      <point x="285.5" y="585.5" type="curve" smooth="yes"/>
      <point x="252.5" y="583"/>
      <point x="238" y="554"/>
      <point x="229.5" y="536" type="curve"/>
    </contour>
  </outline>
</glyph>
<glyph name="ocircumflex" format="2">
  <advance width="584"/>
  <unicode hex="00F4"/>
  <outline>
    <contour>
      <point x="41" y="230" type="curve" smooth="yes"/>
      <point x="62" y="374"/>
      <point x="191" y="471"/>
      <point x="341" y="471" type="curve" smooth="yes"/>
      <point x="488" y="471"/>
      <point x="590" y="371"/>
      <point x="570" y="230" type="curve" smooth="yes"/>
      <point x="549" y="86"/>
      <point x="419" y="-10"/>
      <point x="269" y="-10" type="curve" smooth="yes"/>
      <point x="122" y="-10"/>
      <point x="21" y="89"/>
    </contour>
    <contour>
      <point x="217" y="230" type="curve" smooth="yes"/>
      <point x="209" y="179"/>
      <point x="233" y="132"/>
      <point x="284" y="131" type="curve" smooth="yes"/>
      <point x="336" y="130"/>
      <point x="384" y="175"/>
      <point x="393" y="230" type="curve" smooth="yes"/>
      <point x="401" y="281"/>
      <point x="377" y="328"/>
      <point x="326" y="329" type="curve" smooth="yes"/>
      <point x="274" y="330"/>
      <point x="226" y="285"/>
    </contour>
    <contour>
      <point x="375" y="616" type="line"/>
      <point x="279" y="534" type="line"/>
      <point x="168" y="618" type="line"/>
      <point x="390" y="756" type="line"/>
      <point x="574" y="612" type="line"/>
      <point x="444" y="533" type="line"/>
    </contour>
  </outline>
</glyph>
<glyph name="otilde" format="1">
  <advance width="585"/>
  <unicode hex="00F5"/>
  <outline>
    <contour>
      <point x="40.5" y="230.5" type="curve" smooth="yes"/>
      <point x="61.5" y="374"/>
      <point x="191" y="471"/>
      <point x="341" y="471" type="curve" smooth="yes"/>
      <point x="487" y="471"/>
      <point x="590" y="370.5"/>
      <point x="570" y="229.5" type="curve" smooth="yes"/>
      <point x="549" y="86"/>
      <point x="419.5" y="-10"/>
      <point x="270" y="-10" type="curve" smooth="yes"/>
      <point x="124" y="-10"/>
      <point x="20.5" y="89.5"/>
    </contour>
    <contour>
      <point x="217" y="229.5" type="curve" smooth="yes"/>
      <point x="209.5" y="178"/>
      <point x="234" y="133.5"/>
      <point x="284.5" y="132" type="curve" smooth="yes"/>
      <point x="336.5" y="130.5"/>
      <point x="384.5" y="175"/>
      <point x="393.5" y="230.5" type="curve" smooth="yes"/>
      <point x="401" y="282"/>
      <point x="377" y="327.5"/>
      <point x="326.5" y="329" type="curve" smooth="yes"/>
      <point x="274.5" y="330.5"/>
      <point x="226" y="285"/>
    </contour>
    <contour>
      <point x="168.5" y="607.5" type="line"/>
      <point x="168.5" y="657.5"/>
      <point x="248.5" y="705"/>
      <point x="302" y="704.5" type="curve" smooth="yes"/>
      <point x="357.5" y="704"/>
      <point x="377.5" y="650.5"/>
      <point x="428.5" y="652" type="curve" smooth="yes"/>
      <point x="459" y="653"/>
      <point x="484" y="678.5"/>
      <point x="506" y="705" type="curve"/>
      <point x="573.5" y="619.5" type="line"/>
      <point x="546.5" y="580.5"/>
      <point x="486.5" y="529.5"/>
      <point x="423" y="532" type="curve" smooth="yes"/>
      <point x="373.5" y="534"/>
      <point x="338.5" y="589"/>
      <point x="291" y="585.5" type="curve" smooth="yes"/>
      <point x="258" y="583"/>
      <point x="245" y="554"/>
      <point x="236.5" y="536" type="curve"/>
    </contour>
  </outline>
</glyph>
<glyph name="odieresis" format="1">
  <advance width="585"/>
  <unicode hex="00F6"/>
  <outline>
    <contour>
      <point x="40.5" y="230.5" type="curve" smooth="yes"/>
      <point x="61.5" y="374"/>
      <point x="191" y="471"/>
      <point x="341" y="471" type="curve" smooth="yes"/>
      <point x="487" y="471"/>
      <point x="590" y="370.5"/>
      <point x="570" y="229.5" type="curve" smooth="yes"/>
      <point x="549" y="86"/>
      <point x="419.5" y="-10"/>
      <point x="270" y="-10" type="curve" smooth="yes"/>
      <point x="124" y="-10"/>
      <point x="20.5" y="89.5"/>
    </contour>
    <contour>
      <point x="217" y="229.5" type="curve" smooth="yes"/>
      <point x="209.5" y="178"/>
      <point x="234" y="133.5"/>
      <point x="284.5" y="132" type="curve" smooth="yes"/>
      <point x="336.5" y="130.5"/>
      <point x="384.5" y="175"/>
      <point x="393.5" y="230.5" type="curve" smooth="yes"/>
      <point x="401" y="282"/>
      <point x="377" y="327.5"/>
      <point x="326.5" y="329" type="curve" smooth="yes"/>
      <point x="274.5" y="330.5"/>
      <point x="226" y="285"/>
    </contour>
    <contour>
      <point x="401" y="628" type="curve" smooth="yes"/>
      <point x="408" y="679.5"/>
      <point x="458" y="716.5"/>
      <point x="510" y="716.5" type="curve" smooth="yes"/>
      <point x="562.5" y="716.5"/>
      <point x="602" y="677.5"/>
      <point x="595" y="625" type="curve" smooth="yes"/>
      <point x="588" y="573.5"/>
      <point x="538" y="536"/>
      <point x="486" y="536" type="curve" smooth="yes"/>
      <point x="433.5" y="536"/>
      <point x="394" y="575.5"/>
    </contour>
    <contour>
      <point x="150.5" y="628" type="curve" smooth="yes"/>
      <point x="157.5" y="679.5"/>
      <point x="207.5" y="716.5"/>
      <point x="259.5" y="716.5" type="curve" smooth="yes"/>
      <point x="312" y="716.5"/>
      <point x="351.5" y="677.5"/>
      <point x="344.5" y="625" type="curve" smooth="yes"/>
      <point x="337.5" y="573.5"/>
      <point x="288" y="536"/>
      <point x="236" y="536" type="curve" smooth="yes"/>
      <point x="183.5" y="536"/>
      <point x="143.5" y="575.5"/>
    </contour>
  </outline>
</glyph>
<glyph name="divide" format="2">
  <advance width="625"/>
  <unicode hex="00F7"/>
  <outline>
    <contour>
      <point x="281" y="587" type="curve" smooth="yes"/>
      <point x="288" y="643"/>
      <point x="339" y="690"/>
      <point x="399" y="690" type="curve" smooth="yes"/>
      <point x="459" y="690"/>
      <point x="498" y="640"/>
      <point x="491" y="585" type="curve" smooth="yes"/>
      <point x="484" y="529"/>
      <point x="432" y="482"/>
      <point x="372" y="482" type="curve" smooth="yes"/>
      <point x="312" y="482"/>
      <point x="274" y="532"/>
    </contour>
    <contour>
      <point x="199" y="108" type="curve" smooth="yes"/>
      <point x="206" y="164"/>
      <point x="258" y="211"/>
      <point x="318" y="211" type="curve" smooth="yes"/>
      <point x="378" y="211"/>
      <point x="416" y="161"/>
      <point x="409" y="106" type="curve" smooth="yes"/>
      <point x="402" y="51"/>
      <point x="350" y="3"/>
      <point x="290" y="3" type="curve" smooth="yes"/>
      <point x="230" y="3"/>
      <point x="192" y="53"/>
    </contour>
    <contour>
      <point x="31" y="270" type="line"/>
      <point x="59" y="425" type="line"/>
      <point x="659" y="425" type="line"/>
      <point x="632" y="270" type="line"/>
    </contour>
  </outline>
</glyph>
<glyph name="oslash" format="1">
  <advance width="529"/>
  <unicode hex="00F8"/>
  <outline>
    <contour>
      <point x="40.5" y="230.5" type="curve" smooth="yes"/>
      <point x="62" y="378.5"/>
      <point x="192.5" y="470"/>
      <point x="341" y="470" type="curve" smooth="yes"/>
      <point x="486" y="470"/>
      <point x="590.5" y="375.5"/>
      <point x="570" y="229.5" type="curve" smooth="yes"/>
      <point x="548.5" y="81.5"/>
      <point x="418.5" y="-10"/>
      <point x="270" y="-10" type="curve" smooth="yes"/>
      <point x="125" y="-10"/>
      <point x="20" y="84.5"/>
    </contour>
    <contour>
      <point x="201.5" y="229.5" type="curve" smooth="yes"/>
      <point x="192" y="169.5"/>
      <point x="225" y="124.5"/>
      <point x="283" y="123.5" type="curve" smooth="yes"/>
      <point x="342.5" y="122"/>
      <point x="399.5" y="167"/>
      <point x="409.5" y="230.5" type="curve" smooth="yes"/>
      <point x="418" y="285.5"/>
      <point x="385" y="335"/>
      <point x="328" y="336.5" type="curve" smooth="yes"/>
      <point x="269.5" y="338"/>
      <point x="212" y="288"/>
    </contour>
    <contour>
      <point x="501.5" y="507.5" type="line"/>
      <point x="561.5" y="467.5" type="line"/>
      <point x="96" y="-51.5" type="line"/>
      <point x="38" y="-14" type="line"/>
    </contour>
  </outline>
</glyph>
<glyph name="ugrave" format="1">
  <advance width="573"/>
  <unicode hex="00F9"/>
  <outline>
    <contour>
      <point x="322" y="0" type="line"/>
      <point x="401.5" y="460" type="line"/>
      <point x="574.5" y="460" type="line"/>
      <point x="495" y="0" type="line"/>
    </contour>
    <contour>
      <point x="234" y="180" type="line"/>
      <point x="230.5" y="143"/>
      <point x="232" y="109.5"/>
      <point x="273" y="106" type="curve" smooth="yes"/>
      <point x="314.5" y="102.5"/>
      <point x="344.5" y="140.5"/>
      <point x="353.5" y="179.5" type="curve"/>
      <point x="383.5" y="187" type="line"/>
      <point x="365.5" y="84"/>
      <point x="307.5" y="-10"/>
      <point x="190" y="-11" type="curve" smooth="yes"/>
      <point x="76" y="-12"/>
      <point x="39.5" y="60.5"/>
      <point x="52.5" y="162" type="curve"/>
      <point x="103" y="460" type="line"/>
      <point x="284" y="460" type="line"/>
    </contour>
    <contour>
      <point x="228" y="686.5" type="line"/>
      <point x="359" y="741.5" type="line"/>
      <point x="479.5" y="578" type="line"/>
      <point x="380.5" y="534" type="line"/>
    </contour>
  </outline>
</glyph>
<glyph name="ucircumflex" format="1">
  <advance width="573"/>
  <unicode hex="00FB"/>
  <outline>
    <contour>
      <point x="322" y="0" type="line"/>
      <point x="401.5" y="460" type="line"/>
      <point x="574.5" y="460" type="line"/>
      <point x="495" y="0" type="line"/>
    </contour>
    <contour>
      <point x="234" y="180" type="line"/>
      <point x="230.5" y="143"/>
      <point x="232" y="109.5"/>
      <point x="273" y="106" type="curve" smooth="yes"/>
      <point x="314.5" y="102.5"/>
      <point x="344.5" y="140.5"/>
      <point x="353.5" y="179.5" type="curve"/>
      <point x="383.5" y="187" type="line"/>
      <point x="365.5" y="84"/>
      <point x="307.5" y="-10"/>
      <point x="190" y="-11" type="curve" smooth="yes"/>
      <point x="76" y="-12"/>
      <point x="39.5" y="60.5"/>
      <point x="52.5" y="162" type="curve"/>
      <point x="103" y="460" type="line"/>
      <point x="284" y="460" type="line"/>
    </contour>
    <contour>
      <point x="368.5" y="616" type="line"/>
      <point x="271.5" y="534" type="line"/>
      <point x="161" y="619" type="line"/>
      <point x="383.5" y="755.5" type="line"/>
      <point x="568" y="612.5" type="line"/>
      <point x="436.5" y="533" type="line"/>
    </contour>
  </outline>
</glyph>
